<svg xmlns="http://www.w3.org/2000/svg" xmlns:xlink="http://www.w3.org/1999/xlink" width="310" zoomAndPan="magnify" viewBox="0 0 232.5 41.25" height="55" preserveAspectRatio="xMidYMid meet" version="1.0"><defs><g/><clipPath id="39c436b018"><path d="M 1.832031 0 L 230.179688 0 L 230.179688 40.511719 L 1.832031 40.511719 Z M 1.832031 0 " clip-rule="nonzero"/></clipPath></defs><g clip-path="url(#39c436b018)"><path stroke-linecap="butt" transform="matrix(1.854919, 0, 0, 1.854919, 7.398323, -1.371849)" fill="none" stroke-linejoin="miter" d="M 5.886017 9.679066 C 5.738605 9.679066 5.664899 9.615889 5.664899 9.48743 C 5.664899 9.468477 5.667005 9.449524 5.671217 9.432677 C 5.677534 9.41583 5.67964 9.405301 5.67964 9.405301 C 5.734393 9.194712 5.782829 8.992547 5.824946 8.800911 C 5.864958 8.607169 5.886017 8.409216 5.886017 8.207051 C 5.886017 7.931179 5.841793 7.697426 5.749134 7.503684 C 5.660687 7.312048 5.494322 7.215178 5.245827 7.215178 C 4.980485 7.215178 4.702508 7.345743 4.414002 7.608979 C 4.127601 7.870109 3.858047 8.221792 3.605341 8.664028 C 3.35474 9.106265 3.156787 9.59483 3.007269 10.129726 C 2.859857 10.662515 2.786151 11.199517 2.786151 11.742836 C 2.786151 12.500955 2.931457 13.033745 3.222069 13.34331 C 3.516894 13.652876 3.845412 13.808711 4.207625 13.808711 C 4.451908 13.808711 4.708826 13.745535 4.980485 13.617076 C 5.254251 13.488616 5.513275 13.339098 5.757558 13.168521 C 6.006053 12.995839 6.193477 12.858956 6.31983 12.753662 C 6.31983 12.753662 6.340889 12.73892 6.383007 12.707332 C 6.42723 12.673638 6.469348 12.656791 6.511466 12.656791 C 6.608337 12.656791 6.68836 12.694697 6.753643 12.770509 C 6.80629 12.82105 6.869467 12.926344 6.941067 13.08218 C 7.016879 13.23591 7.090585 13.38964 7.160079 13.547581 C 7.229573 13.701311 7.275903 13.802394 7.296962 13.855041 C 7.318021 13.909794 7.336974 13.960335 7.351715 14.008771 C 7.366456 14.0551 7.37488 14.105641 7.37488 14.160395 C 7.37488 14.246736 7.343291 14.330971 7.282221 14.413101 C 7.120067 14.627902 6.886314 14.861655 6.583066 15.112256 C 6.279818 15.362856 5.936558 15.579763 5.551181 15.760869 C 5.167909 15.941975 4.784638 16.030423 4.399261 16.030423 C 4.058107 16.030423 3.666412 15.948293 3.222069 15.78614 C 2.779833 15.617669 2.360761 15.39655 1.964855 15.120679 C 1.571054 14.842702 1.267806 14.547878 1.055111 14.238312 C 0.855052 13.920323 0.695004 13.560217 0.574969 13.160098 C 0.457039 12.759979 0.398074 12.33459 0.398074 11.886036 C 0.398074 11.300599 0.467569 10.698315 0.604451 10.08129 C 0.745546 9.46216 0.943499 8.866193 1.198312 8.297604 C 1.457336 7.726908 1.764795 7.213072 2.12069 6.753988 C 2.478691 6.292799 2.874598 5.930586 3.312623 5.663138 C 3.750647 5.397797 4.218154 5.265126 4.719355 5.265126 C 4.868873 5.265126 5.08578 5.303032 5.367969 5.378844 C 5.650158 5.45255 5.955511 5.555738 6.281924 5.688409 C 6.606231 5.82108 6.920008 5.983233 7.223256 6.174869 C 7.526503 6.368611 7.774998 6.587623 7.96874 6.831906 C 8.162481 7.076189 8.257246 7.339425 8.257246 7.617402 C 8.257246 7.914332 8.202493 8.226004 8.090881 8.55031 C 7.977163 8.876723 7.878187 9.146276 7.793951 9.358971 C 7.718139 9.542183 7.579151 9.632736 7.37488 9.632736 C 7.301174 9.643266 7.162185 9.651689 6.953702 9.655901 C 6.745219 9.662219 6.536736 9.666431 6.328253 9.672748 C 6.119771 9.67696 5.972358 9.679066 5.886017 9.679066 Z M 13.311376 7.328895 C 12.970223 7.328895 12.64381 7.461566 12.334245 7.73112 C 12.026785 7.996462 11.75302 8.352357 11.510843 8.800911 C 11.270771 9.249465 11.081242 9.740137 10.944359 10.272926 C 10.80537 10.805716 10.735876 11.342717 10.735876 11.886036 C 10.735876 12.45252 10.803264 12.888438 10.935935 13.20011 C 11.068606 13.509675 11.232865 13.72237 11.430819 13.8403 C 11.628772 13.956123 11.82462 14.015088 12.018361 14.015088 C 12.370045 14.015088 12.694351 13.878206 12.991282 13.602334 C 13.290318 13.322251 13.553553 12.951615 13.783095 12.48832 C 14.012637 12.025025 14.187426 11.513294 14.311673 10.953128 C 14.433814 10.392962 14.494885 9.824372 14.494885 9.245253 C 14.494885 8.588216 14.379061 8.103862 14.14952 7.792191 C 13.922084 7.482625 13.642001 7.328895 13.311376 7.328895 Z M 12.334245 16.030423 C 11.929914 16.030423 11.510843 15.946187 11.072818 15.777716 C 10.634793 15.605033 10.230463 15.383915 9.861933 15.112256 C 9.493402 14.840596 9.215425 14.564725 9.025895 14.288854 C 8.766871 13.924535 8.589977 13.509675 8.495212 13.04638 C 8.400447 12.583085 8.354117 12.138743 8.354117 11.711247 C 8.354117 11.317446 8.406764 10.843622 8.514165 10.289773 C 8.621565 9.733819 8.78793 9.167335 9.017472 8.58611 C 9.247014 8.002779 9.537626 7.461566 9.889309 6.960365 C 10.240992 6.459164 10.657958 6.052728 11.142312 5.745268 C 11.628772 5.435703 12.186832 5.281973 12.814387 5.281973 C 13.008129 5.281973 13.262941 5.330408 13.583036 5.425173 C 13.905237 5.519938 14.242179 5.652609 14.60018 5.823186 C 14.956075 5.993763 15.284593 6.187504 15.583629 6.406517 C 15.882665 6.625529 16.112207 6.857177 16.272254 7.105671 C 16.506008 7.478413 16.668161 7.878532 16.76082 8.303921 C 16.851373 8.731417 16.895597 9.163123 16.895597 9.601148 C 16.895597 10.049702 16.840844 10.555115 16.729232 11.121599 C 16.61762 11.685977 16.447043 12.256672 16.217501 12.83158 C 15.987959 13.408593 15.691029 13.939276 15.326711 14.425736 C 14.964498 14.91009 14.534897 15.29968 14.037908 15.594504 C 13.543024 15.885116 12.974434 16.030423 12.334245 16.030423 Z M 23.933473 5.519938 C 23.977697 5.38095 24.091414 5.311455 24.270415 5.311455 C 24.346227 5.311455 24.495745 5.338832 24.718969 5.393585 C 24.944299 5.446232 25.171735 5.505197 25.407594 5.570479 C 25.641348 5.633656 25.811925 5.684197 25.919325 5.726315 C 26.045678 5.770539 26.110961 5.871621 26.110961 6.031669 C 26.110961 6.052728 26.106749 6.075892 26.102537 6.105375 C 26.096219 6.130645 26.094113 6.145387 26.094113 6.145387 C 25.96776 6.505493 25.81403 7.031965 25.637136 7.722696 C 25.462347 8.409216 25.279135 9.194712 25.087499 10.074973 C 24.895864 10.951022 24.718969 11.879718 24.550498 12.854744 C 24.388345 13.831876 24.251462 14.794267 24.146168 15.741916 C 24.135638 15.828257 24.097732 15.89354 24.03245 15.937764 C 23.967167 15.979881 23.893461 16.00094 23.809226 16.00094 C 23.691296 16.00094 23.529143 15.984093 23.32066 15.952505 C 23.112177 15.918811 22.891059 15.878799 22.657305 15.832469 C 22.423552 15.78614 22.210857 15.735598 22.023433 15.682951 C 21.836009 15.628198 21.701232 15.583974 21.616997 15.55028 C 21.522232 15.508163 21.444314 15.451304 21.383243 15.379703 C 21.326384 15.303891 21.286372 15.228079 21.263208 15.152268 C 21.155807 14.76689 21.050513 14.31623 20.94943 13.800288 C 20.850454 13.282239 20.757795 12.743132 20.673559 12.182966 C 20.587218 11.6228 20.511406 11.10054 20.446123 10.616186 C 20.382947 10.129726 20.336617 9.727501 20.305029 9.405301 C 20.281864 9.323171 20.254487 9.281053 20.222899 9.281053 C 20.20184 9.281053 20.180781 9.323171 20.161828 9.405301 C 19.968087 10.315044 19.780663 11.321658 19.597451 12.425143 C 19.41845 13.526522 19.26472 14.632113 19.138367 15.741916 C 19.127838 15.817728 19.094143 15.880905 19.03939 15.92934 C 18.986743 15.97567 18.929884 16.00094 18.864602 16.00094 C 18.757201 16.00094 18.59926 15.97567 18.390777 15.92934 C 18.182294 15.880905 17.978023 15.824046 17.773752 15.760869 C 17.573693 15.695586 17.419963 15.642939 17.312563 15.600822 C 17.131456 15.506057 17.038797 15.364962 17.038797 15.183856 C 17.049327 14.714243 17.10408 14.135124 17.200951 13.442287 C 17.295716 12.745238 17.415751 12.003966 17.558951 11.214258 C 17.702152 10.426656 17.853776 9.655901 18.011717 8.906205 C 18.173871 8.154403 18.333918 7.482625 18.493966 6.890871 C 18.654013 6.297011 18.799319 5.850562 18.925672 5.551526 C 18.990955 5.402008 19.115202 5.328302 19.298415 5.328302 C 19.403709 5.328302 19.570074 5.347255 19.793298 5.387267 C 20.018628 5.423067 20.254487 5.465185 20.505088 5.515726 C 20.755689 5.562056 20.978913 5.608385 21.176866 5.656821 C 21.37482 5.70315 21.505385 5.73895 21.566455 5.762115 C 21.652797 5.793703 21.724397 5.848457 21.781256 5.930586 C 21.842327 6.008504 21.876021 6.090634 21.88655 6.174869 C 21.930774 6.48654 21.979209 6.869812 22.031857 7.328895 C 22.084504 7.785873 22.139257 8.266015 22.200328 8.769323 C 22.259292 9.270524 22.314045 9.750666 22.360375 10.213961 C 22.406704 10.679362 22.453034 11.06474 22.497258 11.374305 C 22.518317 11.450117 22.539375 11.488023 22.558328 11.488023 C 22.589917 11.488023 22.613081 11.450117 22.625717 11.374305 C 22.754176 10.597233 22.893165 9.815949 23.046894 9.030453 C 23.200624 8.247062 23.354354 7.54159 23.508084 6.914036 C 23.663919 6.284375 23.80712 5.818974 23.933473 5.519938 Z M 29.712028 16.04727 C 29.402463 16.04727 29.033932 15.96514 28.606437 15.800881 C 28.181048 15.634516 27.772506 15.415503 27.376599 15.143844 C 26.982798 14.870079 26.666915 14.568937 26.431055 14.238312 C 26.22889 13.941382 26.066737 13.593911 25.94249 13.195898 C 25.820348 12.793674 25.759277 12.395661 25.759277 11.999754 C 25.759277 11.393258 25.826666 10.772022 25.965654 10.136044 C 26.106749 9.502171 26.306808 8.895676 26.567938 8.320768 C 26.829068 7.743755 27.14074 7.227813 27.496635 6.768729 C 27.85253 6.309646 28.250542 5.945327 28.688567 5.679986 C 29.126591 5.414644 29.594099 5.281973 30.0953 5.281973 C 30.286935 5.281973 30.537536 5.319879 30.849207 5.393585 C 31.158773 5.467291 31.487291 5.574691 31.832657 5.715786 C 32.178022 5.852668 32.502329 6.021139 32.805577 6.219093 C 33.110931 6.41494 33.361531 6.638164 33.559485 6.890871 C 33.757438 7.141471 33.856415 7.413131 33.856415 7.710061 C 33.856415 7.935391 33.829038 8.167039 33.774285 8.409216 C 33.721638 8.649287 33.668991 8.849346 33.61845 9.007288 C 33.563696 9.179971 33.42892 9.276841 33.216225 9.2979 C 33.140413 9.2979 33.00353 9.302112 32.805577 9.312641 C 32.609729 9.323171 32.413882 9.331594 32.215928 9.335806 C 32.017975 9.342124 31.883198 9.34423 31.809492 9.34423 C 31.636809 9.34423 31.550468 9.23683 31.550468 9.024135 C 31.550468 8.960958 31.565209 8.853558 31.59048 8.699828 C 31.619962 8.543993 31.632598 8.369204 31.632598 8.175462 C 31.632598 7.952238 31.586268 7.741649 31.489397 7.543696 C 31.392526 7.345743 31.173514 7.246766 30.83236 7.246766 C 30.491207 7.246766 30.160582 7.377331 29.840487 7.640567 C 29.520392 7.901697 29.231886 8.255486 28.972862 8.70404 C 28.718049 9.150488 28.515884 9.651689 28.368472 10.207644 C 28.218954 10.761492 28.145248 11.338505 28.145248 11.936577 C 28.145248 12.692591 28.277919 13.223275 28.543261 13.526522 C 28.812814 13.831876 29.105533 13.9835 29.423522 13.9835 C 29.68044 13.9835 29.949993 13.892947 30.232182 13.707629 C 30.514371 13.520205 30.754443 13.303298 30.95029 13.059015 C 31.148243 12.810521 31.24722 12.59572 31.24722 12.414614 C 31.24722 12.330378 31.181938 12.288261 31.055584 12.288261 C 30.83236 12.29879 30.640725 12.305108 30.484889 12.305108 C 30.331159 12.305108 30.190065 12.305108 30.063711 12.305108 C 29.990005 12.305108 29.916299 12.281943 29.840487 12.233507 C 29.764675 12.185072 29.71624 12.117684 29.695181 12.031342 C 29.665699 11.852342 29.638322 11.643859 29.613051 11.410105 C 29.594099 11.17214 29.583569 10.980504 29.583569 10.830986 C 29.583569 10.64988 29.688863 10.54248 29.903664 10.510891 C 30.126888 10.481409 30.430136 10.456138 30.813407 10.441397 C 31.198785 10.422444 31.571527 10.414021 31.93374 10.414021 C 32.085363 10.414021 32.224352 10.414021 32.352811 10.414021 C 32.479164 10.414021 32.597094 10.420338 32.704494 10.432974 C 32.917189 10.443503 33.062495 10.544586 33.138307 10.734116 C 33.199378 10.87521 33.262555 11.075269 33.325731 11.336399 C 33.391014 11.595424 33.445767 11.850236 33.492096 12.096625 C 33.542638 12.343014 33.567908 12.51359 33.567908 12.608355 C 33.567908 12.726285 33.546849 12.837897 33.504732 12.945297 C 33.407861 13.20011 33.258343 13.503358 33.056178 13.855041 C 32.851906 14.206724 32.594988 14.547878 32.285423 14.878502 C 31.977963 15.209126 31.611539 15.487104 31.184044 15.710328 C 30.756548 15.935658 30.265877 16.04727 29.712028 16.04727 Z M 39.6813 11.936577 C 39.56337 11.989225 39.504405 12.052401 39.504405 12.128213 C 39.504405 12.170331 39.512829 12.206131 39.529676 12.233507 C 39.544417 12.260884 39.55284 12.273519 39.55284 12.273519 C 39.828712 12.698909 40.115112 13.115874 40.416254 13.526522 C 40.71529 13.939276 40.997479 14.261477 41.262821 14.495231 C 41.328104 14.560513 41.359692 14.636325 41.359692 14.718455 C 41.359692 14.773208 41.334421 14.836384 41.279668 14.91009 C 41.109091 15.082773 40.877444 15.272303 40.582619 15.480786 C 40.292007 15.689269 40.026665 15.84721 39.790806 15.952505 C 39.790806 15.952505 39.77817 15.958822 39.750794 15.969352 C 39.725523 15.979881 39.685511 15.984093 39.630758 15.984093 C 39.557052 15.984093 39.49177 15.971458 39.430699 15.946187 C 39.37384 15.916705 39.323299 15.887222 39.279075 15.855634 C 38.992674 15.600822 38.723121 15.276515 38.470414 14.882714 C 38.219814 14.486807 38.007119 14.078265 37.830224 13.657087 C 37.655436 13.233804 37.518553 12.869485 37.423788 12.557814 C 37.3922 12.475685 37.3564 12.410402 37.318494 12.364072 C 37.280588 12.313531 37.232152 12.288261 37.168976 12.288261 L 36.97734 12.288261 C 36.836246 12.288261 36.756222 12.368284 36.735163 12.528332 C 36.543527 13.625499 36.387692 14.697396 36.271868 15.741916 C 36.240279 15.914599 36.145514 16.00094 35.985467 16.00094 C 35.878067 16.00094 35.701172 15.969352 35.454783 15.906175 C 35.2105 15.840893 34.978853 15.77561 34.759841 15.706116 C 34.540828 15.636622 34.410263 15.59661 34.368145 15.58608 C 34.252322 15.531327 34.17651 15.470257 34.142815 15.402868 C 34.111227 15.331268 34.090168 15.259668 34.079639 15.183856 C 34.090168 14.724772 34.138604 14.1625 34.224945 13.49704 C 34.309181 12.829474 34.422899 12.115578 34.559781 11.351141 C 34.69877 10.588809 34.846182 9.839113 35.006229 9.106265 C 35.166277 8.369204 35.322112 7.707955 35.473736 7.120413 C 35.494795 7.05513 35.505325 7.004589 35.505325 6.968789 C 35.505325 6.928777 35.505325 6.895083 35.505325 6.863494 C 35.505325 6.724506 35.490583 6.585517 35.463207 6.442317 C 35.43583 6.294905 35.423195 6.191716 35.423195 6.12854 C 35.423195 6.052728 35.44636 5.987445 35.492689 5.930586 C 35.543231 5.869515 35.595878 5.829504 35.650631 5.808445 C 35.958091 5.679986 36.37295 5.553632 36.89521 5.425173 C 37.419576 5.294608 38.011331 5.231432 38.672579 5.231432 C 39.18431 5.231432 39.664452 5.349361 40.119324 5.585221 C 40.57209 5.82108 40.965891 6.120116 41.302833 6.488646 C 41.639775 6.855071 41.905117 7.24466 42.094647 7.655308 C 42.288388 8.068062 42.383153 8.445016 42.383153 8.78617 C 42.383153 9.264206 42.265224 9.710654 42.025152 10.121302 C 41.785081 10.529844 41.46288 10.889951 41.056444 11.199517 C 40.650008 11.509082 40.190924 11.755471 39.6813 11.936577 Z M 38.160849 7.229919 C 37.969213 7.240448 37.844966 7.337319 37.790213 7.520531 C 37.779683 7.564755 37.750201 7.682685 37.699659 7.87432 C 37.65333 8.065956 37.598577 8.291286 37.533294 8.554522 C 37.470118 8.815652 37.409047 9.07257 37.347976 9.327383 C 37.291117 9.584301 37.244788 9.801207 37.208988 9.98442 C 37.171082 10.167632 37.154235 10.272926 37.154235 10.304515 C 37.154235 10.411915 37.213199 10.464562 37.329023 10.464562 C 37.830224 10.464562 38.278779 10.357162 38.676791 10.144467 C 39.079016 9.931772 39.399111 9.666431 39.637076 9.350547 C 39.879253 9.03677 40.001394 8.718781 40.001394 8.398686 C 40.001394 7.983826 39.856088 7.682685 39.567582 7.495261 C 39.279075 7.307837 38.937921 7.215178 38.54412 7.215178 C 38.478838 7.215178 38.413555 7.215178 38.348273 7.215178 C 38.287202 7.215178 38.224025 7.219389 38.160849 7.229919 Z M 42.62533 13.406487 C 42.646389 13.35384 42.656919 13.290663 42.656919 13.214851 C 42.656919 13.151674 42.633754 13.04638 42.58953 12.898968 C 42.549518 12.747344 42.503189 12.59572 42.452648 12.44199 C 42.406318 12.286155 42.383153 12.159801 42.383153 12.062931 C 42.383153 11.892354 42.469495 11.793377 42.640072 11.761789 C 42.726413 11.738624 42.810648 11.719671 42.894884 11.702824 C 42.981225 11.688083 43.023343 11.679659 43.023343 11.679659 C 43.141273 11.6586 43.223402 11.624906 43.269732 11.578576 C 43.320273 11.528035 43.364497 11.456435 43.406615 11.359564 C 43.619309 10.942598 43.857274 10.451927 44.118405 9.887549 C 44.379535 9.321065 44.649088 8.75037 44.927065 8.175462 C 45.205042 7.600555 45.466173 7.082507 45.710455 6.625529 C 45.956844 6.166446 46.169539 5.831609 46.352751 5.616809 C 46.436987 5.519938 46.544387 5.473609 46.672846 5.473609 C 46.757082 5.473609 46.86027 5.492562 46.976094 5.530468 C 47.094024 5.568374 47.174047 5.585221 47.216165 5.585221 C 47.376213 5.585221 47.466766 5.515726 47.487825 5.374632 C 47.508883 5.237749 47.578378 5.168255 47.696307 5.168255 C 47.772119 5.168255 47.923743 5.204055 48.153285 5.273549 C 48.382827 5.340938 48.610263 5.418856 48.839804 5.503091 C 49.069346 5.589432 49.227288 5.652609 49.313629 5.694727 C 49.492629 5.781068 49.60003 5.926374 49.633724 6.12854 C 49.673736 6.35387 49.711642 6.678176 49.74323 7.105671 C 49.776924 7.528955 49.804301 8.019627 49.82536 8.573475 C 49.844313 9.129429 49.86116 9.71276 49.871689 10.327679 C 49.882219 10.940493 49.88643 11.544882 49.88643 12.14506 C 49.88643 12.90318 49.875901 13.60444 49.854842 14.250948 C 49.835889 14.893243 49.804301 15.39655 49.762183 15.760869 C 49.739018 15.920916 49.631618 16.00094 49.442088 16.00094 C 49.355747 16.00094 49.191488 15.984093 48.94931 15.952505 C 48.709239 15.918811 48.47338 15.880905 48.23752 15.840893 C 48.003767 15.798775 47.839508 15.760869 47.742637 15.727175 C 47.574166 15.674528 47.487825 15.535539 47.487825 15.312315 C 47.487825 15.183856 47.494142 14.996432 47.504672 14.745831 C 47.515201 14.493125 47.521519 14.246736 47.527836 14.008771 C 47.532048 13.768699 47.53626 13.60444 47.53626 13.520205 C 47.53626 13.360157 47.449919 13.282239 47.281448 13.282239 C 47.047694 13.282239 46.780246 13.286451 46.48121 13.296981 C 46.182174 13.30751 45.912621 13.31804 45.67255 13.328569 C 45.432478 13.339098 45.280854 13.349628 45.215572 13.360157 C 45.055524 13.370687 44.933383 13.465452 44.847042 13.648664 C 44.699629 13.979288 44.554323 14.341501 44.415335 14.737408 C 44.276346 15.131209 44.147887 15.466045 44.032063 15.741916 C 43.968887 15.872481 43.872016 15.937764 43.741451 15.937764 C 43.659321 15.937764 43.516121 15.897752 43.31185 15.815622 C 43.109684 15.735598 42.909625 15.645045 42.711672 15.543963 C 42.513718 15.440774 42.372624 15.364962 42.288388 15.312315 C 42.162035 15.215444 42.098858 15.11015 42.098858 14.99222 C 42.098858 14.950102 42.100964 14.918514 42.105176 14.897455 C 42.111494 14.87429 42.1136 14.863761 42.1136 14.863761 Z M 45.824173 11.13634 C 45.824173 11.13634 45.819962 11.14687 45.809432 11.167928 C 45.798903 11.188987 45.792585 11.210046 45.792585 11.231105 C 45.792585 11.317446 45.868397 11.359564 46.015809 11.359564 C 46.22008 11.359564 46.453834 11.357458 46.719176 11.351141 C 46.986623 11.346929 47.174047 11.342717 47.281448 11.342717 C 47.449919 11.342717 47.551001 11.241634 47.582589 11.039469 C 47.595225 10.858363 47.601542 10.679362 47.601542 10.49615 C 47.601542 10.312938 47.601542 10.131832 47.601542 9.952831 C 47.601542 9.514807 47.595225 9.097841 47.582589 8.699828 C 47.57206 8.297604 47.561531 7.969085 47.551001 7.710061 C 47.551001 7.615296 47.529942 7.566861 47.487825 7.566861 C 47.458342 7.566861 47.424648 7.598449 47.390954 7.663732 C 47.188789 8.091227 46.952929 8.609275 46.687587 9.217877 C 46.422245 9.826478 46.133739 10.464562 45.824173 11.13634 Z M 58.448969 5.328302 C 58.533204 5.338832 58.604805 5.376738 58.663769 5.44202 C 58.722734 5.503091 58.758534 5.578903 58.769064 5.663138 C 58.779593 5.760009 58.785911 5.886363 58.792229 6.042198 C 58.79644 6.195928 58.798546 6.35387 58.798546 6.511811 C 58.798546 6.673964 58.798546 6.819271 58.798546 6.954048 C 58.798546 7.086718 58.794334 7.200436 58.783805 7.297307 C 58.773276 7.510002 58.644816 7.627932 58.400534 7.64899 C 58.303663 7.65952 58.088862 7.672155 57.75192 7.686896 C 57.417084 7.703743 57.078036 7.720591 56.736882 7.741649 C 56.629482 7.754285 56.549458 7.790085 56.494705 7.842732 C 56.442058 7.895379 56.406258 7.952238 56.385199 8.015415 C 56.223046 8.676663 56.054575 9.432677 55.87768 10.28135 C 55.702892 11.127917 55.538632 12.016601 55.380691 12.945297 C 55.226961 13.871888 55.098502 14.804796 54.991102 15.741916 C 54.980572 15.904069 54.890019 15.984093 54.721548 15.984093 C 54.656266 15.984093 54.508853 15.960928 54.279312 15.914599 C 54.04977 15.864057 53.816016 15.809304 53.575945 15.746128 C 53.33798 15.680845 53.15898 15.628198 53.04105 15.58608 C 52.965238 15.552386 52.904167 15.495527 52.853626 15.417609 C 52.807296 15.337586 52.784132 15.259668 52.784132 15.183856 C 52.80519 14.703713 52.849414 14.168818 52.916802 13.57917 C 52.986297 12.985309 53.078956 12.37039 53.190568 11.738624 C 53.304286 11.102646 53.426427 10.479303 53.552781 9.86649 C 53.68124 9.251571 53.807593 8.689299 53.936052 8.175462 C 53.936052 8.175462 53.938158 8.162827 53.944476 8.137556 C 53.948687 8.11018 53.950793 8.080697 53.950793 8.047003 C 53.950793 7.918544 53.877087 7.855367 53.729675 7.855367 C 53.729675 7.855367 53.655969 7.857473 53.510663 7.863791 C 53.367462 7.868003 53.205309 7.876426 53.022097 7.886956 C 52.843096 7.897485 52.683049 7.905909 52.541955 7.914332 C 52.402966 7.918544 52.32926 7.922756 52.31873 7.922756 C 52.116565 7.922756 52.004953 7.825885 51.983894 7.632143 C 51.941777 7.408919 51.9144 7.12673 51.905976 6.785577 C 51.895447 6.444423 51.889129 6.172763 51.889129 5.968492 C 51.889129 5.882151 51.9144 5.804233 51.967047 5.730527 C 52.0218 5.654715 52.10393 5.612597 52.209224 5.602068 C 52.506154 5.547315 52.925226 5.496773 53.464333 5.448338 C 54.00344 5.399903 54.597301 5.359891 55.24802 5.328302 C 55.898739 5.296714 56.524188 5.281973 57.120154 5.281973 C 57.684532 5.281973 58.126768 5.296714 58.448969 5.328302 Z M 66.095446 5.823186 C 66.192317 5.865304 66.261812 5.924269 66.303929 6.00008 C 66.348153 6.075892 66.375529 6.155916 66.383953 6.238046 L 66.383953 6.64027 C 66.383953 7.099354 66.354471 7.646884 66.295506 8.280757 C 66.238647 8.914629 66.143882 9.584301 66.013317 10.289773 C 65.886964 10.99314 65.716387 11.681765 65.501586 12.359861 C 65.290997 13.035851 65.027761 13.652876 64.713984 14.206724 C 64.398101 14.762678 64.023253 15.204915 63.591546 15.535539 C 63.159839 15.866163 62.660744 16.030423 62.096366 16.030423 C 61.658341 16.030423 61.22874 15.948293 60.807563 15.78614 C 60.388491 15.617669 60.017855 15.413398 59.69776 15.167009 C 59.377665 14.922726 59.135488 14.693184 58.975441 14.480489 C 58.804864 14.236206 58.678511 13.924535 58.592169 13.547581 C 58.505828 13.166416 58.46371 12.789462 58.46371 12.414614 C 58.46371 11.755471 58.516357 11.079481 58.623758 10.386644 C 58.729052 9.691701 58.865935 9.028347 59.030194 8.394475 C 59.196559 7.758497 59.36503 7.196225 59.533501 6.707659 C 59.706184 6.214881 59.855702 5.850562 59.982055 5.616809 C 60.036808 5.530468 60.093667 5.467291 60.150526 5.425173 C 60.209491 5.38095 60.293726 5.359891 60.401127 5.359891 C 60.506421 5.359891 60.655939 5.385161 60.845469 5.433597 C 61.039211 5.479926 61.23927 5.536785 61.447753 5.602068 C 61.656236 5.663138 61.824707 5.722103 61.95106 5.776856 C 62.016342 5.797915 62.064778 5.842139 62.096366 5.905316 C 62.127954 5.968492 62.142696 6.031669 62.142696 6.096951 C 62.142696 6.139069 62.138484 6.179081 62.127954 6.219093 C 62.117425 6.254893 62.111107 6.273846 62.111107 6.273846 C 61.953166 6.697129 61.793118 7.192013 61.630965 7.754285 C 61.473023 8.314451 61.325611 8.887252 61.188729 9.472689 C 61.056058 10.058126 60.950763 10.618292 60.868634 11.153187 C 60.790716 11.685977 60.75281 12.138743 60.75281 12.511485 C 60.75281 12.92845 60.805457 13.267498 60.912857 13.530734 C 61.018152 13.791864 61.232952 13.922429 61.553047 13.922429 C 61.862613 13.922429 62.127954 13.785547 62.344861 13.515993 C 62.563873 13.242228 62.757615 12.875803 62.928192 12.418826 C 63.098769 11.957636 63.254604 11.450117 63.393593 10.894163 C 63.509417 10.416127 63.616817 9.917031 63.713688 9.403195 C 63.808453 8.885146 63.894794 8.381839 63.966394 7.897485 C 64.042206 7.411025 64.101171 6.973 64.143289 6.585517 C 64.187512 6.195928 64.219101 5.898998 64.24016 5.694727 C 64.261218 5.526256 64.351772 5.44202 64.513925 5.44202 C 64.59816 5.44202 64.741361 5.463079 64.943526 5.503091 C 65.145691 5.545209 65.358386 5.59575 65.577398 5.656821 C 65.794305 5.71368 65.969093 5.770539 66.095446 5.823186 Z M 71.486518 13.534946 C 71.57286 13.534946 71.654989 13.560217 71.732907 13.608652 C 71.815037 13.657087 71.871896 13.728688 71.90559 13.823453 C 71.937178 13.930853 71.981402 14.099324 72.038261 14.328866 C 72.097226 14.556301 72.151979 14.775314 72.198308 14.983797 C 72.24885 15.192279 72.272014 15.322844 72.272014 15.375492 C 72.272014 15.52501 72.185673 15.611351 72.015096 15.63241 C 71.846625 15.642939 71.602342 15.663998 71.288565 15.695586 C 70.972682 15.727175 70.631528 15.758763 70.265104 15.792457 C 69.898679 15.824046 69.542784 15.85774 69.197419 15.891434 C 68.856265 15.920916 68.569864 15.948293 68.336111 15.969352 C 68.100251 15.990411 67.957051 16.00094 67.90651 16.00094 C 67.830698 16.00094 67.754886 15.990411 67.679074 15.969352 C 67.605368 15.948293 67.537979 15.910387 67.472697 15.855634 C 67.312649 15.687163 67.133649 15.457621 66.935696 15.167009 C 66.739848 14.878502 66.586118 14.638431 66.478718 14.448901 C 66.449236 14.383619 66.428177 14.314124 66.417647 14.242524 C 66.407118 14.166712 66.4008 14.10143 66.4008 14.046677 C 66.4008 14.004559 66.405012 13.956123 66.409224 13.899264 C 66.415541 13.838194 66.417647 13.808711 66.417647 13.808711 C 66.459765 13.315934 66.527153 12.770509 66.624024 12.168225 C 66.720895 11.565941 66.830401 10.944704 66.952543 10.304515 C 67.074684 9.664325 67.203143 9.040982 67.335814 8.434486 C 67.468485 7.823779 67.603262 7.269931 67.74225 6.768729 C 67.881239 6.267528 68.016016 5.850562 68.144475 5.519938 C 68.199228 5.38095 68.31084 5.311455 68.479311 5.311455 C 68.576182 5.311455 68.734123 5.336726 68.953136 5.387267 C 69.172148 5.433597 69.399584 5.490456 69.639655 5.555738 C 69.879726 5.616809 70.069256 5.673668 70.206139 5.726315 C 70.347233 5.781068 70.416728 5.888468 70.416728 6.04641 C 70.416728 6.067469 70.414622 6.09274 70.41041 6.120116 C 70.404092 6.147493 70.401986 6.160128 70.401986 6.160128 C 70.176656 6.949836 69.966068 7.754285 69.768114 8.577687 C 69.570161 9.398983 69.395372 10.16342 69.245854 10.87521 C 69.096336 11.582788 68.980512 12.176648 68.894171 12.656791 C 68.809935 13.134827 68.767818 13.427546 68.767818 13.534946 C 68.767818 13.663405 68.837312 13.726582 68.976301 13.726582 C 69.007889 13.726582 69.123713 13.716052 69.327984 13.694993 C 69.530149 13.673934 69.772326 13.652876 70.054515 13.631817 C 70.33881 13.612864 70.612575 13.591805 70.877917 13.570746 C 71.145365 13.547581 71.349636 13.534946 71.486518 13.534946 Z M 73.18597 13.406487 C 73.207028 13.35384 73.217558 13.290663 73.217558 13.214851 C 73.217558 13.151674 73.194393 13.04638 73.15017 12.898968 C 73.108052 12.747344 73.063828 12.59572 73.013287 12.44199 C 72.966957 12.286155 72.943793 12.159801 72.943793 12.062931 C 72.943793 11.892354 73.030134 11.793377 73.200711 11.761789 C 73.287052 11.738624 73.371288 11.719671 73.455523 11.702824 C 73.541865 11.688083 73.583982 11.679659 73.583982 11.679659 C 73.701912 11.6586 73.784042 11.624906 73.830371 11.578576 C 73.878807 11.528035 73.925136 11.456435 73.967254 11.359564 C 74.179949 10.942598 74.417914 10.451927 74.676938 9.887549 C 74.940174 9.321065 75.209727 8.75037 75.485599 8.175462 C 75.765682 7.600555 76.026812 7.082507 76.271095 6.625529 C 76.515378 6.166446 76.730178 5.831609 76.911285 5.616809 C 76.997626 5.519938 77.105026 5.473609 77.231379 5.473609 C 77.317721 5.473609 77.418803 5.492562 77.536733 5.530468 C 77.654663 5.568374 77.732581 5.585221 77.774698 5.585221 C 77.936852 5.585221 78.027405 5.515726 78.048464 5.374632 C 78.069523 5.237749 78.139017 5.168255 78.254841 5.168255 C 78.330653 5.168255 78.484383 5.204055 78.711818 5.273549 C 78.94136 5.340938 79.170902 5.418856 79.400444 5.503091 C 79.629985 5.589432 79.787927 5.652609 79.872162 5.694727 C 80.053269 5.781068 80.158563 5.926374 80.192257 6.12854 C 80.234375 6.35387 80.272281 6.678176 80.301763 7.105671 C 80.335458 7.528955 80.362834 8.019627 80.383893 8.573475 C 80.404952 9.129429 80.421799 9.71276 80.432328 10.327679 C 80.442858 10.940493 80.44707 11.544882 80.44707 12.14506 C 80.44707 12.90318 80.43654 13.60444 80.415481 14.250948 C 80.394423 14.893243 80.362834 15.39655 80.322822 15.760869 C 80.299658 15.920916 80.192257 16.00094 80.002727 16.00094 C 79.916386 16.00094 79.752127 15.984093 79.50995 15.952505 C 79.269879 15.918811 79.034019 15.880905 78.79816 15.840893 C 78.564406 15.798775 78.398041 15.760869 78.303276 15.727175 C 78.132699 15.674528 78.048464 15.535539 78.048464 15.312315 C 78.048464 15.183856 78.054782 14.996432 78.065311 14.745831 C 78.073734 14.493125 78.082158 14.246736 78.088476 14.008771 C 78.092687 13.768699 78.094793 13.60444 78.094793 13.520205 C 78.094793 13.360157 78.010558 13.282239 77.842087 13.282239 C 77.606227 13.282239 77.340886 13.286451 77.04185 13.296981 C 76.740708 13.30751 76.471154 13.31804 76.233189 13.328569 C 75.993118 13.339098 75.839388 13.349628 75.776211 13.360157 C 75.616164 13.370687 75.494022 13.465452 75.407681 13.648664 C 75.260269 13.979288 75.114963 14.341501 74.973868 14.737408 C 74.836985 15.131209 74.708526 15.466045 74.590597 15.741916 C 74.529526 15.872481 74.432655 15.937764 74.30209 15.937764 C 74.21996 15.937764 74.07676 15.897752 73.872489 15.815622 C 73.670324 15.735598 73.470264 15.645045 73.272311 15.543963 C 73.074358 15.440774 72.933263 15.364962 72.849028 15.312315 C 72.722674 15.215444 72.657392 15.11015 72.657392 14.99222 C 72.657392 14.950102 72.661604 14.918514 72.665815 14.897455 C 72.670027 14.87429 72.674239 14.863761 72.674239 14.863761 Z M 76.384813 11.13634 C 76.384813 11.13634 76.378495 11.14687 76.367966 11.167928 C 76.359542 11.188987 76.353224 11.210046 76.353224 11.231105 C 76.353224 11.317446 76.42693 11.359564 76.576448 11.359564 C 76.778614 11.359564 77.014473 11.357458 77.279815 11.351141 C 77.547263 11.346929 77.734687 11.342717 77.842087 11.342717 C 78.010558 11.342717 78.11164 11.241634 78.143229 11.039469 C 78.155864 10.858363 78.162182 10.679362 78.162182 10.49615 C 78.162182 10.312938 78.162182 10.131832 78.162182 9.952831 C 78.162182 9.514807 78.155864 9.097841 78.143229 8.699828 C 78.132699 8.297604 78.12217 7.969085 78.11164 7.710061 C 78.11164 7.615296 78.090582 7.566861 78.048464 7.566861 C 78.016876 7.566861 77.985287 7.598449 77.951593 7.663732 C 77.747322 8.091227 77.513568 8.609275 77.248227 9.217877 C 76.982885 9.826478 76.694378 10.464562 76.384813 11.13634 Z M 89.007502 5.328302 C 89.093844 5.338832 89.165444 5.376738 89.222303 5.44202 C 89.283374 5.503091 89.317068 5.578903 89.327597 5.663138 C 89.338127 5.760009 89.34655 5.886363 89.350762 6.042198 C 89.35708 6.195928 89.359186 6.35387 89.359186 6.511811 C 89.359186 6.673964 89.359186 6.819271 89.359186 6.954048 C 89.359186 7.086718 89.354974 7.200436 89.344444 7.297307 C 89.333915 7.510002 89.205456 7.627932 88.961173 7.64899 C 88.864302 7.65952 88.649501 7.672155 88.312559 7.686896 C 87.977723 7.703743 87.638675 7.720591 87.297522 7.741649 C 87.190121 7.754285 87.110098 7.790085 87.055345 7.842732 C 87.002697 7.895379 86.966897 7.952238 86.945838 8.015415 C 86.783685 8.676663 86.615214 9.432677 86.43832 10.28135 C 86.263531 11.127917 86.097166 12.016601 85.94133 12.945297 C 85.7876 13.871888 85.657035 14.804796 85.551741 15.741916 C 85.541212 15.904069 85.450658 15.984093 85.282187 15.984093 C 85.216905 15.984093 85.069493 15.960928 84.839951 15.914599 C 84.610409 15.864057 84.376656 15.809304 84.136585 15.746128 C 83.896513 15.680845 83.719619 15.628198 83.601689 15.58608 C 83.525877 15.552386 83.462701 15.495527 83.414265 15.417609 C 83.367936 15.337586 83.344771 15.259668 83.344771 15.183856 C 83.36583 14.703713 83.410053 14.168818 83.477442 13.57917 C 83.546936 12.985309 83.637489 12.37039 83.751207 11.738624 C 83.864925 11.102646 83.984961 10.479303 84.11342 9.86649 C 84.241879 9.251571 84.368232 8.689299 84.496691 8.175462 C 84.496691 8.175462 84.498797 8.162827 84.505115 8.137556 C 84.509327 8.11018 84.511433 8.080697 84.511433 8.047003 C 84.511433 7.918544 84.437726 7.855367 84.288208 7.855367 C 84.288208 7.855367 84.216608 7.857473 84.071302 7.863791 C 83.928102 7.868003 83.763842 7.876426 83.582736 7.886956 C 83.40163 7.897485 83.241582 7.905909 83.102594 7.914332 C 82.963605 7.918544 82.889899 7.922756 82.87937 7.922756 C 82.675099 7.922756 82.563487 7.825885 82.542428 7.632143 C 82.502416 7.408919 82.475039 7.12673 82.46451 6.785577 C 82.45398 6.444423 82.449769 6.172763 82.449769 5.968492 C 82.449769 5.882151 82.475039 5.804233 82.527687 5.730527 C 82.58244 5.654715 82.662463 5.612597 82.769864 5.602068 C 83.066794 5.547315 83.483759 5.496773 84.022867 5.448338 C 84.561974 5.399903 85.15794 5.359891 85.808659 5.328302 C 86.459378 5.296714 87.082721 5.281973 87.680793 5.281973 C 88.245171 5.281973 88.687407 5.296714 89.007502 5.328302 Z M 90.799613 15.760869 C 90.78066 15.920916 90.683789 16.00094 90.511106 16.00094 C 90.414235 16.00094 90.252082 15.973564 90.02254 15.920916 C 89.792998 15.866163 89.569774 15.809304 89.350762 15.746128 C 89.13175 15.680845 88.992761 15.63241 88.929585 15.600822 C 88.746372 15.506057 88.655819 15.364962 88.655819 15.183856 C 88.666349 14.714243 88.714784 14.130912 88.801125 13.433863 C 88.887467 12.732603 88.999079 11.989225 89.135961 11.199517 C 89.27495 10.409809 89.422362 9.64116 89.58241 8.891464 C 89.742457 8.137556 89.902505 7.463672 90.062552 6.867706 C 90.224705 6.267528 90.367906 5.818974 90.496365 5.519938 C 90.572177 5.38095 90.688001 5.311455 90.848048 5.311455 C 90.932284 5.311455 91.086013 5.338832 91.305026 5.393585 C 91.524038 5.446232 91.749368 5.505197 91.983121 5.570479 C 92.218981 5.633656 92.404299 5.690515 92.543287 5.743162 C 92.682276 5.787386 92.753876 5.89268 92.753876 6.063257 C 92.753876 6.086422 92.75177 6.107481 92.745453 6.12854 C 92.741241 6.149598 92.737029 6.160128 92.737029 6.160128 C 92.60857 6.522341 92.450628 7.044601 92.269522 7.73112 C 92.090522 8.413428 91.905204 9.196818 91.71778 10.08129 C 91.534567 10.965763 91.359779 11.89446 91.199731 12.871591 C 91.039684 13.846617 90.907013 14.811114 90.799613 15.760869 Z M 97.39104 7.328895 C 97.049887 7.328895 96.723474 7.461566 96.413909 7.73112 C 96.106449 7.996462 95.832684 8.352357 95.590507 8.800911 C 95.350435 9.249465 95.160906 9.740137 95.024023 10.272926 C 94.885034 10.805716 94.81554 11.342717 94.81554 11.886036 C 94.81554 12.45252 94.882928 12.888438 95.015599 13.20011 C 95.14827 13.509675 95.314635 13.72237 95.512589 13.8403 C 95.710542 13.956123 95.904284 14.015088 96.098026 14.015088 C 96.449709 14.015088 96.774015 13.878206 97.070946 13.602334 C 97.369982 13.322251 97.635323 12.951615 97.862759 12.48832 C 98.092301 12.025025 98.269196 11.513294 98.391337 10.953128 C 98.513478 10.392962 98.574549 9.824372 98.574549 9.245253 C 98.574549 8.588216 98.460831 8.103862 98.23129 7.792191 C 98.001748 7.482625 97.721665 7.328895 97.39104 7.328895 Z M 96.413909 16.030423 C 96.009578 16.030423 95.590507 15.946187 95.152482 15.777716 C 94.714457 15.605033 94.312233 15.383915 93.941597 15.112256 C 93.575172 14.840596 93.295089 14.564725 93.105559 14.288854 C 92.848641 13.924535 92.671747 13.509675 92.574876 13.04638 C 92.480111 12.583085 92.433781 12.138743 92.433781 11.711247 C 92.433781 11.317446 92.486428 10.843622 92.593829 10.289773 C 92.701229 9.733819 92.8697 9.167335 93.097136 8.58611 C 93.326678 8.002779 93.61729 7.461566 93.968973 6.960365 C 94.320656 6.459164 94.737622 6.052728 95.221976 5.745268 C 95.710542 5.435703 96.266497 5.281973 96.894051 5.281973 C 97.087793 5.281973 97.344711 5.330408 97.664806 5.425173 C 97.984901 5.519938 98.323949 5.652609 98.679844 5.823186 C 99.035739 5.993763 99.364257 6.187504 99.663293 6.406517 C 99.964435 6.625529 100.191871 6.857177 100.351918 7.105671 C 100.585672 7.478413 100.747825 7.878532 100.840484 8.303921 C 100.931037 8.731417 100.977367 9.163123 100.977367 9.601148 C 100.977367 10.049702 100.920508 10.555115 100.808896 11.121599 C 100.697284 11.685977 100.526707 12.256672 100.297165 12.83158 C 100.067623 13.408593 99.770693 13.939276 99.406375 14.425736 C 99.044162 14.91009 98.614561 15.29968 98.117572 15.594504 C 97.622688 15.885116 97.054098 16.030423 96.413909 16.030423 Z M 108.015243 5.519938 C 108.059467 5.38095 108.171079 5.311455 108.350079 5.311455 C 108.425891 5.311455 108.575409 5.338832 108.798633 5.393585 C 109.023963 5.446232 109.253505 5.505197 109.487258 5.570479 C 109.721012 5.633656 109.891589 5.684197 109.998989 5.726315 C 110.127448 5.770539 110.190625 5.871621 110.190625 6.031669 C 110.190625 6.052728 110.188519 6.075892 110.182201 6.105375 C 110.177989 6.130645 110.173778 6.145387 110.173778 6.145387 C 110.047424 6.505493 109.893695 7.031965 109.7168 7.722696 C 109.544117 8.409216 109.358799 9.194712 109.167163 10.074973 C 108.977633 10.951022 108.798633 11.879718 108.632268 12.854744 C 108.468009 13.831876 108.333232 14.794267 108.225832 15.741916 C 108.215302 15.828257 108.177396 15.89354 108.112114 15.937764 C 108.046831 15.979881 107.973125 16.00094 107.88889 16.00094 C 107.773066 16.00094 107.608807 15.984093 107.400324 15.952505 C 107.193947 15.918811 106.970723 15.878799 106.736969 15.832469 C 106.503216 15.78614 106.292627 15.735598 106.105203 15.682951 C 105.917779 15.628198 105.780896 15.583974 105.698767 15.55028 C 105.601896 15.508163 105.523978 15.451304 105.462907 15.379703 C 105.406048 15.303891 105.366036 15.228079 105.342872 15.152268 C 105.235471 14.76689 105.132283 14.31623 105.029094 13.800288 C 104.932224 13.282239 104.839565 12.743132 104.753223 12.182966 C 104.666882 11.6228 104.59107 11.10054 104.525787 10.616186 C 104.464717 10.129726 104.416281 9.727501 104.384693 9.405301 C 104.361528 9.323171 104.334152 9.281053 104.302563 9.281053 C 104.28361 9.281053 104.262551 9.323171 104.241492 9.405301 C 104.047751 10.315044 103.860327 11.321658 103.679221 12.425143 C 103.498114 13.526522 103.344384 14.632113 103.218031 15.741916 C 103.207502 15.817728 103.173808 15.880905 103.119054 15.92934 C 103.068513 15.97567 103.009548 16.00094 102.944266 16.00094 C 102.836866 16.00094 102.678924 15.97567 102.472547 15.92934 C 102.264064 15.880905 102.057687 15.824046 101.853416 15.760869 C 101.653357 15.695586 101.499627 15.642939 101.394333 15.600822 C 101.21112 15.506057 101.120567 15.364962 101.120567 15.183856 C 101.131097 14.714243 101.183744 14.135124 101.280615 13.442287 C 101.377485 12.745238 101.495415 12.003966 101.638616 11.214258 C 101.781816 10.426656 101.93344 9.655901 102.093487 8.906205 C 102.253535 8.154403 102.413582 7.482625 102.57363 6.890871 C 102.733677 6.297011 102.878983 5.850562 103.007442 5.551526 C 103.072725 5.402008 103.194866 5.328302 103.378079 5.328302 C 103.485479 5.328302 103.649738 5.347255 103.872962 5.387267 C 104.098292 5.423067 104.334152 5.465185 104.584752 5.515726 C 104.835353 5.562056 105.058577 5.608385 105.25653 5.656821 C 105.454484 5.70315 105.585049 5.73895 105.648225 5.762115 C 105.732461 5.793703 105.804061 5.848457 105.863026 5.930586 C 105.921991 6.008504 105.957791 6.090634 105.96832 6.174869 C 106.012544 6.48654 106.060979 6.869812 106.111521 7.328895 C 106.164168 7.785873 106.221027 8.266015 106.279992 8.769323 C 106.341062 9.270524 106.393709 9.750666 106.440039 10.213961 C 106.486369 10.679362 106.532698 11.06474 106.576922 11.374305 C 106.597981 11.450117 106.619039 11.488023 106.640098 11.488023 C 106.671687 11.488023 106.692746 11.450117 106.705381 11.374305 C 106.83384 10.597233 106.974934 9.815949 107.128664 9.030453 C 107.282394 8.247062 107.436124 7.54159 107.587748 6.914036 C 107.745689 6.284375 107.886784 5.818974 108.015243 5.519938 Z M 116.607264 13.040062 C 116.607264 13.444393 116.512499 13.82977 116.318757 14.191983 C 116.129227 14.554195 115.874415 14.876396 115.55432 15.160691 C 115.234225 15.444986 114.872013 15.66821 114.471894 15.832469 C 114.073881 15.996728 113.665339 16.078858 113.248373 16.078858 C 112.993561 16.078858 112.696631 16.045164 112.357583 15.97567 C 112.022747 15.906175 111.687911 15.802987 111.357286 15.663998 C 111.030874 15.52501 110.73605 15.350221 110.479131 15.137526 C 110.224319 14.922726 110.032683 14.667913 109.904224 14.370983 C 109.777871 14.071947 109.681 13.707629 109.615717 13.282239 C 109.615717 13.282239 109.613611 13.254863 109.607294 13.202216 C 109.603082 13.147463 109.600976 13.103239 109.600976 13.069545 C 109.600976 12.901074 109.695741 12.772615 109.889483 12.688379 C 110.209578 12.570449 110.51072 12.486214 110.790803 12.433567 C 111.075097 12.378814 111.254098 12.347225 111.327804 12.336696 C 111.433098 12.336696 111.50891 12.366178 111.548922 12.425143 C 111.593146 12.484108 111.620522 12.538861 111.631052 12.593614 C 111.706864 12.858956 111.778464 13.109557 111.845852 13.34331 C 111.917452 13.57917 112.033276 13.770805 112.197535 13.922429 C 112.363901 14.069841 112.622925 14.143547 112.974608 14.143547 C 113.349456 14.143547 113.652704 14.0551 113.882245 13.873994 C 114.111787 13.692887 114.225505 13.499146 114.225505 13.296981 C 114.225505 13.084286 114.13074 12.89265 113.943316 12.722073 C 113.755892 12.551496 113.515821 12.385131 113.220997 12.22719 C 112.930384 12.065036 112.620819 11.892354 112.296512 11.707036 C 111.9701 11.519612 111.660534 11.309023 111.36571 11.075269 C 111.075097 10.837304 110.835026 10.555115 110.647602 10.230808 C 110.462284 9.904396 110.369625 9.519018 110.369625 9.070464 C 110.369625 8.645075 110.453861 8.211262 110.624437 7.769026 C 110.795014 7.32679 111.03298 6.918247 111.334122 6.547611 C 111.639475 6.172763 111.980629 5.869515 112.357583 5.639974 C 112.738749 5.410432 113.136761 5.296714 113.553727 5.296714 C 113.776951 5.296714 114.052822 5.332514 114.377129 5.402008 C 114.703542 5.469397 115.038378 5.574691 115.385849 5.715786 C 115.731215 5.852668 116.059733 6.019033 116.365087 6.210669 C 116.676758 6.400199 116.927359 6.619211 117.118995 6.863494 C 117.312736 7.107777 117.409607 7.379437 117.409607 7.680579 C 117.409607 7.840626 117.378019 8.032262 117.319054 8.249168 C 117.262195 8.466075 117.194806 8.670346 117.118995 8.864087 C 117.045288 9.055723 116.975794 9.205241 116.912618 9.312641 C 116.857864 9.420042 116.803111 9.491642 116.748358 9.531654 C 116.695711 9.567454 116.624111 9.590619 116.529346 9.601148 C 116.453534 9.611678 116.31244 9.620101 116.103957 9.624313 C 115.895474 9.630631 115.691203 9.632736 115.486932 9.632736 C 115.284766 9.632736 115.141566 9.632736 115.057331 9.632736 C 114.855165 9.632736 114.751977 9.563242 114.751977 9.426359 C 114.751977 9.382136 114.77093 9.276841 114.80673 9.112582 C 114.846742 8.946217 114.884648 8.758793 114.920448 8.55031 C 114.956248 8.341827 114.975201 8.158615 114.975201 8.000674 C 114.975201 7.691108 114.905707 7.474202 114.768824 7.35206 C 114.629835 7.229919 114.469788 7.168848 114.288682 7.168848 C 114.01281 7.168848 113.76221 7.272037 113.53688 7.480519 C 113.313656 7.689002 113.134655 7.929073 112.997773 8.202839 C 112.865102 8.474498 112.799819 8.716675 112.799819 8.92937 C 112.799819 9.205241 112.890372 9.443207 113.069373 9.64116 C 113.250479 9.839113 113.49055 10.016008 113.783269 10.176055 C 114.078093 10.333997 114.383447 10.498256 114.701436 10.664621 C 115.021531 10.82888 115.32899 11.014199 115.623814 11.222681 C 115.918639 11.431164 116.154498 11.681765 116.335604 11.976589 C 116.516711 12.267202 116.607264 12.623097 116.607264 13.040062 Z M 116.607264 13.040062 " stroke="#754d10" stroke-width="4" stroke-opacity="1" stroke-miterlimit="4"/></g><g fill="#ffffff" fill-opacity="1"><g transform="translate(7.398323, 28.30685)"><g><path d="M 10.921875 -11.71875 C 10.640625 -11.71875 10.5 -11.835938 10.5 -12.078125 C 10.5 -12.117188 10.503906 -12.148438 10.515625 -12.171875 C 10.523438 -12.203125 10.53125 -12.21875 10.53125 -12.21875 C 10.632812 -12.613281 10.722656 -12.988281 10.796875 -13.34375 C 10.878906 -13.707031 10.921875 -14.078125 10.921875 -14.453125 C 10.921875 -14.960938 10.835938 -15.394531 10.671875 -15.75 C 10.503906 -16.113281 10.191406 -16.296875 9.734375 -16.296875 C 9.234375 -16.296875 8.71875 -16.050781 8.1875 -15.5625 C 7.65625 -15.082031 7.15625 -14.429688 6.6875 -13.609375 C 6.226562 -12.785156 5.859375 -11.878906 5.578125 -10.890625 C 5.296875 -9.898438 5.15625 -8.898438 5.15625 -7.890625 C 5.15625 -6.484375 5.425781 -5.492188 5.96875 -4.921875 C 6.519531 -4.347656 7.128906 -4.0625 7.796875 -4.0625 C 8.253906 -4.0625 8.734375 -4.179688 9.234375 -4.421875 C 9.742188 -4.660156 10.222656 -4.9375 10.671875 -5.25 C 11.128906 -5.570312 11.476562 -5.828125 11.71875 -6.015625 C 11.71875 -6.015625 11.753906 -6.046875 11.828125 -6.109375 C 11.910156 -6.171875 11.992188 -6.203125 12.078125 -6.203125 C 12.253906 -6.203125 12.398438 -6.132812 12.515625 -6 C 12.617188 -5.894531 12.738281 -5.695312 12.875 -5.40625 C 13.007812 -5.125 13.140625 -4.835938 13.265625 -4.546875 C 13.398438 -4.265625 13.488281 -4.070312 13.53125 -3.96875 C 13.570312 -3.875 13.601562 -3.78125 13.625 -3.6875 C 13.65625 -3.601562 13.671875 -3.507812 13.671875 -3.40625 C 13.671875 -3.25 13.613281 -3.09375 13.5 -2.9375 C 13.207031 -2.539062 12.773438 -2.109375 12.203125 -1.640625 C 11.640625 -1.179688 11.003906 -0.78125 10.296875 -0.4375 C 9.585938 -0.101562 8.875 0.0625 8.15625 0.0625 C 7.519531 0.0625 6.789062 -0.0859375 5.96875 -0.390625 C 5.15625 -0.703125 4.378906 -1.113281 3.640625 -1.625 C 2.910156 -2.144531 2.347656 -2.691406 1.953125 -3.265625 C 1.578125 -3.859375 1.28125 -4.523438 1.0625 -5.265625 C 0.84375 -6.003906 0.734375 -6.789062 0.734375 -7.625 C 0.734375 -8.707031 0.863281 -9.820312 1.125 -10.96875 C 1.382812 -12.125 1.75 -13.226562 2.21875 -14.28125 C 2.695312 -15.34375 3.265625 -16.296875 3.921875 -17.140625 C 4.585938 -17.992188 5.328125 -18.664062 6.140625 -19.15625 C 6.953125 -19.65625 7.820312 -19.90625 8.75 -19.90625 C 9.03125 -19.90625 9.429688 -19.835938 9.953125 -19.703125 C 10.472656 -19.566406 11.035156 -19.375 11.640625 -19.125 C 12.242188 -18.875 12.828125 -18.570312 13.390625 -18.21875 C 13.960938 -17.863281 14.425781 -17.457031 14.78125 -17 C 15.132812 -16.539062 15.3125 -16.054688 15.3125 -15.546875 C 15.3125 -14.992188 15.207031 -14.414062 15 -13.8125 C 14.789062 -13.207031 14.609375 -12.707031 14.453125 -12.3125 C 14.316406 -11.976562 14.054688 -11.8125 13.671875 -11.8125 C 13.535156 -11.789062 13.273438 -11.773438 12.890625 -11.765625 C 12.503906 -11.753906 12.117188 -11.742188 11.734375 -11.734375 C 11.347656 -11.722656 11.078125 -11.71875 10.921875 -11.71875 Z M 10.921875 -11.71875 "/></g></g></g><g fill="#ffffff" fill-opacity="1"><g transform="translate(22.089304, 28.30685)"><g><path d="M 10 -16.078125 C 9.363281 -16.078125 8.757812 -15.828125 8.1875 -15.328125 C 7.613281 -14.835938 7.101562 -14.175781 6.65625 -13.34375 C 6.21875 -12.519531 5.867188 -11.613281 5.609375 -10.625 C 5.347656 -9.632812 5.21875 -8.632812 5.21875 -7.625 C 5.21875 -6.570312 5.34375 -5.757812 5.59375 -5.1875 C 5.84375 -4.613281 6.148438 -4.21875 6.515625 -4 C 6.878906 -3.78125 7.238281 -3.671875 7.59375 -3.671875 C 8.25 -3.671875 8.851562 -3.925781 9.40625 -4.4375 C 9.957031 -4.957031 10.445312 -5.644531 10.875 -6.5 C 11.300781 -7.363281 11.625 -8.316406 11.84375 -9.359375 C 12.070312 -10.398438 12.1875 -11.453125 12.1875 -12.515625 C 12.1875 -13.742188 11.972656 -14.644531 11.546875 -15.21875 C 11.128906 -15.789062 10.613281 -16.078125 10 -16.078125 Z M 8.1875 0.0625 C 7.4375 0.0625 6.65625 -0.09375 5.84375 -0.40625 C 5.03125 -0.726562 4.28125 -1.140625 3.59375 -1.640625 C 2.914062 -2.148438 2.398438 -2.660156 2.046875 -3.171875 C 1.566406 -3.847656 1.238281 -4.613281 1.0625 -5.46875 C 0.882812 -6.332031 0.796875 -7.160156 0.796875 -7.953125 C 0.796875 -8.679688 0.894531 -9.5625 1.09375 -10.59375 C 1.289062 -11.625 1.601562 -12.675781 2.03125 -13.75 C 2.457031 -14.832031 2.992188 -15.835938 3.640625 -16.765625 C 4.296875 -17.691406 5.070312 -18.441406 5.96875 -19.015625 C 6.875 -19.585938 7.910156 -19.875 9.078125 -19.875 C 9.429688 -19.875 9.90625 -19.785156 10.5 -19.609375 C 11.09375 -19.429688 11.71875 -19.179688 12.375 -18.859375 C 13.039062 -18.546875 13.648438 -18.1875 14.203125 -17.78125 C 14.765625 -17.382812 15.191406 -16.957031 15.484375 -16.5 C 15.921875 -15.800781 16.222656 -15.054688 16.390625 -14.265625 C 16.554688 -13.472656 16.640625 -12.675781 16.640625 -11.875 C 16.640625 -11.039062 16.535156 -10.097656 16.328125 -9.046875 C 16.117188 -8.003906 15.800781 -6.945312 15.375 -5.875 C 14.957031 -4.800781 14.410156 -3.816406 13.734375 -2.921875 C 13.066406 -2.023438 12.269531 -1.300781 11.34375 -0.75 C 10.425781 -0.207031 9.375 0.0625 8.1875 0.0625 Z M 8.1875 0.0625 "/></g></g></g><g fill="#ffffff" fill-opacity="1"><g transform="translate(38.679725, 28.30685)"><g><path d="M 13.109375 -19.4375 C 13.191406 -19.695312 13.398438 -19.828125 13.734375 -19.828125 C 13.878906 -19.828125 14.15625 -19.773438 14.5625 -19.671875 C 14.976562 -19.578125 15.40625 -19.46875 15.84375 -19.34375 C 16.28125 -19.226562 16.597656 -19.128906 16.796875 -19.046875 C 17.035156 -18.972656 17.15625 -18.785156 17.15625 -18.484375 C 17.15625 -18.441406 17.148438 -18.394531 17.140625 -18.34375 C 17.128906 -18.300781 17.125 -18.28125 17.125 -18.28125 C 16.882812 -17.601562 16.597656 -16.625 16.265625 -15.34375 C 15.941406 -14.070312 15.601562 -12.617188 15.25 -10.984375 C 14.894531 -9.359375 14.5625 -7.640625 14.25 -5.828125 C 13.945312 -4.015625 13.695312 -2.226562 13.5 -0.46875 C 13.476562 -0.3125 13.40625 -0.191406 13.28125 -0.109375 C 13.164062 -0.0351562 13.03125 0 12.875 0 C 12.65625 0 12.351562 -0.0234375 11.96875 -0.078125 C 11.582031 -0.140625 11.171875 -0.210938 10.734375 -0.296875 C 10.304688 -0.390625 9.914062 -0.484375 9.5625 -0.578125 C 9.21875 -0.679688 8.96875 -0.765625 8.8125 -0.828125 C 8.632812 -0.910156 8.488281 -1.019531 8.375 -1.15625 C 8.269531 -1.289062 8.195312 -1.429688 8.15625 -1.578125 C 7.957031 -2.285156 7.765625 -3.117188 7.578125 -4.078125 C 7.390625 -5.035156 7.21875 -6.035156 7.0625 -7.078125 C 6.90625 -8.117188 6.765625 -9.085938 6.640625 -9.984375 C 6.523438 -10.878906 6.4375 -11.625 6.375 -12.21875 C 6.332031 -12.382812 6.285156 -12.46875 6.234375 -12.46875 C 6.191406 -12.46875 6.148438 -12.382812 6.109375 -12.21875 C 5.753906 -10.539062 5.40625 -8.675781 5.0625 -6.625 C 4.726562 -4.582031 4.445312 -2.53125 4.21875 -0.46875 C 4.195312 -0.332031 4.132812 -0.21875 4.03125 -0.125 C 3.9375 -0.0390625 3.828125 0 3.703125 0 C 3.503906 0 3.210938 -0.0390625 2.828125 -0.125 C 2.441406 -0.21875 2.0625 -0.320312 1.6875 -0.4375 C 1.3125 -0.5625 1.023438 -0.660156 0.828125 -0.734375 C 0.492188 -0.921875 0.328125 -1.179688 0.328125 -1.515625 C 0.347656 -2.378906 0.445312 -3.453125 0.625 -4.734375 C 0.800781 -6.023438 1.019531 -7.398438 1.28125 -8.859375 C 1.550781 -10.328125 1.832031 -11.757812 2.125 -13.15625 C 2.425781 -14.550781 2.722656 -15.796875 3.015625 -16.890625 C 3.316406 -17.992188 3.585938 -18.820312 3.828125 -19.375 C 3.941406 -19.65625 4.171875 -19.796875 4.515625 -19.796875 C 4.710938 -19.796875 5.015625 -19.757812 5.421875 -19.6875 C 5.835938 -19.613281 6.28125 -19.53125 6.75 -19.4375 C 7.21875 -19.351562 7.632812 -19.265625 8 -19.171875 C 8.363281 -19.085938 8.601562 -19.023438 8.71875 -18.984375 C 8.875 -18.929688 9.003906 -18.828125 9.109375 -18.671875 C 9.222656 -18.523438 9.289062 -18.375 9.3125 -18.21875 C 9.394531 -17.644531 9.484375 -16.929688 9.578125 -16.078125 C 9.679688 -15.234375 9.785156 -14.34375 9.890625 -13.40625 C 10.003906 -12.476562 10.101562 -11.582031 10.1875 -10.71875 C 10.28125 -9.863281 10.363281 -9.148438 10.4375 -8.578125 C 10.476562 -8.441406 10.519531 -8.375 10.5625 -8.375 C 10.625 -8.375 10.664062 -8.441406 10.6875 -8.578125 C 10.914062 -10.015625 11.171875 -11.460938 11.453125 -12.921875 C 11.742188 -14.378906 12.035156 -15.691406 12.328125 -16.859375 C 12.617188 -18.023438 12.878906 -18.882812 13.109375 -19.4375 Z M 13.109375 -19.4375 "/></g></g></g><g fill="#ffffff" fill-opacity="1"><g transform="translate(54.439147, 28.30685)"><g><path d="M 8.078125 0.09375 C 7.492188 0.09375 6.804688 -0.0546875 6.015625 -0.359375 C 5.234375 -0.671875 4.472656 -1.078125 3.734375 -1.578125 C 3.003906 -2.085938 2.421875 -2.648438 1.984375 -3.265625 C 1.609375 -3.816406 1.304688 -4.460938 1.078125 -5.203125 C 0.847656 -5.941406 0.734375 -6.679688 0.734375 -7.421875 C 0.734375 -8.546875 0.863281 -9.695312 1.125 -10.875 C 1.382812 -12.050781 1.753906 -13.171875 2.234375 -14.234375 C 2.722656 -15.304688 3.296875 -16.265625 3.953125 -17.109375 C 4.617188 -17.960938 5.359375 -18.632812 6.171875 -19.125 C 6.984375 -19.625 7.851562 -19.875 8.78125 -19.875 C 9.132812 -19.875 9.597656 -19.804688 10.171875 -19.671875 C 10.742188 -19.535156 11.351562 -19.335938 12 -19.078125 C 12.644531 -18.816406 13.25 -18.503906 13.8125 -18.140625 C 14.375 -17.773438 14.835938 -17.359375 15.203125 -16.890625 C 15.566406 -16.429688 15.75 -15.925781 15.75 -15.375 C 15.75 -14.957031 15.695312 -14.523438 15.59375 -14.078125 C 15.5 -13.628906 15.40625 -13.257812 15.3125 -12.96875 C 15.207031 -12.644531 14.957031 -12.46875 14.5625 -12.4375 C 14.425781 -12.4375 14.175781 -12.425781 13.8125 -12.40625 C 13.445312 -12.382812 13.082031 -12.367188 12.71875 -12.359375 C 12.351562 -12.347656 12.097656 -12.34375 11.953125 -12.34375 C 11.640625 -12.34375 11.484375 -12.539062 11.484375 -12.9375 C 11.484375 -13.050781 11.503906 -13.25 11.546875 -13.53125 C 11.597656 -13.820312 11.625 -14.148438 11.625 -14.515625 C 11.625 -14.921875 11.535156 -15.304688 11.359375 -15.671875 C 11.179688 -16.046875 10.773438 -16.234375 10.140625 -16.234375 C 9.515625 -16.234375 8.90625 -15.988281 8.3125 -15.5 C 7.71875 -15.019531 7.179688 -14.363281 6.703125 -13.53125 C 6.234375 -12.695312 5.859375 -11.765625 5.578125 -10.734375 C 5.296875 -9.710938 5.15625 -8.644531 5.15625 -7.53125 C 5.15625 -6.132812 5.398438 -5.148438 5.890625 -4.578125 C 6.390625 -4.015625 6.9375 -3.734375 7.53125 -3.734375 C 8.007812 -3.734375 8.507812 -3.90625 9.03125 -4.25 C 9.5625 -4.601562 10.007812 -5.003906 10.375 -5.453125 C 10.738281 -5.910156 10.921875 -6.304688 10.921875 -6.640625 C 10.921875 -6.804688 10.800781 -6.890625 10.5625 -6.890625 C 10.144531 -6.867188 9.789062 -6.859375 9.5 -6.859375 C 9.21875 -6.859375 8.957031 -6.859375 8.71875 -6.859375 C 8.582031 -6.859375 8.441406 -6.898438 8.296875 -6.984375 C 8.160156 -7.078125 8.078125 -7.203125 8.046875 -7.359375 C 7.984375 -7.691406 7.929688 -8.078125 7.890625 -8.515625 C 7.847656 -8.953125 7.828125 -9.304688 7.828125 -9.578125 C 7.828125 -9.921875 8.023438 -10.117188 8.421875 -10.171875 C 8.835938 -10.234375 9.398438 -10.28125 10.109375 -10.3125 C 10.828125 -10.34375 11.519531 -10.359375 12.1875 -10.359375 C 12.46875 -10.359375 12.726562 -10.359375 12.96875 -10.359375 C 13.207031 -10.359375 13.425781 -10.347656 13.625 -10.328125 C 14.019531 -10.304688 14.285156 -10.117188 14.421875 -9.765625 C 14.535156 -9.503906 14.648438 -9.128906 14.765625 -8.640625 C 14.890625 -8.160156 14.992188 -7.691406 15.078125 -7.234375 C 15.171875 -6.785156 15.21875 -6.472656 15.21875 -6.296875 C 15.21875 -6.078125 15.179688 -5.867188 15.109375 -5.671875 C 14.929688 -5.191406 14.648438 -4.625 14.265625 -3.96875 C 13.890625 -3.320312 13.414062 -2.691406 12.84375 -2.078125 C 12.269531 -1.460938 11.585938 -0.945312 10.796875 -0.53125 C 10.003906 -0.113281 9.097656 0.09375 8.078125 0.09375 Z M 8.078125 0.09375 "/></g></g></g><g fill="#ffffff" fill-opacity="1"><g transform="translate(70.257921, 28.30685)"><g><path d="M 10.734375 -7.53125 C 10.523438 -7.4375 10.421875 -7.320312 10.421875 -7.1875 C 10.421875 -7.101562 10.429688 -7.035156 10.453125 -6.984375 C 10.484375 -6.929688 10.5 -6.90625 10.5 -6.90625 C 11.019531 -6.125 11.554688 -5.347656 12.109375 -4.578125 C 12.660156 -3.816406 13.179688 -3.222656 13.671875 -2.796875 C 13.796875 -2.671875 13.859375 -2.53125 13.859375 -2.375 C 13.859375 -2.269531 13.804688 -2.148438 13.703125 -2.015625 C 13.390625 -1.703125 12.960938 -1.351562 12.421875 -0.96875 C 11.878906 -0.582031 11.390625 -0.289062 10.953125 -0.09375 C 10.953125 -0.09375 10.925781 -0.0820312 10.875 -0.0625 C 10.820312 -0.0390625 10.75 -0.03125 10.65625 -0.03125 C 10.507812 -0.03125 10.382812 -0.0507812 10.28125 -0.09375 C 10.175781 -0.144531 10.082031 -0.203125 10 -0.265625 C 9.46875 -0.742188 8.96875 -1.347656 8.5 -2.078125 C 8.03125 -2.804688 7.632812 -3.5625 7.3125 -4.34375 C 6.988281 -5.125 6.738281 -5.800781 6.5625 -6.375 C 6.5 -6.53125 6.429688 -6.65625 6.359375 -6.75 C 6.296875 -6.84375 6.203125 -6.890625 6.078125 -6.890625 L 5.734375 -6.890625 C 5.472656 -6.890625 5.320312 -6.738281 5.28125 -6.4375 C 4.925781 -4.394531 4.640625 -2.40625 4.421875 -0.46875 C 4.359375 -0.15625 4.179688 0 3.890625 0 C 3.691406 0 3.363281 -0.0546875 2.90625 -0.171875 C 2.445312 -0.296875 2.015625 -0.421875 1.609375 -0.546875 C 1.210938 -0.671875 0.972656 -0.742188 0.890625 -0.765625 C 0.671875 -0.867188 0.53125 -0.984375 0.46875 -1.109375 C 0.414062 -1.242188 0.378906 -1.378906 0.359375 -1.515625 C 0.378906 -2.367188 0.46875 -3.410156 0.625 -4.640625 C 0.78125 -5.878906 0.984375 -7.203125 1.234375 -8.609375 C 1.492188 -10.023438 1.769531 -11.414062 2.0625 -12.78125 C 2.363281 -14.15625 2.65625 -15.382812 2.9375 -16.46875 C 2.976562 -16.582031 3 -16.675781 3 -16.75 C 3 -16.820312 3 -16.882812 3 -16.9375 C 3 -17.195312 2.972656 -17.457031 2.921875 -17.71875 C 2.867188 -17.988281 2.84375 -18.1875 2.84375 -18.3125 C 2.84375 -18.445312 2.882812 -18.566406 2.96875 -18.671875 C 3.0625 -18.785156 3.160156 -18.863281 3.265625 -18.90625 C 3.835938 -19.132812 4.609375 -19.367188 5.578125 -19.609375 C 6.546875 -19.847656 7.644531 -19.96875 8.875 -19.96875 C 9.820312 -19.96875 10.710938 -19.75 11.546875 -19.3125 C 12.390625 -18.875 13.125 -18.3125 13.75 -17.625 C 14.375 -16.945312 14.863281 -16.226562 15.21875 -15.46875 C 15.570312 -14.707031 15.75 -14.007812 15.75 -13.375 C 15.75 -12.488281 15.523438 -11.664062 15.078125 -10.90625 C 14.640625 -10.144531 14.046875 -9.476562 13.296875 -8.90625 C 12.546875 -8.332031 11.691406 -7.875 10.734375 -7.53125 Z M 7.921875 -16.265625 C 7.566406 -16.242188 7.335938 -16.0625 7.234375 -15.71875 C 7.210938 -15.644531 7.15625 -15.429688 7.0625 -15.078125 C 6.976562 -14.722656 6.878906 -14.300781 6.765625 -13.8125 C 6.648438 -13.320312 6.535156 -12.835938 6.421875 -12.359375 C 6.316406 -11.890625 6.226562 -11.488281 6.15625 -11.15625 C 6.082031 -10.820312 6.046875 -10.625 6.046875 -10.5625 C 6.046875 -10.363281 6.15625 -10.265625 6.375 -10.265625 C 7.3125 -10.265625 8.148438 -10.460938 8.890625 -10.859375 C 9.628906 -11.253906 10.21875 -11.742188 10.65625 -12.328125 C 11.101562 -12.910156 11.328125 -13.5 11.328125 -14.09375 C 11.328125 -14.863281 11.0625 -15.421875 10.53125 -15.765625 C 10 -16.117188 9.367188 -16.296875 8.640625 -16.296875 C 8.515625 -16.296875 8.390625 -16.296875 8.265625 -16.296875 C 8.148438 -16.296875 8.035156 -16.285156 7.921875 -16.265625 Z M 7.921875 -16.265625 "/></g></g></g><g fill="#ffffff" fill-opacity="1"><g transform="translate(85.631504, 28.30685)"><g><path d="M 0.828125 -4.8125 C 0.867188 -4.90625 0.890625 -5.019531 0.890625 -5.15625 C 0.890625 -5.28125 0.847656 -5.476562 0.765625 -5.75 C 0.691406 -6.03125 0.609375 -6.3125 0.515625 -6.59375 C 0.429688 -6.882812 0.390625 -7.117188 0.390625 -7.296875 C 0.390625 -7.617188 0.546875 -7.804688 0.859375 -7.859375 C 1.015625 -7.898438 1.171875 -7.9375 1.328125 -7.96875 C 1.492188 -8 1.578125 -8.015625 1.578125 -8.015625 C 1.796875 -8.054688 1.945312 -8.117188 2.03125 -8.203125 C 2.125 -8.296875 2.207031 -8.429688 2.28125 -8.609375 C 2.675781 -9.378906 3.113281 -10.285156 3.59375 -11.328125 C 4.082031 -12.378906 4.582031 -13.4375 5.09375 -14.5 C 5.613281 -15.570312 6.097656 -16.53125 6.546875 -17.375 C 7.003906 -18.226562 7.40625 -18.851562 7.75 -19.25 C 7.90625 -19.4375 8.101562 -19.53125 8.34375 -19.53125 C 8.5 -19.53125 8.6875 -19.492188 8.90625 -19.421875 C 9.125 -19.347656 9.269531 -19.3125 9.34375 -19.3125 C 9.644531 -19.3125 9.8125 -19.441406 9.84375 -19.703125 C 9.882812 -19.960938 10.015625 -20.09375 10.234375 -20.09375 C 10.367188 -20.09375 10.648438 -20.023438 11.078125 -19.890625 C 11.503906 -19.765625 11.929688 -19.625 12.359375 -19.46875 C 12.785156 -19.3125 13.078125 -19.191406 13.234375 -19.109375 C 13.566406 -18.953125 13.765625 -18.6875 13.828125 -18.3125 C 13.910156 -17.894531 13.976562 -17.289062 14.03125 -16.5 C 14.09375 -15.707031 14.144531 -14.796875 14.1875 -13.765625 C 14.226562 -12.734375 14.253906 -11.648438 14.265625 -10.515625 C 14.285156 -9.378906 14.296875 -8.257812 14.296875 -7.15625 C 14.296875 -5.75 14.273438 -4.445312 14.234375 -3.25 C 14.203125 -2.050781 14.144531 -1.113281 14.0625 -0.4375 C 14.019531 -0.144531 13.820312 0 13.46875 0 C 13.3125 0 13.007812 -0.0234375 12.5625 -0.078125 C 12.113281 -0.140625 11.671875 -0.210938 11.234375 -0.296875 C 10.804688 -0.378906 10.503906 -0.445312 10.328125 -0.5 C 10.003906 -0.601562 9.84375 -0.863281 9.84375 -1.28125 C 9.84375 -1.507812 9.851562 -1.859375 9.875 -2.328125 C 9.894531 -2.796875 9.910156 -3.25 9.921875 -3.6875 C 9.929688 -4.132812 9.9375 -4.4375 9.9375 -4.59375 C 9.9375 -4.894531 9.78125 -5.046875 9.46875 -5.046875 C 9.03125 -5.046875 8.535156 -5.035156 7.984375 -5.015625 C 7.429688 -4.992188 6.929688 -4.972656 6.484375 -4.953125 C 6.035156 -4.929688 5.753906 -4.910156 5.640625 -4.890625 C 5.335938 -4.867188 5.109375 -4.691406 4.953125 -4.359375 C 4.679688 -3.742188 4.414062 -3.070312 4.15625 -2.34375 C 3.894531 -1.613281 3.65625 -0.988281 3.4375 -0.46875 C 3.320312 -0.238281 3.144531 -0.125 2.90625 -0.125 C 2.75 -0.125 2.484375 -0.195312 2.109375 -0.34375 C 1.734375 -0.488281 1.359375 -0.65625 0.984375 -0.84375 C 0.617188 -1.03125 0.359375 -1.175781 0.203125 -1.28125 C -0.0234375 -1.457031 -0.140625 -1.65625 -0.140625 -1.875 C -0.140625 -1.945312 -0.132812 -2.003906 -0.125 -2.046875 C -0.125 -2.085938 -0.125 -2.109375 -0.125 -2.109375 Z M 6.765625 -9.015625 C 6.765625 -9.015625 6.753906 -8.992188 6.734375 -8.953125 C 6.710938 -8.921875 6.703125 -8.882812 6.703125 -8.84375 C 6.703125 -8.6875 6.84375 -8.609375 7.125 -8.609375 C 7.5 -8.609375 7.929688 -8.613281 8.421875 -8.625 C 8.921875 -8.632812 9.269531 -8.640625 9.46875 -8.640625 C 9.78125 -8.640625 9.96875 -8.828125 10.03125 -9.203125 C 10.050781 -9.535156 10.0625 -9.867188 10.0625 -10.203125 C 10.0625 -10.546875 10.0625 -10.882812 10.0625 -11.21875 C 10.0625 -12.03125 10.050781 -12.804688 10.03125 -13.546875 C 10.007812 -14.285156 9.988281 -14.894531 9.96875 -15.375 C 9.96875 -15.550781 9.925781 -15.640625 9.84375 -15.640625 C 9.789062 -15.640625 9.734375 -15.578125 9.671875 -15.453125 C 9.296875 -14.660156 8.859375 -13.703125 8.359375 -12.578125 C 7.867188 -11.453125 7.335938 -10.265625 6.765625 -9.015625 Z M 6.765625 -9.015625 "/></g></g></g><g fill="#ffffff" fill-opacity="1"><g transform="translate(101.27222, 28.30685)"><g><path d="M 14.546875 -19.796875 C 14.703125 -19.773438 14.832031 -19.703125 14.9375 -19.578125 C 15.050781 -19.460938 15.113281 -19.328125 15.125 -19.171875 C 15.144531 -18.992188 15.160156 -18.757812 15.171875 -18.46875 C 15.179688 -18.1875 15.1875 -17.894531 15.1875 -17.59375 C 15.1875 -17.300781 15.1875 -17.03125 15.1875 -16.78125 C 15.1875 -16.53125 15.175781 -16.316406 15.15625 -16.140625 C 15.132812 -15.742188 14.898438 -15.523438 14.453125 -15.484375 C 14.273438 -15.460938 13.875 -15.4375 13.25 -15.40625 C 12.625 -15.382812 11.992188 -15.351562 11.359375 -15.3125 C 11.160156 -15.289062 11.007812 -15.226562 10.90625 -15.125 C 10.8125 -15.03125 10.75 -14.925781 10.71875 -14.8125 C 10.414062 -13.582031 10.097656 -12.179688 9.765625 -10.609375 C 9.441406 -9.035156 9.132812 -7.382812 8.84375 -5.65625 C 8.5625 -3.9375 8.320312 -2.207031 8.125 -0.46875 C 8.101562 -0.175781 7.9375 -0.03125 7.625 -0.03125 C 7.507812 -0.03125 7.238281 -0.0703125 6.8125 -0.15625 C 6.382812 -0.25 5.945312 -0.351562 5.5 -0.46875 C 5.0625 -0.59375 4.734375 -0.691406 4.515625 -0.765625 C 4.367188 -0.828125 4.25 -0.929688 4.15625 -1.078125 C 4.070312 -1.234375 4.03125 -1.378906 4.03125 -1.515625 C 4.070312 -2.398438 4.15625 -3.390625 4.28125 -4.484375 C 4.414062 -5.585938 4.585938 -6.726562 4.796875 -7.90625 C 5.003906 -9.082031 5.222656 -10.238281 5.453125 -11.375 C 5.691406 -12.507812 5.929688 -13.554688 6.171875 -14.515625 C 6.171875 -14.515625 6.175781 -14.535156 6.1875 -14.578125 C 6.195312 -14.628906 6.203125 -14.6875 6.203125 -14.75 C 6.203125 -14.988281 6.0625 -15.109375 5.78125 -15.109375 C 5.78125 -15.109375 5.644531 -15.101562 5.375 -15.09375 C 5.113281 -15.082031 4.8125 -15.066406 4.46875 -15.046875 C 4.132812 -15.023438 3.835938 -15.007812 3.578125 -15 C 3.328125 -14.988281 3.191406 -14.984375 3.171875 -14.984375 C 2.796875 -14.984375 2.585938 -15.160156 2.546875 -15.515625 C 2.472656 -15.929688 2.425781 -16.457031 2.40625 -17.09375 C 2.382812 -17.726562 2.375 -18.234375 2.375 -18.609375 C 2.375 -18.765625 2.421875 -18.910156 2.515625 -19.046875 C 2.617188 -19.179688 2.769531 -19.257812 2.96875 -19.28125 C 3.519531 -19.382812 4.296875 -19.476562 5.296875 -19.5625 C 6.296875 -19.65625 7.398438 -19.726562 8.609375 -19.78125 C 9.816406 -19.84375 10.972656 -19.875 12.078125 -19.875 C 13.128906 -19.875 13.953125 -19.847656 14.546875 -19.796875 Z M 14.546875 -19.796875 "/></g></g></g><g fill="#ffffff" fill-opacity="1"><g transform="translate(114.835406, 28.30685)"><g><path d="M 15.15625 -18.875 C 15.332031 -18.789062 15.460938 -18.679688 15.546875 -18.546875 C 15.628906 -18.410156 15.679688 -18.257812 15.703125 -18.09375 L 15.703125 -17.359375 C 15.703125 -16.503906 15.644531 -15.488281 15.53125 -14.3125 C 15.425781 -13.132812 15.253906 -11.894531 15.015625 -10.59375 C 14.773438 -9.289062 14.457031 -8.007812 14.0625 -6.75 C 13.664062 -5.488281 13.175781 -4.34375 12.59375 -3.3125 C 12.007812 -2.289062 11.316406 -1.472656 10.515625 -0.859375 C 9.710938 -0.242188 8.789062 0.0625 7.75 0.0625 C 6.9375 0.0625 6.140625 -0.0859375 5.359375 -0.390625 C 4.578125 -0.703125 3.890625 -1.082031 3.296875 -1.53125 C 2.703125 -1.988281 2.253906 -2.414062 1.953125 -2.8125 C 1.640625 -3.269531 1.40625 -3.847656 1.25 -4.546875 C 1.09375 -5.253906 1.015625 -5.953125 1.015625 -6.640625 C 1.015625 -7.867188 1.113281 -9.125 1.3125 -10.40625 C 1.507812 -11.695312 1.757812 -12.929688 2.0625 -14.109375 C 2.363281 -15.285156 2.671875 -16.328125 2.984375 -17.234375 C 3.304688 -18.148438 3.585938 -18.820312 3.828125 -19.25 C 3.921875 -19.414062 4.019531 -19.535156 4.125 -19.609375 C 4.238281 -19.691406 4.394531 -19.734375 4.59375 -19.734375 C 4.789062 -19.734375 5.066406 -19.6875 5.421875 -19.59375 C 5.785156 -19.507812 6.160156 -19.40625 6.546875 -19.28125 C 6.929688 -19.164062 7.242188 -19.054688 7.484375 -18.953125 C 7.597656 -18.921875 7.679688 -18.84375 7.734375 -18.71875 C 7.796875 -18.601562 7.828125 -18.484375 7.828125 -18.359375 C 7.828125 -18.285156 7.816406 -18.210938 7.796875 -18.140625 C 7.785156 -18.078125 7.78125 -18.046875 7.78125 -18.046875 C 7.476562 -17.253906 7.175781 -16.335938 6.875 -15.296875 C 6.582031 -14.253906 6.3125 -13.1875 6.0625 -12.09375 C 5.820312 -11.007812 5.625 -9.972656 5.46875 -8.984375 C 5.320312 -7.992188 5.25 -7.15625 5.25 -6.46875 C 5.25 -5.695312 5.347656 -5.066406 5.546875 -4.578125 C 5.742188 -4.097656 6.140625 -3.859375 6.734375 -3.859375 C 7.304688 -3.859375 7.796875 -4.109375 8.203125 -4.609375 C 8.609375 -5.117188 8.96875 -5.796875 9.28125 -6.640625 C 9.601562 -7.492188 9.890625 -8.4375 10.140625 -9.46875 C 10.359375 -10.351562 10.554688 -11.273438 10.734375 -12.234375 C 10.921875 -13.191406 11.082031 -14.117188 11.21875 -15.015625 C 11.351562 -15.921875 11.457031 -16.734375 11.53125 -17.453125 C 11.613281 -18.179688 11.675781 -18.734375 11.71875 -19.109375 C 11.757812 -19.421875 11.925781 -19.578125 12.21875 -19.578125 C 12.382812 -19.578125 12.65625 -19.535156 13.03125 -19.453125 C 13.40625 -19.378906 13.796875 -19.285156 14.203125 -19.171875 C 14.609375 -19.066406 14.925781 -18.96875 15.15625 -18.875 Z M 15.15625 -18.875 "/></g></g></g><g fill="#ffffff" fill-opacity="1"><g transform="translate(130.060622, 28.30685)"><g><path d="M 9.9375 -4.5625 C 10.09375 -4.5625 10.242188 -4.515625 10.390625 -4.421875 C 10.546875 -4.335938 10.65625 -4.207031 10.71875 -4.03125 C 10.769531 -3.832031 10.847656 -3.519531 10.953125 -3.09375 C 11.066406 -2.675781 11.164062 -2.273438 11.25 -1.890625 C 11.34375 -1.503906 11.390625 -1.257812 11.390625 -1.15625 C 11.390625 -0.875 11.234375 -0.71875 10.921875 -0.6875 C 10.597656 -0.664062 10.144531 -0.625 9.5625 -0.5625 C 8.976562 -0.5 8.34375 -0.4375 7.65625 -0.375 C 6.976562 -0.320312 6.320312 -0.265625 5.6875 -0.203125 C 5.0625 -0.148438 4.53125 -0.101562 4.09375 -0.0625 C 3.65625 -0.0195312 3.390625 0 3.296875 0 C 3.148438 0 3.007812 -0.0195312 2.875 -0.0625 C 2.738281 -0.101562 2.613281 -0.171875 2.5 -0.265625 C 2.195312 -0.578125 1.863281 -1 1.5 -1.53125 C 1.132812 -2.070312 0.851562 -2.519531 0.65625 -2.875 C 0.59375 -3 0.550781 -3.128906 0.53125 -3.265625 C 0.507812 -3.398438 0.5 -3.519531 0.5 -3.625 C 0.5 -3.695312 0.503906 -3.785156 0.515625 -3.890625 C 0.523438 -4.003906 0.53125 -4.0625 0.53125 -4.0625 C 0.613281 -4.976562 0.742188 -5.992188 0.921875 -7.109375 C 1.097656 -8.222656 1.300781 -9.375 1.53125 -10.5625 C 1.757812 -11.75 1.992188 -12.90625 2.234375 -14.03125 C 2.484375 -15.15625 2.734375 -16.179688 2.984375 -17.109375 C 3.242188 -18.046875 3.492188 -18.820312 3.734375 -19.4375 C 3.835938 -19.695312 4.046875 -19.828125 4.359375 -19.828125 C 4.535156 -19.828125 4.828125 -19.78125 5.234375 -19.6875 C 5.640625 -19.59375 6.066406 -19.488281 6.515625 -19.375 C 6.960938 -19.257812 7.3125 -19.148438 7.5625 -19.046875 C 7.820312 -18.953125 7.953125 -18.753906 7.953125 -18.453125 C 7.953125 -18.410156 7.945312 -18.363281 7.9375 -18.3125 C 7.925781 -18.269531 7.921875 -18.25 7.921875 -18.25 C 7.503906 -16.78125 7.113281 -15.285156 6.75 -13.765625 C 6.382812 -12.242188 6.0625 -10.820312 5.78125 -9.5 C 5.507812 -8.1875 5.289062 -7.082031 5.125 -6.1875 C 4.96875 -5.300781 4.890625 -4.757812 4.890625 -4.5625 C 4.890625 -4.332031 5.019531 -4.21875 5.28125 -4.21875 C 5.34375 -4.21875 5.5625 -4.234375 5.9375 -4.265625 C 6.3125 -4.304688 6.757812 -4.347656 7.28125 -4.390625 C 7.8125 -4.429688 8.320312 -4.46875 8.8125 -4.5 C 9.300781 -4.539062 9.675781 -4.5625 9.9375 -4.5625 Z M 9.9375 -4.5625 "/></g></g></g><g fill="#ffffff" fill-opacity="1"><g transform="translate(142.317956, 28.30685)"><g><path d="M 0.828125 -4.8125 C 0.867188 -4.90625 0.890625 -5.019531 0.890625 -5.15625 C 0.890625 -5.28125 0.847656 -5.476562 0.765625 -5.75 C 0.691406 -6.03125 0.609375 -6.3125 0.515625 -6.59375 C 0.429688 -6.882812 0.390625 -7.117188 0.390625 -7.296875 C 0.390625 -7.617188 0.546875 -7.804688 0.859375 -7.859375 C 1.015625 -7.898438 1.171875 -7.9375 1.328125 -7.96875 C 1.492188 -8 1.578125 -8.015625 1.578125 -8.015625 C 1.796875 -8.054688 1.945312 -8.117188 2.03125 -8.203125 C 2.125 -8.296875 2.207031 -8.429688 2.28125 -8.609375 C 2.675781 -9.378906 3.113281 -10.285156 3.59375 -11.328125 C 4.082031 -12.378906 4.582031 -13.4375 5.09375 -14.5 C 5.613281 -15.570312 6.097656 -16.53125 6.546875 -17.375 C 7.003906 -18.226562 7.40625 -18.851562 7.75 -19.25 C 7.90625 -19.4375 8.101562 -19.53125 8.34375 -19.53125 C 8.5 -19.53125 8.6875 -19.492188 8.90625 -19.421875 C 9.125 -19.347656 9.269531 -19.3125 9.34375 -19.3125 C 9.644531 -19.3125 9.8125 -19.441406 9.84375 -19.703125 C 9.882812 -19.960938 10.015625 -20.09375 10.234375 -20.09375 C 10.367188 -20.09375 10.648438 -20.023438 11.078125 -19.890625 C 11.503906 -19.765625 11.929688 -19.625 12.359375 -19.46875 C 12.785156 -19.3125 13.078125 -19.191406 13.234375 -19.109375 C 13.566406 -18.953125 13.765625 -18.6875 13.828125 -18.3125 C 13.910156 -17.894531 13.976562 -17.289062 14.03125 -16.5 C 14.09375 -15.707031 14.144531 -14.796875 14.1875 -13.765625 C 14.226562 -12.734375 14.253906 -11.648438 14.265625 -10.515625 C 14.285156 -9.378906 14.296875 -8.257812 14.296875 -7.15625 C 14.296875 -5.75 14.273438 -4.445312 14.234375 -3.25 C 14.203125 -2.050781 14.144531 -1.113281 14.0625 -0.4375 C 14.019531 -0.144531 13.820312 0 13.46875 0 C 13.3125 0 13.007812 -0.0234375 12.5625 -0.078125 C 12.113281 -0.140625 11.671875 -0.210938 11.234375 -0.296875 C 10.804688 -0.378906 10.503906 -0.445312 10.328125 -0.5 C 10.003906 -0.601562 9.84375 -0.863281 9.84375 -1.28125 C 9.84375 -1.507812 9.851562 -1.859375 9.875 -2.328125 C 9.894531 -2.796875 9.910156 -3.25 9.921875 -3.6875 C 9.929688 -4.132812 9.9375 -4.4375 9.9375 -4.59375 C 9.9375 -4.894531 9.78125 -5.046875 9.46875 -5.046875 C 9.03125 -5.046875 8.535156 -5.035156 7.984375 -5.015625 C 7.429688 -4.992188 6.929688 -4.972656 6.484375 -4.953125 C 6.035156 -4.929688 5.753906 -4.910156 5.640625 -4.890625 C 5.335938 -4.867188 5.109375 -4.691406 4.953125 -4.359375 C 4.679688 -3.742188 4.414062 -3.070312 4.15625 -2.34375 C 3.894531 -1.613281 3.65625 -0.988281 3.4375 -0.46875 C 3.320312 -0.238281 3.144531 -0.125 2.90625 -0.125 C 2.75 -0.125 2.484375 -0.195312 2.109375 -0.34375 C 1.734375 -0.488281 1.359375 -0.65625 0.984375 -0.84375 C 0.617188 -1.03125 0.359375 -1.175781 0.203125 -1.28125 C -0.0234375 -1.457031 -0.140625 -1.65625 -0.140625 -1.875 C -0.140625 -1.945312 -0.132812 -2.003906 -0.125 -2.046875 C -0.125 -2.085938 -0.125 -2.109375 -0.125 -2.109375 Z M 6.765625 -9.015625 C 6.765625 -9.015625 6.753906 -8.992188 6.734375 -8.953125 C 6.710938 -8.921875 6.703125 -8.882812 6.703125 -8.84375 C 6.703125 -8.6875 6.84375 -8.609375 7.125 -8.609375 C 7.5 -8.609375 7.929688 -8.613281 8.421875 -8.625 C 8.921875 -8.632812 9.269531 -8.640625 9.46875 -8.640625 C 9.78125 -8.640625 9.96875 -8.828125 10.03125 -9.203125 C 10.050781 -9.535156 10.0625 -9.867188 10.0625 -10.203125 C 10.0625 -10.546875 10.0625 -10.882812 10.0625 -11.21875 C 10.0625 -12.03125 10.050781 -12.804688 10.03125 -13.546875 C 10.007812 -14.285156 9.988281 -14.894531 9.96875 -15.375 C 9.96875 -15.550781 9.925781 -15.640625 9.84375 -15.640625 C 9.789062 -15.640625 9.734375 -15.578125 9.671875 -15.453125 C 9.296875 -14.660156 8.859375 -13.703125 8.359375 -12.578125 C 7.867188 -11.453125 7.335938 -10.265625 6.765625 -9.015625 Z M 6.765625 -9.015625 "/></g></g></g><g fill="#ffffff" fill-opacity="1"><g transform="translate(157.958671, 28.30685)"><g><path d="M 14.546875 -19.796875 C 14.703125 -19.773438 14.832031 -19.703125 14.9375 -19.578125 C 15.050781 -19.460938 15.113281 -19.328125 15.125 -19.171875 C 15.144531 -18.992188 15.160156 -18.757812 15.171875 -18.46875 C 15.179688 -18.1875 15.1875 -17.894531 15.1875 -17.59375 C 15.1875 -17.300781 15.1875 -17.03125 15.1875 -16.78125 C 15.1875 -16.53125 15.175781 -16.316406 15.15625 -16.140625 C 15.132812 -15.742188 14.898438 -15.523438 14.453125 -15.484375 C 14.273438 -15.460938 13.875 -15.4375 13.25 -15.40625 C 12.625 -15.382812 11.992188 -15.351562 11.359375 -15.3125 C 11.160156 -15.289062 11.007812 -15.226562 10.90625 -15.125 C 10.8125 -15.03125 10.75 -14.925781 10.71875 -14.8125 C 10.414062 -13.582031 10.097656 -12.179688 9.765625 -10.609375 C 9.441406 -9.035156 9.132812 -7.382812 8.84375 -5.65625 C 8.5625 -3.9375 8.320312 -2.207031 8.125 -0.46875 C 8.101562 -0.175781 7.9375 -0.03125 7.625 -0.03125 C 7.507812 -0.03125 7.238281 -0.0703125 6.8125 -0.15625 C 6.382812 -0.25 5.945312 -0.351562 5.5 -0.46875 C 5.0625 -0.59375 4.734375 -0.691406 4.515625 -0.765625 C 4.367188 -0.828125 4.25 -0.929688 4.15625 -1.078125 C 4.070312 -1.234375 4.03125 -1.378906 4.03125 -1.515625 C 4.070312 -2.398438 4.15625 -3.390625 4.28125 -4.484375 C 4.414062 -5.585938 4.585938 -6.726562 4.796875 -7.90625 C 5.003906 -9.082031 5.222656 -10.238281 5.453125 -11.375 C 5.691406 -12.507812 5.929688 -13.554688 6.171875 -14.515625 C 6.171875 -14.515625 6.175781 -14.535156 6.1875 -14.578125 C 6.195312 -14.628906 6.203125 -14.6875 6.203125 -14.75 C 6.203125 -14.988281 6.0625 -15.109375 5.78125 -15.109375 C 5.78125 -15.109375 5.644531 -15.101562 5.375 -15.09375 C 5.113281 -15.082031 4.8125 -15.066406 4.46875 -15.046875 C 4.132812 -15.023438 3.835938 -15.007812 3.578125 -15 C 3.328125 -14.988281 3.191406 -14.984375 3.171875 -14.984375 C 2.796875 -14.984375 2.585938 -15.160156 2.546875 -15.515625 C 2.472656 -15.929688 2.425781 -16.457031 2.40625 -17.09375 C 2.382812 -17.726562 2.375 -18.234375 2.375 -18.609375 C 2.375 -18.765625 2.421875 -18.910156 2.515625 -19.046875 C 2.617188 -19.179688 2.769531 -19.257812 2.96875 -19.28125 C 3.519531 -19.382812 4.296875 -19.476562 5.296875 -19.5625 C 6.296875 -19.65625 7.398438 -19.726562 8.609375 -19.78125 C 9.816406 -19.84375 10.972656 -19.875 12.078125 -19.875 C 13.128906 -19.875 13.953125 -19.847656 14.546875 -19.796875 Z M 14.546875 -19.796875 "/></g></g></g><g fill="#ffffff" fill-opacity="1"><g transform="translate(171.521858, 28.30685)"><g><path d="M 4.296875 -0.4375 C 4.265625 -0.144531 4.085938 0 3.765625 0 C 3.585938 0 3.285156 -0.046875 2.859375 -0.140625 C 2.429688 -0.242188 2.015625 -0.351562 1.609375 -0.46875 C 1.210938 -0.59375 0.953125 -0.679688 0.828125 -0.734375 C 0.492188 -0.921875 0.328125 -1.179688 0.328125 -1.515625 C 0.347656 -2.378906 0.4375 -3.457031 0.59375 -4.75 C 0.75 -6.050781 0.957031 -7.429688 1.21875 -8.890625 C 1.476562 -10.359375 1.753906 -11.789062 2.046875 -13.1875 C 2.347656 -14.582031 2.644531 -15.832031 2.9375 -16.9375 C 3.226562 -18.050781 3.492188 -18.882812 3.734375 -19.4375 C 3.878906 -19.695312 4.097656 -19.828125 4.390625 -19.828125 C 4.546875 -19.828125 4.828125 -19.773438 5.234375 -19.671875 C 5.640625 -19.578125 6.0625 -19.46875 6.5 -19.34375 C 6.9375 -19.226562 7.28125 -19.117188 7.53125 -19.015625 C 7.789062 -18.941406 7.921875 -18.742188 7.921875 -18.421875 C 7.921875 -18.378906 7.914062 -18.335938 7.90625 -18.296875 C 7.894531 -18.265625 7.890625 -18.25 7.890625 -18.25 C 7.648438 -17.570312 7.363281 -16.597656 7.03125 -15.328125 C 6.695312 -14.066406 6.351562 -12.613281 6 -10.96875 C 5.65625 -9.332031 5.332031 -7.609375 5.03125 -5.796875 C 4.738281 -3.984375 4.492188 -2.195312 4.296875 -0.4375 Z M 4.296875 -0.4375 "/></g></g></g><g fill="#ffffff" fill-opacity="1"><g transform="translate(178.051179, 28.30685)"><g><path d="M 10 -16.078125 C 9.363281 -16.078125 8.757812 -15.828125 8.1875 -15.328125 C 7.613281 -14.835938 7.101562 -14.175781 6.65625 -13.34375 C 6.21875 -12.519531 5.867188 -11.613281 5.609375 -10.625 C 5.347656 -9.632812 5.21875 -8.632812 5.21875 -7.625 C 5.21875 -6.570312 5.34375 -5.757812 5.59375 -5.1875 C 5.84375 -4.613281 6.148438 -4.21875 6.515625 -4 C 6.878906 -3.78125 7.238281 -3.671875 7.59375 -3.671875 C 8.25 -3.671875 8.851562 -3.925781 9.40625 -4.4375 C 9.957031 -4.957031 10.445312 -5.644531 10.875 -6.5 C 11.300781 -7.363281 11.625 -8.316406 11.84375 -9.359375 C 12.070312 -10.398438 12.1875 -11.453125 12.1875 -12.515625 C 12.1875 -13.742188 11.972656 -14.644531 11.546875 -15.21875 C 11.128906 -15.789062 10.613281 -16.078125 10 -16.078125 Z M 8.1875 0.0625 C 7.4375 0.0625 6.65625 -0.09375 5.84375 -0.40625 C 5.03125 -0.726562 4.28125 -1.140625 3.59375 -1.640625 C 2.914062 -2.148438 2.398438 -2.660156 2.046875 -3.171875 C 1.566406 -3.847656 1.238281 -4.613281 1.0625 -5.46875 C 0.882812 -6.332031 0.796875 -7.160156 0.796875 -7.953125 C 0.796875 -8.679688 0.894531 -9.5625 1.09375 -10.59375 C 1.289062 -11.625 1.601562 -12.675781 2.03125 -13.75 C 2.457031 -14.832031 2.992188 -15.835938 3.640625 -16.765625 C 4.296875 -17.691406 5.070312 -18.441406 5.96875 -19.015625 C 6.875 -19.585938 7.910156 -19.875 9.078125 -19.875 C 9.429688 -19.875 9.90625 -19.785156 10.5 -19.609375 C 11.09375 -19.429688 11.71875 -19.179688 12.375 -18.859375 C 13.039062 -18.546875 13.648438 -18.1875 14.203125 -17.78125 C 14.765625 -17.382812 15.191406 -16.957031 15.484375 -16.5 C 15.921875 -15.800781 16.222656 -15.054688 16.390625 -14.265625 C 16.554688 -13.472656 16.640625 -12.675781 16.640625 -11.875 C 16.640625 -11.039062 16.535156 -10.097656 16.328125 -9.046875 C 16.117188 -8.003906 15.800781 -6.945312 15.375 -5.875 C 14.957031 -4.800781 14.410156 -3.816406 13.734375 -2.921875 C 13.066406 -2.023438 12.269531 -1.300781 11.34375 -0.75 C 10.425781 -0.207031 9.375 0.0625 8.1875 0.0625 Z M 8.1875 0.0625 "/></g></g></g><g fill="#ffffff" fill-opacity="1"><g transform="translate(194.641601, 28.30685)"><g><path d="M 13.109375 -19.4375 C 13.191406 -19.695312 13.398438 -19.828125 13.734375 -19.828125 C 13.878906 -19.828125 14.15625 -19.773438 14.5625 -19.671875 C 14.976562 -19.578125 15.40625 -19.46875 15.84375 -19.34375 C 16.28125 -19.226562 16.597656 -19.128906 16.796875 -19.046875 C 17.035156 -18.972656 17.15625 -18.785156 17.15625 -18.484375 C 17.15625 -18.441406 17.148438 -18.394531 17.140625 -18.34375 C 17.128906 -18.300781 17.125 -18.28125 17.125 -18.28125 C 16.882812 -17.601562 16.597656 -16.625 16.265625 -15.34375 C 15.941406 -14.070312 15.601562 -12.617188 15.25 -10.984375 C 14.894531 -9.359375 14.5625 -7.640625 14.25 -5.828125 C 13.945312 -4.015625 13.695312 -2.226562 13.5 -0.46875 C 13.476562 -0.3125 13.40625 -0.191406 13.28125 -0.109375 C 13.164062 -0.0351562 13.03125 0 12.875 0 C 12.65625 0 12.351562 -0.0234375 11.96875 -0.078125 C 11.582031 -0.140625 11.171875 -0.210938 10.734375 -0.296875 C 10.304688 -0.390625 9.914062 -0.484375 9.5625 -0.578125 C 9.21875 -0.679688 8.96875 -0.765625 8.8125 -0.828125 C 8.632812 -0.910156 8.488281 -1.019531 8.375 -1.15625 C 8.269531 -1.289062 8.195312 -1.429688 8.15625 -1.578125 C 7.957031 -2.285156 7.765625 -3.117188 7.578125 -4.078125 C 7.390625 -5.035156 7.21875 -6.035156 7.0625 -7.078125 C 6.90625 -8.117188 6.765625 -9.085938 6.640625 -9.984375 C 6.523438 -10.878906 6.4375 -11.625 6.375 -12.21875 C 6.332031 -12.382812 6.285156 -12.46875 6.234375 -12.46875 C 6.191406 -12.46875 6.148438 -12.382812 6.109375 -12.21875 C 5.753906 -10.539062 5.40625 -8.675781 5.0625 -6.625 C 4.726562 -4.582031 4.445312 -2.53125 4.21875 -0.46875 C 4.195312 -0.332031 4.132812 -0.21875 4.03125 -0.125 C 3.9375 -0.0390625 3.828125 0 3.703125 0 C 3.503906 0 3.210938 -0.0390625 2.828125 -0.125 C 2.441406 -0.21875 2.0625 -0.320312 1.6875 -0.4375 C 1.3125 -0.5625 1.023438 -0.660156 0.828125 -0.734375 C 0.492188 -0.921875 0.328125 -1.179688 0.328125 -1.515625 C 0.347656 -2.378906 0.445312 -3.453125 0.625 -4.734375 C 0.800781 -6.023438 1.019531 -7.398438 1.28125 -8.859375 C 1.550781 -10.328125 1.832031 -11.757812 2.125 -13.15625 C 2.425781 -14.550781 2.722656 -15.796875 3.015625 -16.890625 C 3.316406 -17.992188 3.585938 -18.820312 3.828125 -19.375 C 3.941406 -19.65625 4.171875 -19.796875 4.515625 -19.796875 C 4.710938 -19.796875 5.015625 -19.757812 5.421875 -19.6875 C 5.835938 -19.613281 6.28125 -19.53125 6.75 -19.4375 C 7.21875 -19.351562 7.632812 -19.265625 8 -19.171875 C 8.363281 -19.085938 8.601562 -19.023438 8.71875 -18.984375 C 8.875 -18.929688 9.003906 -18.828125 9.109375 -18.671875 C 9.222656 -18.523438 9.289062 -18.375 9.3125 -18.21875 C 9.394531 -17.644531 9.484375 -16.929688 9.578125 -16.078125 C 9.679688 -15.234375 9.785156 -14.34375 9.890625 -13.40625 C 10.003906 -12.476562 10.101562 -11.582031 10.1875 -10.71875 C 10.28125 -9.863281 10.363281 -9.148438 10.4375 -8.578125 C 10.476562 -8.441406 10.519531 -8.375 10.5625 -8.375 C 10.625 -8.375 10.664062 -8.441406 10.6875 -8.578125 C 10.914062 -10.015625 11.171875 -11.460938 11.453125 -12.921875 C 11.742188 -14.378906 12.035156 -15.691406 12.328125 -16.859375 C 12.617188 -18.023438 12.878906 -18.882812 13.109375 -19.4375 Z M 13.109375 -19.4375 "/></g></g></g><g fill="#ffffff" fill-opacity="1"><g transform="translate(210.401022, 28.30685)"><g><path d="M 13.296875 -5.484375 C 13.296875 -4.734375 13.113281 -4.019531 12.75 -3.34375 C 12.394531 -2.675781 11.921875 -2.078125 11.328125 -1.546875 C 10.734375 -1.023438 10.066406 -0.613281 9.328125 -0.3125 C 8.585938 -0.0078125 7.832031 0.140625 7.0625 0.140625 C 6.582031 0.140625 6.03125 0.078125 5.40625 -0.046875 C 4.789062 -0.171875 4.175781 -0.363281 3.5625 -0.625 C 2.945312 -0.882812 2.398438 -1.210938 1.921875 -1.609375 C 1.453125 -2.003906 1.097656 -2.476562 0.859375 -3.03125 C 0.617188 -3.582031 0.441406 -4.253906 0.328125 -5.046875 C 0.328125 -5.046875 0.320312 -5.09375 0.3125 -5.1875 C 0.300781 -5.289062 0.296875 -5.375 0.296875 -5.4375 C 0.296875 -5.75 0.472656 -5.984375 0.828125 -6.140625 C 1.421875 -6.359375 1.976562 -6.515625 2.5 -6.609375 C 3.03125 -6.710938 3.363281 -6.773438 3.5 -6.796875 C 3.695312 -6.796875 3.832031 -6.738281 3.90625 -6.625 C 3.988281 -6.519531 4.039062 -6.414062 4.0625 -6.3125 C 4.195312 -5.820312 4.328125 -5.359375 4.453125 -4.921875 C 4.585938 -4.484375 4.804688 -4.125 5.109375 -3.84375 C 5.421875 -3.570312 5.90625 -3.4375 6.5625 -3.4375 C 7.25 -3.4375 7.804688 -3.601562 8.234375 -3.9375 C 8.660156 -4.28125 8.875 -4.640625 8.875 -5.015625 C 8.875 -5.410156 8.695312 -5.765625 8.34375 -6.078125 C 8 -6.398438 7.554688 -6.707031 7.015625 -7 C 6.472656 -7.300781 5.898438 -7.625 5.296875 -7.96875 C 4.691406 -8.3125 4.117188 -8.703125 3.578125 -9.140625 C 3.035156 -9.578125 2.585938 -10.097656 2.234375 -10.703125 C 1.890625 -11.304688 1.71875 -12.019531 1.71875 -12.84375 C 1.71875 -13.632812 1.875 -14.441406 2.1875 -15.265625 C 2.507812 -16.085938 2.953125 -16.84375 3.515625 -17.53125 C 4.078125 -18.226562 4.707031 -18.785156 5.40625 -19.203125 C 6.113281 -19.628906 6.851562 -19.84375 7.625 -19.84375 C 8.039062 -19.84375 8.550781 -19.78125 9.15625 -19.65625 C 9.757812 -19.53125 10.378906 -19.335938 11.015625 -19.078125 C 11.660156 -18.816406 12.269531 -18.507812 12.84375 -18.15625 C 13.414062 -17.800781 13.878906 -17.394531 14.234375 -16.9375 C 14.597656 -16.488281 14.78125 -15.984375 14.78125 -15.421875 C 14.78125 -15.128906 14.722656 -14.78125 14.609375 -14.375 C 14.503906 -13.96875 14.378906 -13.585938 14.234375 -13.234375 C 14.097656 -12.878906 13.972656 -12.601562 13.859375 -12.40625 C 13.753906 -12.207031 13.648438 -12.070312 13.546875 -12 C 13.453125 -11.925781 13.316406 -11.882812 13.140625 -11.875 C 13.003906 -11.851562 12.742188 -11.835938 12.359375 -11.828125 C 11.972656 -11.816406 11.59375 -11.8125 11.21875 -11.8125 C 10.84375 -11.8125 10.578125 -11.8125 10.421875 -11.8125 C 10.035156 -11.8125 9.84375 -11.9375 9.84375 -12.1875 C 9.84375 -12.269531 9.878906 -12.460938 9.953125 -12.765625 C 10.023438 -13.078125 10.09375 -13.425781 10.15625 -13.8125 C 10.226562 -14.195312 10.265625 -14.539062 10.265625 -14.84375 C 10.265625 -15.414062 10.132812 -15.8125 9.875 -16.03125 C 9.625 -16.257812 9.328125 -16.375 8.984375 -16.375 C 8.472656 -16.375 8.007812 -16.179688 7.59375 -15.796875 C 7.175781 -15.410156 6.84375 -14.960938 6.59375 -14.453125 C 6.351562 -13.953125 6.234375 -13.503906 6.234375 -13.109375 C 6.234375 -12.597656 6.398438 -12.160156 6.734375 -11.796875 C 7.066406 -11.429688 7.503906 -11.097656 8.046875 -10.796875 C 8.597656 -10.503906 9.171875 -10.203125 9.765625 -9.890625 C 10.359375 -9.585938 10.925781 -9.242188 11.46875 -8.859375 C 12.007812 -8.472656 12.445312 -8.003906 12.78125 -7.453125 C 13.125 -6.910156 13.296875 -6.253906 13.296875 -5.484375 Z M 13.296875 -5.484375 "/></g></g></g></svg>