<svg xmlns="http://www.w3.org/2000/svg" xmlns:xlink="http://www.w3.org/1999/xlink" width="132" zoomAndPan="magnify" viewBox="0 0 98.88 49.499998" height="66" preserveAspectRatio="xMidYMid meet" version="1.0"><defs><clipPath id="9af33e1109"><path d="M 0.433594 0 L 98.328125 0 L 98.328125 42 L 0.433594 42 Z M 0.433594 0 " clip-rule="nonzero"/></clipPath><clipPath id="78198ece5b"><path d="M 0.433594 6 L 98.328125 6 L 98.328125 48.261719 L 0.433594 48.261719 Z M 0.433594 6 " clip-rule="nonzero"/></clipPath></defs><g clip-path="url(#9af33e1109)"><path stroke-linecap="butt" transform="matrix(0.380846, 0, 0, 0.379867, -3.360614, -3.493419)" fill="none" stroke-linejoin="miter" d="M 36.455793 15.654298 C 41.47135 14.63626 45.358664 15.263536 48.148504 17.515561 C 49.461369 18.595298 50.333194 20.158347 50.763978 22.214991 C 51.205019 24.261351 50.97937 26.554508 50.066518 29.08418 C 49.676761 30.277033 49.020328 31.171673 48.076706 31.757816 C 47.143341 32.343959 46.179205 32.683306 45.194556 32.765571 C 44.199649 32.847837 43.307311 32.724438 42.507283 32.395375 C 41.707256 32.066313 41.276472 31.593285 41.204674 30.976292 L 40.74312 29.927403 C 39.902065 28.672851 38.466118 28.518603 36.414766 29.454375 C 34.630089 30.256466 32.865925 31.644701 31.091505 33.629361 C 29.214517 35.747704 28.004219 37.650099 27.450354 39.357113 C 26.814435 41.228659 26.506732 42.472928 26.506732 43.059071 C 26.445191 44.385606 26.906745 45.568176 27.911908 46.606781 C 29.368369 47.542554 30.824829 47.964166 32.28129 47.8819 C 33.748007 47.799634 35.050616 47.470571 36.189117 46.894711 C 37.348131 46.318851 38.281497 45.660725 39.019984 44.930617 C 39.748214 44.200508 40.117457 43.686348 40.117457 43.377851 C 40.209768 43.172187 40.312336 42.956239 40.414904 42.760858 C 40.527728 42.54491 40.620039 42.328963 40.681579 42.123299 C 40.548241 42.123299 40.579012 42.113015 40.784147 42.092449 C 40.999539 42.082166 41.050823 42.082166 40.937998 42.092449 C 40.835431 42.113015 40.896971 42.133582 41.102107 42.164431 L 41.40981 42.28783 C 39.707187 43.809746 38.066105 44.118243 36.455793 43.21332 C 35.83013 42.832841 35.276265 42.421512 34.794197 41.989617 C 34.312129 41.557722 33.860831 41.362341 33.450561 41.39319 C 32.671047 40.981862 32.496682 40.159204 32.917209 38.935501 C 33.091574 38.45219 33.409534 37.999729 33.871088 37.567834 C 34.353156 37.125655 34.958305 36.827442 35.686535 36.652627 C 39.153322 35.151278 42.363689 34.811931 45.317637 35.603739 C 46.640759 35.953368 47.553611 36.66291 48.056193 37.711799 C 48.569031 38.781253 48.784423 39.963823 48.702369 41.290358 C 48.630571 42.60661 48.353639 43.943428 47.851057 45.300813 C 47.348476 46.658197 46.804867 47.748218 46.209975 48.560592 C 45.615083 49.372966 44.784285 50.339589 43.727838 51.460459 C 42.671392 52.571047 41.348269 53.650785 39.737957 54.679106 C 35.809617 57.219061 31.6146 58.43248 27.132394 58.339932 C 20.629606 58.226816 16.793576 55.573746 15.614048 50.349872 C 15.234548 48.694274 15.060183 46.812445 15.090953 44.735236 C 15.439683 38.678421 17.244874 33.032935 20.506525 27.788494 C 22.07581 25.289673 24.168189 22.821701 26.814435 20.384578 C 28.486287 18.883229 30.363275 17.741791 32.445398 16.939701 C 33.563385 16.497522 34.896765 16.065627 36.455793 15.654298 Z M 62.159243 48.437194 C 64.169569 48.632575 65.677313 48.735407 66.661962 48.735407 C 67.656868 48.735407 69.164613 48.601725 71.174938 48.334362 C 71.800601 48.529743 72.169845 48.786823 72.262155 49.105603 C 72.37498 49.424383 72.416007 49.743162 72.37498 50.072225 C 72.333953 50.401288 72.354466 50.730351 72.426264 51.038848 C 72.498061 51.357627 72.826277 51.614708 73.410913 51.820372 C 73.728873 51.923204 73.83144 52.231701 73.708359 52.735578 C 73.585278 53.229173 73.298089 53.784466 72.836534 54.37061 C 71.698033 55.871959 70.344141 56.910564 68.785112 57.506991 C 66.272205 58.123984 64.313163 58.49418 62.887473 58.607295 C 60.528418 58.771827 57.95397 58.679278 55.174387 58.339932 C 52.107614 57.784638 50.63064 56.509519 50.743465 54.524858 C 50.743465 47.234057 52.34352 39.902124 55.54363 32.53934 C 56.579563 30.133068 57.759091 27.61368 59.082214 24.970893 C 59.359146 24.415599 59.533511 23.788323 59.574539 23.099347 C 59.625822 22.400089 59.666849 21.721396 59.707876 21.06327 C 59.738647 20.405145 59.841214 19.819001 60.015579 19.30484 C 60.189944 18.770113 60.559188 18.410201 61.113053 18.194253 C 68.344072 15.314952 74.057089 14.204365 78.262362 14.862491 C 79.718823 14.89334 80.682959 15.386935 81.15477 16.343274 C 81.626581 17.299613 81.677865 18.369068 81.318878 19.551638 C 80.949634 20.734208 80.241918 21.844795 79.185471 22.893683 C 78.118768 23.932288 76.795645 24.569847 75.19559 24.816645 C 73.144237 25.402788 71.892912 25.803833 71.441614 26.019781 C 70.569789 26.441393 69.944127 26.996687 69.55437 27.685662 C 69.072302 28.44662 68.621004 29.187012 68.200477 29.875987 C 67.790206 30.575246 67.49276 31.315638 67.318395 32.117729 L 67.11326 33.259166 C 67.77995 33.577945 68.579977 33.670494 69.533856 33.557379 C 70.487735 33.423697 71.369817 33.300299 72.190358 33.187183 C 73.000642 33.063785 73.667332 33.053501 74.159657 33.156333 C 74.672495 33.259166 74.775063 33.773327 74.477616 34.698816 C 74.190427 35.614022 73.657075 36.652627 72.867305 37.794064 C 72.08779 38.935501 70.98006 39.778725 69.55437 40.303169 C 68.651775 40.467701 68.046625 40.601382 67.708152 40.693931 C 67.379936 40.776197 67.133774 40.837896 66.959409 40.879029 C 66.713246 40.909879 66.015786 40.961295 64.877285 41.022994 C 63.236203 43.809746 62.241297 45.958938 61.892567 47.491138 C 61.759229 48.118414 61.85154 48.437194 62.159243 48.437194 Z M 82.539433 34.781082 C 83.226636 32.446792 83.790758 30.647229 84.221542 29.382393 C 84.662583 28.107274 85.093367 26.97612 85.513894 25.968365 C 85.924165 24.96061 86.395976 23.993987 86.929328 23.047931 C 87.483193 22.112159 88.067829 21.248368 88.714005 20.466844 C 89.360181 19.685319 90.047384 19.058043 90.775614 18.615865 C 91.503845 18.163403 92.273102 17.937173 93.073129 17.937173 C 93.8629 17.937173 94.703955 18.245669 95.57578 18.862662 C 96.960443 22.348673 97.811754 24.67268 98.119457 25.85525 C 98.539985 27.593113 98.919485 30.050802 99.268215 33.20775 C 99.575918 32.415942 99.934904 31.572718 100.334918 30.688361 C 100.734932 29.804005 101.124689 28.899082 101.504189 27.994159 C 102.591406 25.701001 103.258096 23.973421 103.545285 22.780568 C 104.304286 20.353729 105.883828 18.523316 108.294167 17.32018 C 110.37629 16.271291 112.325075 15.942229 114.130266 16.322708 C 114.858496 16.456389 115.371334 16.754603 115.658524 17.207064 C 115.95597 17.659526 115.95597 18.132554 115.658524 18.615865 C 115.371334 19.099176 115.268767 19.561921 115.350821 19.993816 C 115.443132 20.435994 115.514929 20.939872 115.586726 21.526015 C 115.699551 23.130197 115.412361 24.549281 114.755928 25.79355 C 114.099495 27.027536 113.412292 28.549452 112.714832 30.369582 C 112.017372 32.199994 111.319912 34.133239 110.612196 36.189882 C 109.894222 38.236243 109.176249 40.313452 108.448019 42.431795 C 107.719788 44.560421 107.001815 46.493666 106.304355 48.231529 C 104.776097 52.231701 103.524772 54.432309 102.550379 54.843638 C 101.237513 55.645729 100.263121 56.108473 99.637458 56.242155 C 98.837431 56.396404 97.709187 56.396404 96.252726 56.242155 C 95.339874 56.180456 94.56036 55.018453 93.893671 52.766428 C 93.51417 51.542725 93.175697 49.866561 92.867994 47.707085 C 92.303872 43.953711 91.924372 41.876501 91.70898 41.496022 C 90.324317 46.020638 89.339667 48.869089 88.765289 50.051659 C 88.19091 51.223945 87.760126 52.00547 87.46268 52.385949 C 87.165233 52.776711 86.816503 53.270306 86.395976 53.907865 C 85.944679 55.152134 84.867718 56.077624 83.165095 56.663767 C 81.708635 57.229344 80.385512 57.31161 79.195728 56.931131 C 77.913632 56.509519 77.534132 55.707428 78.057227 54.524858 C 78.426471 50.360155 79.934215 43.778896 82.539433 34.781082 Z M 124.920381 48.437194 C 126.930707 48.632575 128.438451 48.735407 129.423101 48.735407 C 130.418007 48.735407 131.915494 48.601725 133.936077 48.334362 C 134.561739 48.529743 134.930983 48.786823 135.023294 49.105603 C 135.136118 49.424383 135.177145 49.743162 135.125861 50.072225 C 135.095091 50.401288 135.105348 50.730351 135.177145 51.038848 C 135.259199 51.357627 135.587416 51.614708 136.172051 51.820372 C 136.490011 51.923204 136.582322 52.231701 136.469498 52.735578 C 136.346416 53.229173 136.059227 53.784466 135.597673 54.37061 C 134.459172 55.871959 133.095022 56.910564 131.535994 57.506991 C 129.033344 58.123984 127.074302 58.49418 125.648612 58.607295 C 123.289556 58.771827 120.715108 58.679278 117.935525 58.339932 C 114.868753 57.784638 113.391779 56.509519 113.504603 54.524858 C 113.504603 47.234057 115.104658 39.902124 118.304769 32.53934 C 119.340702 30.133068 120.52023 27.61368 121.843352 24.970893 C 122.120285 24.415599 122.284393 23.788323 122.335677 23.099347 C 122.386961 22.400089 122.427988 21.721396 122.458758 21.06327 C 122.499785 20.405145 122.602353 19.819001 122.776718 19.30484 C 122.951083 18.770113 123.320326 18.410201 123.874191 18.194253 C 131.10521 15.314952 136.818227 14.204365 141.023501 14.862491 C 142.479961 14.89334 143.444097 15.386935 143.915908 16.343274 C 144.377462 17.299613 144.439003 18.369068 144.06976 19.551638 C 143.710773 20.734208 143.003056 21.844795 141.936353 22.893683 C 140.879906 23.932288 139.546527 24.569847 137.956728 24.816645 C 135.905376 25.402788 134.643794 25.803833 134.202753 26.019781 C 133.320671 26.441393 132.695008 26.996687 132.315508 27.685662 C 131.83344 28.44662 131.382143 29.187012 130.961615 29.875987 C 130.551345 30.575246 130.253899 31.315638 130.079534 32.117729 L 129.874398 33.259166 C 130.530831 33.577945 131.341116 33.670494 132.294995 33.557379 C 133.248874 33.423697 134.130955 33.300299 134.951496 33.187183 C 135.761781 33.063785 136.418214 33.053501 136.920795 33.156333 C 137.433633 33.259166 137.536201 33.773327 137.238755 34.698816 C 136.951565 35.614022 136.418214 36.652627 135.618186 37.794064 C 134.838672 38.935501 133.741198 39.778725 132.315508 40.303169 C 131.412913 40.467701 130.807764 40.601382 130.469291 40.693931 C 130.141074 40.776197 129.884655 40.837896 129.720547 40.879029 C 129.474385 40.909879 128.776925 40.961295 127.638424 41.022994 C 125.997342 43.809746 125.002435 45.958938 124.653706 47.491138 C 124.520368 48.118414 124.602422 48.437194 124.920381 48.437194 Z M 150.880251 55.152134 C 150.562291 56.540369 149.485331 57.393876 147.64937 57.712655 C 145.936491 58.031435 144.326179 57.836054 142.797921 57.136795 C 141.095298 56.406687 140.346554 55.378365 140.561946 54.05183 C 140.346554 52.046603 141.403001 47.665952 143.741543 40.920162 C 147.208329 30.81176 150.685372 23.582659 154.162415 19.243141 C 155.054754 18.12227 155.834268 17.402445 156.480444 17.073382 C 157.12662 16.744319 157.865107 16.446106 158.695905 16.168459 C 159.53696 15.890812 160.398528 15.623449 161.301123 15.386935 C 163.106313 14.89334 164.819193 14.564277 166.429505 14.37918 C 168.050074 14.173515 169.506534 14.368896 170.778373 14.944756 C 172.070725 15.510333 173.075888 16.353557 173.783605 17.464145 C 174.501578 18.574732 174.942619 19.890984 175.106727 21.402617 C 175.281092 22.91425 175.240065 24.497865 174.952876 26.153463 C 174.675943 27.798778 174.173362 29.464659 173.445131 31.151106 C 172.716901 32.837554 171.793792 34.410886 170.686062 35.871103 C 168.255209 39.069183 165.403829 41.13611 162.142178 42.071882 L 162.655016 42.956239 C 163.106313 43.655498 163.660179 44.426739 164.285841 45.249397 C 164.942274 46.082337 165.58845 46.935844 166.22437 47.809917 C 166.870546 48.673708 167.455181 49.547781 167.968019 50.421855 C 168.501371 51.285645 168.880871 52.098019 169.116777 52.858977 C 169.670642 54.565991 169.239858 55.799977 167.814168 56.560935 C 166.675667 57.260194 165.762815 57.435008 165.106382 57.085379 C 164.819193 56.910564 164.54226 56.684334 164.265328 56.427253 C 163.998652 56.170173 163.608895 55.954225 163.11657 55.779411 C 161.075474 56.375837 159.516446 55.851393 158.439486 54.226645 C 157.783053 53.177757 157.270215 52.231701 156.921485 51.357627 C 156.572755 50.483554 156.275309 49.753445 156.029146 49.157019 C 155.41374 47.8819 154.695767 46.761029 153.895739 45.825257 C 153.516239 46.761029 153.075198 47.964166 152.59313 49.424383 C 151.998238 51.265078 151.341805 53.177757 150.613575 55.152134 Z M 161.403691 24.816645 C 160.747258 26.307711 160.29596 27.356599 160.049798 27.942743 C 159.56773 29.115029 159.024121 30.420998 158.439486 31.850365 C 158.326661 32.611323 158.234351 33.156333 158.17281 33.46483 L 158.911297 32.734722 L 159.783122 32.323393 C 160.408784 31.973764 160.99342 31.665267 161.506258 31.397903 C 162.029353 31.109973 162.501164 30.760344 162.921692 30.349015 C 163.711462 29.546924 164.408922 28.230673 165.003815 26.43111 C 165.003815 26.08148 165.065355 25.731851 165.17818 25.392505 C 165.301261 25.053159 165.383315 24.703529 165.424342 24.3539 C 165.567937 23.582659 165.249977 23.037648 164.48072 22.739435 C 163.78326 22.657169 162.921692 23.233029 161.875502 24.456732 C 161.66011 24.693246 161.506258 24.816645 161.403691 24.816645 Z M 202.215354 19.65447 C 203.394882 20.281746 204.143626 21.207236 204.461585 22.420655 C 203.764126 26.307711 203.138463 30.184484 202.574341 34.030407 C 202.020476 37.866047 201.487124 41.07441 200.964029 43.665781 C 200.440934 46.246869 200.081947 48.190397 199.897326 49.475799 C 199.702447 50.750918 199.487055 52.046603 199.251149 53.332005 L 198.93319 54.432309 C 198.861392 54.812788 198.799852 55.162418 198.717798 55.501764 C 198.646 55.830827 198.58446 56.180456 198.512662 56.560935 C 197.548527 57.671522 196.235661 58.226816 194.563808 58.226816 C 192.779131 58.226816 191.373955 57.784638 190.327765 56.869432 C 189.702102 56.38612 189.599535 55.368082 190.030319 53.805033 C 190.194427 53.177757 190.307251 52.365383 190.358535 51.388477 C 190.409819 50.391005 190.47136 49.568348 190.543157 48.910222 L 190.543157 48.797106 C 189.507224 49.187869 188.563601 49.681463 187.722547 50.288173 C 186.891749 50.894883 186.368654 51.275362 186.153262 51.439893 C 185.948127 51.583858 185.681451 51.707257 185.332721 51.789522 C 184.983991 51.871788 184.666031 51.943771 184.389099 51.97462 C 183.722409 52.015753 183.271111 52.118585 183.035206 52.2934 C 181.02488 55.902809 179.219689 57.91832 177.619634 58.339932 C 176.604215 58.648428 175.599052 58.720411 174.593889 58.566162 C 173.578469 58.411914 172.778442 57.815487 172.193806 56.766599 C 171.086076 55.727994 171.363008 52.879543 173.024604 48.231529 C 173.927199 45.753274 175.219552 42.801991 176.901661 39.34683 C 178.594027 35.881386 180.224852 32.868403 181.78388 30.287316 C 185.158356 24.765229 188.861048 20.106931 192.891956 16.322708 C 193.558645 16.045061 194.266362 15.715998 195.035619 15.356085 C 195.79462 14.985889 196.543364 14.790508 197.292108 14.759659 C 198.040851 14.718526 198.810109 14.811075 199.610136 15.016739 C 200.410164 15.222403 201.08711 15.5309 201.651232 15.952512 C 202.933328 16.929417 203.128206 18.163403 202.215354 19.65447 Z M 191.066252 33.361998 C 190.338022 35.449491 189.609791 37.372452 188.871304 39.130882 C 188.132817 40.889313 187.517411 42.421512 187.004573 43.737764 L 191.127792 43.583515 C 191.394468 41.362341 191.702171 39.161732 192.050901 36.971407 C 192.399631 34.781082 192.727848 32.590757 193.045807 30.400431 Z M 189.661075 43.78918 C 190.143143 43.78918 190.635468 43.748047 191.127792 43.686348 L 191.127792 43.634931 C 190.666238 43.665781 190.245711 43.706914 189.855954 43.737764 C 189.476453 43.768613 189.414913 43.78918 189.661075 43.78918 Z M 222.257071 41.639987 C 221.303192 44.354757 220.349313 46.976977 219.364663 49.475799 C 218.390271 51.984904 217.579987 53.877015 216.93381 55.172701 C 216.297891 56.488953 215.733769 57.373309 215.241444 57.866904 C 214.759376 58.360498 214.267052 58.689561 213.754214 58.854092 C 213.251632 59.028907 212.749051 59.10089 212.246469 59.059757 C 211.754145 59.028907 211.241306 58.987774 210.707955 58.956925 C 207.795034 58.504463 206.892439 56.406687 208.000169 52.653313 C 208.728399 49.660897 209.323292 47.223774 209.774589 45.331662 C 210.225887 43.43955 210.605387 41.876501 210.892576 40.642515 C 211.190023 39.398246 211.436185 38.380208 211.64132 37.567834 C 211.856712 36.745176 212.082361 35.943085 212.328523 35.140994 C 212.574686 34.338903 212.882389 33.43398 213.241375 32.436508 C 213.610619 31.428753 214.08243 30.081652 214.667066 28.415771 C 213.3542 28.590585 212.174672 28.44662 211.138739 27.994159 C 209.610481 27.336033 208.984818 25.906666 209.261751 23.71634 C 209.395089 22.718868 209.928441 21.783096 210.861806 20.909022 C 211.354131 20.456561 211.938766 19.97325 212.595199 19.448805 C 213.938835 18.379351 216.636364 17.227631 220.677529 16.003928 C 224.841775 14.759659 228.421386 14.163232 231.406104 14.235215 C 232.206132 14.101533 233.03693 14.204365 233.888241 14.533428 C 234.739553 14.852208 235.426756 15.294386 235.939594 15.84968 C 236.462689 16.404973 236.739621 17.011683 236.749878 17.669809 C 236.770392 18.327935 236.339608 18.924361 235.47804 19.448805 C 235.067769 19.726452 234.770323 20.178914 234.585701 20.826757 C 234.411336 21.474599 234.226714 22.153291 234.021579 22.862833 C 233.816444 23.572375 233.508741 24.230501 233.09847 24.826928 C 232.698457 25.413071 232.072794 25.752417 231.200969 25.85525 C 230.749671 26.102047 230.113752 26.276861 229.293211 26.389977 C 228.482927 26.492809 227.939318 26.564792 227.682899 26.616208 C 227.42648 26.667624 227.282885 26.760173 227.241858 26.893854 C 226.616196 28.744833 225.867452 30.976292 224.995627 33.608795 C 224.123802 36.231015 223.21095 38.904652 222.257071 41.639987 Z M 215.190161 27.83991 C 215.12862 27.83991 215.087593 27.850194 215.087593 27.87076 C 215.087593 27.881043 215.12862 27.891326 215.190161 27.891326 Z M 243.344977 48.437194 C 245.355303 48.632575 246.863047 48.735407 247.857954 48.735407 C 248.85286 48.735407 250.350347 48.601725 252.360673 48.334362 C 252.986336 48.529743 253.355579 48.786823 253.458147 49.105603 C 253.560714 49.424383 253.601741 49.743162 253.560714 50.072225 C 253.519687 50.401288 253.540201 50.730351 253.601741 51.038848 C 253.683795 51.357627 254.012012 51.614708 254.596647 51.820372 C 254.914607 51.923204 255.006918 52.231701 254.894094 52.735578 C 254.771012 53.229173 254.483823 53.784466 254.032525 54.37061 C 252.883768 55.871959 251.529875 56.910564 249.970847 57.506991 C 247.468197 58.123984 245.498898 58.49418 244.073208 58.607295 C 241.714152 58.771827 239.149961 58.679278 236.360121 58.339932 C 233.303606 57.784638 231.826632 56.509519 231.929199 54.524858 C 231.929199 47.234057 233.529254 39.902124 236.729365 32.53934 C 237.765298 30.133068 238.944826 27.61368 240.267948 24.970893 C 240.555138 24.415599 240.708989 23.788323 240.77053 23.099347 C 240.821814 22.400089 240.862841 21.721396 240.893611 21.06327 C 240.924381 20.405145 241.026949 19.819001 241.201314 19.30484 C 241.375679 18.770113 241.744922 18.410201 242.309044 18.194253 C 249.540063 15.314952 255.25308 14.204365 259.448097 14.862491 C 260.904557 14.89334 261.868693 15.386935 262.340504 16.343274 C 262.812315 17.299613 262.863599 18.369068 262.504612 19.551638 C 262.135369 20.734208 261.427652 21.844795 260.360949 22.893683 C 259.304502 23.932288 257.971123 24.569847 256.381324 24.816645 C 254.329972 25.402788 253.078646 25.803833 252.627349 26.019781 C 251.755524 26.441393 251.129861 26.996687 250.750361 27.685662 C 250.258036 28.44662 249.816995 29.187012 249.396468 29.875987 C 248.975941 30.575246 248.678495 31.315638 248.50413 32.117729 L 248.298994 33.259166 C 248.965684 33.577945 249.765712 33.670494 250.719591 33.557379 C 251.67347 33.423697 252.565808 33.300299 253.376093 33.187183 C 254.196634 33.063785 254.853067 33.053501 255.345391 33.156333 C 255.858229 33.259166 255.971054 33.773327 255.673608 34.698816 C 255.386418 35.614022 254.84281 36.652627 254.053039 37.794064 C 253.273525 38.935501 252.165794 39.778725 250.750361 40.303169 C 249.847766 40.467701 249.23236 40.601382 248.893887 40.693931 C 248.56567 40.776197 248.319508 40.837896 248.145143 40.879029 C 247.898981 40.909879 247.201521 40.961295 246.06302 41.022994 C 244.421938 43.809746 243.437288 45.958938 243.078302 47.491138 C 242.944964 48.118414 243.037275 48.437194 243.344977 48.437194 Z M 243.344977 48.437194 " stroke="#000000" stroke-width="10.687" stroke-opacity="1" stroke-miterlimit="4"/></g><g clip-path="url(#78198ece5b)"><path stroke-linecap="butt" transform="matrix(0.380846, 0, 0, 0.379867, -3.360614, -3.493419)" fill="none" stroke-linejoin="miter" d="M 30.527383 125.283673 L 30.15814 91.606138 C 30.15814 90.773197 30.496613 90.053372 31.173559 89.446662 C 31.860762 88.829669 32.63002 88.408058 33.491588 88.171544 C 34.363413 87.924746 35.173697 87.883614 35.942954 88.068711 C 36.712212 88.243526 37.19428 88.685704 37.399415 89.415813 C 38.066105 90.732065 38.517402 92.552194 38.763565 94.886484 C 39.214862 99.236285 39.440511 102.989659 39.440511 106.146607 C 39.789241 106.7019 40.220025 106.958981 40.74312 106.928131 C 42.240607 103.277589 43.891946 99.771012 45.697137 96.4084 C 47.502327 93.025222 48.671598 90.865746 49.184437 89.91969 C 49.707532 88.953068 50.333194 88.284659 51.061424 87.90418 C 51.789655 87.523701 52.569169 87.276904 53.410223 87.174072 C 55.215414 86.968407 56.918037 87.276904 58.518092 88.109844 C 59.72839 88.531456 60.446363 89.240998 60.651499 90.248753 C 61.451526 91.852935 60.907918 93.693631 59.041187 95.781124 C 56.846239 99.246568 54.641035 103.092491 52.425574 107.298327 C 48.179274 115.391219 45.481745 120.378579 44.332987 122.250124 C 43.194487 124.131953 42.353432 125.458488 41.830337 126.250296 C 41.317499 127.03182 40.722606 127.679663 40.066174 128.193824 C 38.886646 129.139879 37.460956 129.520359 35.789103 129.345544 C 32.865925 129.242712 31.163302 128.317222 30.681235 126.579358 C 30.578667 126.096047 30.527383 125.664152 30.527383 125.283673 Z M 65.133705 92.480211 C 67.328652 89.991673 69.759505 88.428624 72.43652 87.801348 C 74.272481 87.348886 76.016131 87.420869 77.657213 88.007012 C 78.939309 86.649628 80.600905 86.166316 82.652257 86.557079 C 84.529245 86.896425 86.1293 87.955596 87.452423 89.724309 C 87.52422 89.971107 87.667815 90.341302 87.883207 90.824614 C 88.119112 91.318208 88.334505 91.852935 88.549897 92.439079 C 90.078154 95.986788 90.190979 100.634802 88.898627 106.403687 C 87.308828 113.571089 84.477961 119.638187 80.416283 124.604981 C 79.154701 126.13718 77.749524 127.402016 76.190496 128.409771 C 73.687846 130.322449 70.692871 131.175956 67.215828 130.960009 C 65.061907 130.857177 63.256717 130.312166 61.800256 129.345544 C 55.994928 126.45596 54.097427 120.450561 56.118009 111.308781 C 57.779605 103.802033 60.784837 97.518988 65.133705 92.480211 Z M 65.759367 120.162631 L 65.71834 120.481411 L 65.820908 121.057271 C 66.015786 122.137009 66.364516 122.959666 66.846584 123.535526 C 67.338909 124.111386 67.749179 124.461016 68.056882 124.604981 C 68.405612 124.327334 68.754342 124.05997 69.103072 123.813173 C 69.451802 123.576659 69.759505 123.278446 70.046694 122.9391 C 72.40575 120.008383 74.241711 116.183026 75.554577 111.46303 C 76.877699 106.73275 77.359767 102.362383 77.021294 98.321079 C 75.667401 100.058942 74.241711 102.06417 72.744223 104.326477 C 71.246736 106.578502 70.067208 108.511747 69.195383 110.115928 C 67.226084 113.82817 66.077327 117.180498 65.759367 120.162631 Z M 107.042842 89.261565 L 107.042842 89.364397 C 107.042842 89.40553 107.053099 89.415813 107.073612 89.415813 C 107.083869 89.415813 107.094126 89.436379 107.094126 89.467229 L 107.094126 89.570061 L 107.14541 89.570061 L 107.463369 90.403002 C 107.812099 91.410757 106.909504 94.536855 104.755584 99.791579 C 102.458068 105.375365 101.401622 109.745733 101.575987 112.87183 C 101.955487 115.103289 103.811961 113.303726 107.14541 107.503991 C 109.781398 102.989659 112.345589 98.033149 114.807212 92.655026 C 115.125172 91.924918 115.453388 91.16396 115.802118 90.382435 C 116.150848 89.600911 116.581632 88.942785 117.094471 88.418341 C 118.253485 87.174072 119.648405 86.845009 121.268973 87.431152 C 121.833095 86.773026 122.489528 86.320565 123.238272 86.084051 C 123.987016 85.837253 124.694733 85.785837 125.371679 85.929802 C 126.048625 86.063484 126.633261 86.392547 127.115329 86.896425 C 127.607654 87.400302 127.864073 88.068711 127.894843 88.891369 C 128.007667 89.590628 127.648681 91.235942 126.817883 93.847879 C 126.007598 96.449533 125.258855 98.835239 124.561395 100.984432 C 123.863935 103.143907 123.145961 105.488481 122.417731 108.028435 C 120.643311 114.044117 119.238134 119.699886 118.191944 125.01631 C 118.161174 126.126897 117.679106 127.052386 116.755997 127.772212 C 115.843145 128.50232 114.817469 128.985631 113.689225 129.211862 C 112.560981 129.438093 111.494277 129.39696 110.478858 129.088463 C 109.26856 128.738834 108.63264 127.875044 108.560843 126.476526 C 108.560843 126.096047 108.540329 125.715568 108.509559 125.335089 C 108.581356 126.517659 107.730045 127.515131 105.955625 128.348072 C 105.473557 128.594869 105.012003 128.8211 104.591475 129.037047 C 102.160622 129.767156 99.606688 129.612907 96.929673 128.564019 C 95.678347 128.039575 94.56036 127.340317 93.565454 126.45596 C 92.580805 125.571603 91.893602 124.522715 91.503845 123.299012 C 90.293546 119.401673 90.519195 114.290914 92.191048 107.977019 C 92.878251 105.26225 93.729562 102.619463 94.734725 100.038376 C 95.750145 97.477855 96.488632 95.616593 96.960443 94.464872 C 97.421997 93.323435 97.770727 92.531628 97.975863 92.099732 C 98.191255 91.667837 98.406647 91.235942 98.652809 90.81433 C 99.237445 89.642044 99.750283 88.839953 100.160553 88.418341 L 100.786216 87.852764 C 100.86827 87.780781 100.929811 87.739648 101.001608 87.729365 C 101.063149 87.708799 101.155459 87.667666 101.258027 87.5854 C 101.53496 87.420869 101.832406 87.29747 102.150365 87.225488 L 102.868339 87.060956 L 103.186299 87.060956 C 104.201718 86.927274 105.073543 87.143222 105.801773 87.698516 C 105.801773 87.729365 105.832544 87.749932 105.904341 87.749932 L 106.324868 88.109844 L 106.47872 88.274376 L 106.622315 88.469757 C 106.622315 88.51089 106.632571 88.531456 106.653085 88.531456 C 106.663342 88.531456 106.683855 88.541739 106.683855 88.572589 L 106.724882 88.624005 L 106.724882 88.737121 C 106.765909 88.737121 106.776166 88.757687 106.776166 88.79882 L 106.776166 88.850236 C 106.817193 88.881086 106.85822 88.891369 106.88899 88.891369 L 106.88899 88.942785 C 106.88899 88.973635 106.899247 88.994201 106.919761 88.994201 C 106.940274 88.994201 106.950531 89.004484 106.950531 89.025051 C 106.950531 89.045617 106.960788 89.066183 106.991558 89.097033 L 106.991558 89.148449 C 106.991558 89.179299 107.012072 89.220432 107.042842 89.261565 Z M 108.458275 123.977705 L 108.458275 123.813173 C 108.417248 123.854306 108.396735 123.998271 108.396735 124.245068 C 108.396735 124.131953 108.417248 124.070254 108.458275 124.039404 Z M 149.577642 101.035848 C 149.577642 99.997243 149.208398 99.472799 148.480168 99.472799 C 148.203235 99.472799 147.875019 99.544781 147.495519 99.688746 C 147.116018 99.822428 146.746775 99.945827 146.398045 100.038376 C 145.115949 100.737635 144.121043 101.498593 143.40307 102.32125 C 142.695353 103.133624 141.97738 104.04883 141.24915 105.056586 C 140.510663 106.064341 139.885 107.133795 139.361905 108.295799 C 138.83881 109.437236 138.438796 110.506691 138.161864 111.514446 C 137.156701 115.23697 137.536201 117.735792 139.310621 119.021194 C 140.038851 119.545638 140.808109 119.802719 141.62865 119.782152 C 142.449191 119.761586 143.105624 119.607337 143.608205 119.288558 C 144.121043 118.980061 144.613368 118.671565 145.095436 118.393918 C 145.577504 118.116271 146.151883 117.92089 146.787802 117.797491 C 147.433978 117.684376 148.234006 117.766642 149.187885 118.064855 C 150.141764 118.352785 150.654602 118.743547 150.726399 119.237142 C 150.798197 119.720453 150.798197 120.22433 150.726399 120.748775 C 150.654602 121.273219 150.644345 121.735963 150.695629 122.147292 C 150.746913 122.568904 151.126413 122.825984 151.823873 122.9391 C 152.480306 123.77204 152.070035 124.769512 150.572548 125.962365 C 150.193048 126.270862 149.823804 126.569075 149.475074 126.846722 C 146.490356 128.7594 143.310759 129.818572 139.926027 130.024236 C 137.813134 130.168201 135.556646 129.777439 133.156563 128.872516 C 129.587209 127.515131 127.566626 124.481582 127.115329 119.751303 C 126.520437 115.380935 127.074302 110.846037 128.776925 106.146607 C 130.202615 102.187568 132.366792 98.526743 135.248943 95.143565 C 137.854161 92.0586 140.418352 90.043089 142.962029 89.097033 C 145.977518 87.533984 149.249425 86.927274 152.757239 87.276904 C 156.480444 87.760215 158.911297 89.34383 160.049798 92.02775 C 161.208812 94.701386 161.013934 97.90975 159.485676 101.663124 C 158.962581 102.989659 157.977931 104.028264 156.511214 104.789222 C 155.259889 105.488481 153.905996 105.83811 152.449536 105.83811 C 150.982818 105.83811 150.049453 105.375365 149.628926 104.460159 C 149.208398 103.53467 149.198142 102.393232 149.577642 101.035848 Z M 169.80398 115.627733 L 167.30133 121.993044 C 166.9526 122.969949 166.63464 123.977705 166.357708 125.01631 C 166.091032 126.054914 165.793586 126.970121 165.475626 127.751645 C 165.167923 128.543453 164.685855 129.160446 164.039679 129.612907 C 163.40376 130.065369 162.685786 130.394432 161.875502 130.620663 C 161.075474 130.83661 160.254933 130.939442 159.393365 130.908593 C 158.55231 130.86746 157.79331 130.713212 157.136877 130.435565 C 155.639389 129.736306 155.116294 128.594869 155.577849 127.00097 C 157.167647 119.977533 158.675391 114.352614 160.080568 110.115928 C 161.496001 105.86896 162.655016 102.537198 163.567868 100.110358 C 164.490977 97.673236 165.455112 95.092149 166.470532 92.387663 C 166.5731 91.369624 166.98337 90.474984 167.7116 89.672893 C 168.450087 88.870802 169.311656 88.22296 170.296305 87.698516 C 171.291211 87.174072 172.327144 86.793593 173.404104 86.577645 C 174.481065 86.351414 175.434944 86.320565 176.275998 86.505662 C 177.106796 86.670194 177.711945 87.050673 178.111959 87.6471 C 178.511973 88.233243 178.542743 89.08675 178.194013 90.197337 C 176.942688 93.395418 176.060606 95.647442 175.527254 96.973977 C 175.014416 98.290229 174.542605 99.472799 174.132335 100.511404 L 172.665617 103.966565 C 173.404104 103.997414 174.316956 103.894582 175.434944 103.647785 C 177.445269 103.195323 178.911987 103.041075 179.804325 103.174757 C 179.804325 103.010225 179.896636 102.712012 180.071001 102.280117 C 181.045393 98.053715 182.142867 94.156376 183.363422 90.608666 C 184.22499 87.698516 186.460965 86.166316 190.081602 86.032634 C 191.507293 86.032634 192.584253 86.371981 193.312483 87.060956 C 194.112511 87.791065 194.215078 88.788537 193.630443 90.043089 C 190.430332 99.010054 188.163588 106.084907 186.850722 111.257365 C 185.353234 117.231914 184.378842 121.273219 183.907031 123.360712 C 183.435219 125.437921 183.035206 126.671907 182.686476 127.052386 C 182.337746 127.432865 181.978759 127.700229 181.609515 127.854477 C 181.250529 128.008726 180.901799 128.162974 180.542812 128.296656 C 180.204339 128.440621 179.917149 128.79025 179.712014 129.345544 L 179.558163 129.345544 C 179.270973 129.97282 178.665824 130.456131 177.722202 130.805761 C 176.788836 131.15539 175.845214 131.278789 174.881078 131.18624 C 173.937456 131.103974 173.137428 130.754345 172.491252 130.147635 C 171.845076 129.540925 171.680968 128.615435 171.998928 127.371166 C 172.337401 125.386505 172.91178 123.257879 173.711807 120.985289 C 174.511835 118.712698 175.137497 116.923418 175.609309 115.648299 C 176.08112 114.362897 176.481134 113.159761 176.788836 112.028607 C 176.511904 112.172572 176.234971 112.285687 175.978552 112.35767 C 175.722133 112.419369 175.404173 112.553051 175.00416 112.748432 C 174.624659 112.93353 174.234902 113.098061 173.845145 113.242026 C 173.445131 113.375708 173.045118 113.50939 172.665617 113.643072 C 171.701482 114.033834 170.901454 114.414313 170.275791 114.805075 Z M 175.701619 112.152005 C 175.73239 112.152005 175.906755 112.090306 176.214458 111.977191 C 176.009322 112.059456 175.834957 112.110872 175.701619 112.152005 Z M 201.076853 120.429995 C 203.097436 120.635659 204.594923 120.738491 205.58983 120.738491 C 206.584736 120.738491 208.082223 120.60481 210.092549 120.327163 C 210.718211 120.532827 211.087455 120.789907 211.190023 121.108687 C 211.29259 121.417184 211.333617 121.746247 211.29259 122.07531 C 211.251563 122.404372 211.272077 122.723152 211.343874 123.041932 C 211.415671 123.350428 211.743888 123.617792 212.33878 123.813173 C 212.646483 123.916005 212.738794 124.224502 212.62597 124.728379 C 212.502888 125.232257 212.215699 125.777268 211.754145 126.373694 C 210.615644 127.875044 209.261751 128.913649 207.702723 129.510075 C 205.200072 130.127068 203.230774 130.486981 201.805084 130.600096 C 199.446028 130.774911 196.881837 130.682362 194.102254 130.332733 C 191.035482 129.787722 189.558508 128.512603 189.671332 126.527942 C 189.671332 119.226858 191.26113 111.905208 194.461241 104.532142 C 195.507431 102.136152 196.676702 99.616764 197.999824 96.973977 C 198.287014 96.418684 198.451122 95.791407 198.502406 95.092149 C 198.553689 94.403173 198.594717 93.724481 198.625487 93.066355 C 198.666514 92.408229 198.758825 91.822086 198.93319 91.297642 C 199.107555 90.773197 199.476798 90.403002 200.04092 90.197337 C 207.271939 87.307753 212.984956 86.197166 217.179973 86.865575 C 218.64669 86.896425 219.610826 87.390019 220.07238 88.346358 C 220.544191 89.292414 220.605732 90.361869 220.236488 91.554722 C 219.877502 92.737292 219.159528 93.847879 218.092825 94.886484 C 217.036378 95.935372 215.713255 96.572932 214.1132 96.809446 C 212.061848 97.405872 210.810522 97.806918 210.359225 98.022865 C 209.4874 98.434194 208.861737 98.989488 208.482237 99.688746 C 207.989912 100.449705 207.548871 101.179813 207.128344 101.879072 C 206.718074 102.568047 206.410371 103.318722 206.236006 104.120813 L 206.03087 105.26225 C 206.69756 105.570746 207.497588 105.673579 208.451467 105.55018 C 209.415602 105.426781 210.297684 105.303383 211.118225 105.190267 C 211.92851 105.056586 212.584942 105.046302 213.087524 105.159418 C 213.590105 105.26225 213.70293 105.776411 213.405484 106.7019 C 213.118294 107.617107 212.574686 108.645428 211.784915 109.786865 C 211.005401 110.938586 209.907927 111.771526 208.482237 112.29597 C 207.579642 112.470785 206.964236 112.604467 206.625763 112.697016 C 206.297546 112.779281 206.051384 112.840981 205.877019 112.87183 C 205.630857 112.912963 204.933397 112.954096 203.794896 113.026079 C 202.153814 115.81283 201.169164 117.962023 200.810178 119.483939 C 200.67684 120.121498 200.76915 120.429995 201.076853 120.429995 Z M 227.036723 127.155219 C 226.72902 128.543453 225.641803 129.39696 223.805842 129.705456 C 222.103219 130.024236 220.482651 129.839138 218.954393 129.139879 C 217.25177 128.409771 216.503026 127.381449 216.718418 126.054914 C 216.503026 124.049687 217.56973 119.669037 219.898015 112.923247 C 223.375058 102.804561 226.841844 95.57546 230.329144 91.235942 C 231.221483 90.125355 232.000997 89.40553 232.636916 89.076467 C 233.283092 88.737121 234.021579 88.438907 234.852377 88.171544 C 235.693432 87.883614 236.565257 87.626533 237.467852 87.379736 C 239.273042 86.896425 240.975665 86.567362 242.596234 86.371981 C 244.216802 86.1766 245.663006 86.371981 246.945102 86.947841 C 248.237454 87.513418 249.23236 88.356641 249.950333 89.467229 C 250.65805 90.577816 251.099091 91.894068 251.273456 93.395418 C 251.447821 94.917334 251.396537 96.490666 251.119604 98.146264 C 250.842672 99.791579 250.34009 101.45746 249.601603 103.143907 C 248.873373 104.840638 247.950264 106.41397 246.842534 107.863904 C 244.421938 111.072267 241.570557 113.128911 238.29865 114.074967 L 238.811488 114.959323 C 239.273042 115.658582 239.816651 116.41954 240.45257 117.252481 C 241.098746 118.085421 241.744922 118.928645 242.391098 119.813002 C 243.037275 120.676792 243.611653 121.540582 244.134748 122.414656 C 244.657843 123.278446 245.037343 124.101103 245.273249 124.862061 C 245.837371 126.569075 245.406587 127.803061 243.980897 128.564019 C 242.832139 129.263278 241.929544 129.438093 241.273111 129.088463 C 240.985922 128.903366 240.708989 128.687418 240.432056 128.430338 C 240.155124 128.173257 239.775624 127.95731 239.283299 127.772212 C 237.242203 128.368638 235.683175 127.854477 234.595958 126.229729 C 233.939525 125.180841 233.426687 124.224502 233.088214 123.360712 C 232.739484 122.486638 232.442037 121.75653 232.195875 121.160103 C 231.580469 119.874701 230.862496 118.764114 230.062468 117.818058 C 229.672711 118.764114 229.241927 119.96725 228.759859 121.427467 C 228.164967 123.268163 227.498277 125.180841 226.770047 127.155219 Z M 237.560163 96.809446 C 236.90373 98.310795 236.452432 99.359684 236.216527 99.945827 C 235.724202 101.118114 235.19085 102.424082 234.595958 103.853449 C 234.49339 104.614407 234.401079 105.149135 234.329282 105.467914 L 235.067769 104.737806 L 235.949851 104.326477 C 236.575513 103.966565 237.149892 103.658068 237.672987 103.390705 C 238.196082 103.113058 238.667893 102.763428 239.078164 102.3521 C 239.878191 101.539725 240.575651 100.233757 241.170544 98.423911 C 241.170544 98.074281 241.221827 97.734935 241.344908 97.395589 C 241.457733 97.04596 241.550044 96.69633 241.591071 96.356984 C 241.724409 95.57546 241.406449 95.040732 240.647449 94.732236 C 239.949989 94.660253 239.078164 95.236114 238.031974 96.449533 C 237.816582 96.69633 237.672987 96.809446 237.560163 96.809446 Z M 237.560163 96.809446 " stroke="#000000" stroke-width="10.687" stroke-opacity="1" stroke-miterlimit="4"/></g><path fill="#ffffff" d="M 10.527344 2.449219 C 12.433594 2.0625 13.914062 2.296875 14.972656 3.160156 C 15.480469 3.566406 15.8125 4.160156 15.980469 4.941406 C 16.144531 5.722656 16.054688 6.59375 15.707031 7.550781 C 15.566406 8.003906 15.3125 8.34375 14.949219 8.570312 C 14.59375 8.792969 14.226562 8.921875 13.847656 8.953125 C 13.476562 8.984375 13.132812 8.941406 12.828125 8.816406 C 12.523438 8.691406 12.359375 8.507812 12.332031 8.269531 L 12.15625 7.871094 C 11.835938 7.398438 11.285156 7.339844 10.503906 7.695312 C 9.828125 8 9.152344 8.527344 8.476562 9.28125 C 7.761719 10.085938 7.300781 10.8125 7.089844 11.460938 C 6.855469 12.171875 6.738281 12.640625 6.738281 12.863281 C 6.710938 13.367188 6.890625 13.816406 7.273438 14.207031 C 7.824219 14.570312 8.378906 14.734375 8.933594 14.699219 C 9.492188 14.664062 9.988281 14.539062 10.425781 14.320312 C 10.859375 14.101562 11.21875 13.855469 11.496094 13.578125 C 11.777344 13.304688 11.917969 13.105469 11.917969 12.980469 C 11.953125 12.902344 11.992188 12.820312 12.027344 12.742188 C 12.070312 12.664062 12.105469 12.582031 12.132812 12.503906 C 12.078125 12.503906 12.09375 12.5 12.171875 12.496094 C 12.253906 12.492188 12.269531 12.492188 12.230469 12.496094 C 12.191406 12.5 12.210938 12.511719 12.292969 12.527344 L 12.414062 12.566406 C 11.761719 13.144531 11.136719 13.265625 10.527344 12.925781 C 10.289062 12.777344 10.074219 12.621094 9.890625 12.457031 C 9.703125 12.292969 9.53125 12.21875 9.371094 12.234375 C 9.085938 12.074219 9.019531 11.761719 9.179688 11.300781 C 9.242188 11.117188 9.363281 10.941406 9.539062 10.777344 C 9.71875 10.613281 9.949219 10.496094 10.226562 10.425781 C 11.550781 9.859375 12.777344 9.726562 13.90625 10.027344 C 14.402344 10.160156 14.75 10.429688 14.941406 10.832031 C 15.132812 11.234375 15.214844 11.691406 15.191406 12.191406 C 15.160156 12.691406 15.054688 13.199219 14.863281 13.714844 C 14.671875 14.230469 14.464844 14.644531 14.238281 14.957031 C 14.015625 15.265625 13.703125 15.628906 13.296875 16.054688 C 12.894531 16.472656 12.382812 16.882812 11.773438 17.28125 C 10.277344 18.246094 8.675781 18.707031 6.96875 18.664062 C 4.496094 18.628906 3.035156 17.617188 2.589844 15.640625 C 2.441406 15.003906 2.371094 14.289062 2.386719 13.5 C 2.523438 11.203125 3.207031 9.054688 4.449219 7.058594 C 5.042969 6.109375 5.84375 5.171875 6.851562 4.25 C 7.488281 3.683594 8.203125 3.246094 8.996094 2.945312 C 9.421875 2.769531 9.933594 2.605469 10.527344 2.449219 Z M 10.527344 2.449219 " fill-opacity="1" fill-rule="nonzero"/><path fill="#ffffff" d="M 20.308594 14.90625 C 21.082031 14.984375 21.652344 15.019531 22.027344 15.019531 C 22.402344 15.019531 22.976562 14.96875 23.75 14.867188 C 23.984375 14.945312 24.121094 15.039062 24.15625 15.164062 C 24.199219 15.28125 24.214844 15.402344 24.195312 15.527344 C 24.183594 15.65625 24.191406 15.777344 24.222656 15.894531 C 24.246094 16.011719 24.375 16.109375 24.605469 16.1875 C 24.71875 16.234375 24.753906 16.347656 24.707031 16.539062 C 24.664062 16.730469 24.554688 16.9375 24.378906 17.160156 C 23.945312 17.726562 23.425781 18.125 22.832031 18.347656 C 21.878906 18.585938 21.132812 18.722656 20.589844 18.769531 C 19.691406 18.832031 18.710938 18.796875 17.652344 18.664062 C 16.488281 18.453125 15.921875 17.972656 15.960938 17.222656 C 15.960938 14.449219 16.570312 11.664062 17.789062 8.867188 C 18.1875 7.953125 18.636719 6.996094 19.136719 5.992188 C 19.242188 5.78125 19.308594 5.542969 19.328125 5.285156 C 19.347656 5.019531 19.363281 4.761719 19.375 4.511719 C 19.394531 4.257812 19.433594 4.03125 19.496094 3.835938 C 19.5625 3.632812 19.707031 3.492188 19.917969 3.414062 C 22.667969 2.320312 24.84375 1.898438 26.449219 2.148438 C 27.007812 2.164062 27.375 2.355469 27.550781 2.71875 C 27.726562 3.082031 27.75 3.488281 27.613281 3.9375 C 27.472656 4.382812 27.203125 4.804688 26.796875 5.203125 C 26.394531 5.597656 25.886719 5.839844 25.273438 5.929688 C 24.492188 6.15625 24.015625 6.3125 23.847656 6.390625 C 23.515625 6.550781 23.277344 6.761719 23.136719 7.019531 C 22.949219 7.3125 22.777344 7.589844 22.617188 7.855469 C 22.457031 8.121094 22.34375 8.402344 22.28125 8.707031 L 22.203125 9.144531 C 22.453125 9.261719 22.757812 9.296875 23.121094 9.246094 C 23.488281 9.199219 23.824219 9.15625 24.132812 9.113281 C 24.445312 9.066406 24.699219 9.0625 24.890625 9.105469 C 25.082031 9.140625 25.121094 9.335938 25.011719 9.6875 C 24.898438 10.035156 24.695312 10.429688 24.398438 10.863281 C 24.097656 11.300781 23.679688 11.617188 23.136719 11.8125 C 22.789062 11.878906 22.554688 11.929688 22.425781 11.960938 C 22.300781 11.996094 22.207031 12.019531 22.136719 12.035156 C 22.046875 12.046875 21.78125 12.0625 21.347656 12.089844 C 20.726562 13.144531 20.347656 13.964844 20.214844 14.550781 C 20.160156 14.789062 20.191406 14.90625 20.308594 14.90625 Z M 20.308594 14.90625 " fill-opacity="1" fill-rule="nonzero"/><path fill="#ffffff" d="M 28.074219 9.71875 C 28.339844 8.832031 28.554688 8.148438 28.71875 7.664062 C 28.882812 7.183594 29.046875 6.75 29.207031 6.367188 C 29.367188 5.984375 29.546875 5.617188 29.75 5.261719 C 29.957031 4.90625 30.179688 4.578125 30.425781 4.28125 C 30.671875 3.984375 30.933594 3.75 31.210938 3.582031 C 31.492188 3.40625 31.785156 3.316406 32.085938 3.316406 C 32.390625 3.316406 32.707031 3.4375 33.035156 3.675781 C 33.566406 4.996094 33.890625 5.878906 34.011719 6.328125 C 34.167969 6.992188 34.316406 7.921875 34.449219 9.121094 C 34.566406 8.816406 34.699219 8.5 34.847656 8.164062 C 35 7.828125 35.152344 7.484375 35.304688 7.136719 C 35.710938 6.269531 35.96875 5.609375 36.078125 5.15625 C 36.367188 4.234375 36.972656 3.539062 37.882812 3.078125 C 38.679688 2.6875 39.421875 2.5625 40.109375 2.703125 C 40.382812 2.757812 40.578125 2.871094 40.691406 3.046875 C 40.800781 3.21875 40.800781 3.394531 40.691406 3.582031 C 40.578125 3.761719 40.539062 3.933594 40.570312 4.097656 C 40.605469 4.261719 40.636719 4.460938 40.667969 4.6875 C 40.703125 5.292969 40.597656 5.832031 40.347656 6.300781 C 40.09375 6.769531 39.839844 7.351562 39.574219 8.046875 C 39.304688 8.738281 39.039062 9.472656 38.765625 10.25 C 38.496094 11.03125 38.21875 11.824219 37.9375 12.632812 C 37.660156 13.433594 37.390625 14.164062 37.128906 14.828125 C 36.542969 16.347656 36.070312 17.183594 35.703125 17.34375 C 35.195312 17.644531 34.824219 17.824219 34.585938 17.875 C 34.28125 17.929688 33.851562 17.929688 33.300781 17.875 C 32.953125 17.847656 32.65625 17.40625 32.40625 16.546875 C 32.257812 16.085938 32.121094 15.445312 32.007812 14.628906 C 31.792969 13.203125 31.648438 12.417969 31.566406 12.273438 C 31.042969 13.988281 30.667969 15.070312 30.441406 15.519531 C 30.222656 15.964844 30.058594 16.265625 29.949219 16.410156 C 29.835938 16.554688 29.699219 16.746094 29.542969 16.984375 C 29.371094 17.457031 28.960938 17.808594 28.3125 18.035156 C 27.757812 18.242188 27.253906 18.273438 26.804688 18.132812 C 26.316406 17.972656 26.167969 17.667969 26.363281 17.222656 C 26.515625 15.636719 27.082031 13.136719 28.074219 9.71875 Z M 28.074219 9.71875 " fill-opacity="1" fill-rule="nonzero"/><path fill="#ffffff" d="M 44.210938 14.90625 C 44.980469 14.984375 45.554688 15.019531 45.929688 15.019531 C 46.304688 15.019531 46.878906 14.96875 47.652344 14.867188 C 47.886719 14.945312 48.019531 15.039062 48.058594 15.164062 C 48.101562 15.28125 48.113281 15.402344 48.097656 15.527344 C 48.085938 15.65625 48.09375 15.777344 48.121094 15.894531 C 48.148438 16.011719 48.277344 16.109375 48.503906 16.1875 C 48.621094 16.234375 48.65625 16.347656 48.609375 16.539062 C 48.566406 16.730469 48.457031 16.9375 48.28125 17.160156 C 47.84375 17.726562 47.328125 18.125 46.734375 18.347656 C 45.78125 18.585938 45.035156 18.722656 44.492188 18.769531 C 43.589844 18.832031 42.613281 18.796875 41.554688 18.664062 C 40.390625 18.453125 39.824219 17.972656 39.863281 17.222656 C 39.863281 14.449219 40.472656 11.664062 41.691406 8.867188 C 42.089844 7.953125 42.539062 6.996094 43.039062 5.992188 C 43.144531 5.78125 43.207031 5.542969 43.230469 5.285156 C 43.25 5.019531 43.265625 4.761719 43.277344 4.511719 C 43.292969 4.257812 43.335938 4.03125 43.398438 3.835938 C 43.464844 3.632812 43.609375 3.492188 43.820312 3.414062 C 46.570312 2.320312 48.746094 1.898438 50.347656 2.148438 C 50.90625 2.164062 51.273438 2.355469 51.449219 2.71875 C 51.628906 3.082031 51.652344 3.488281 51.515625 3.9375 C 51.375 4.382812 51.101562 4.804688 50.699219 5.203125 C 50.296875 5.597656 49.785156 5.839844 49.175781 5.929688 C 48.394531 6.15625 47.917969 6.3125 47.746094 6.390625 C 47.417969 6.550781 47.179688 6.761719 47.039062 7.019531 C 46.851562 7.3125 46.679688 7.589844 46.519531 7.855469 C 46.359375 8.121094 46.246094 8.402344 46.183594 8.707031 L 46.105469 9.144531 C 46.351562 9.261719 46.65625 9.296875 47.019531 9.246094 C 47.386719 9.199219 47.726562 9.15625 48.035156 9.113281 C 48.347656 9.066406 48.601562 9.0625 48.792969 9.105469 C 48.984375 9.140625 49.023438 9.335938 48.914062 9.6875 C 48.800781 10.035156 48.59375 10.429688 48.296875 10.863281 C 48 11.300781 47.578125 11.617188 47.039062 11.8125 C 46.691406 11.878906 46.453125 11.929688 46.328125 11.960938 C 46.203125 11.996094 46.109375 12.019531 46.039062 12.035156 C 45.949219 12.046875 45.683594 12.0625 45.25 12.089844 C 44.628906 13.144531 44.246094 13.964844 44.117188 14.550781 C 44.0625 14.789062 44.09375 14.90625 44.210938 14.90625 Z M 44.210938 14.90625 " fill-opacity="1" fill-rule="nonzero"/><path fill="#ffffff" d="M 54.097656 17.453125 C 53.980469 17.984375 53.570312 18.308594 52.867188 18.425781 C 52.21875 18.546875 51.601562 18.476562 51.023438 18.210938 C 50.375 17.933594 50.089844 17.542969 50.171875 17.039062 C 50.089844 16.277344 50.496094 14.613281 51.382812 12.050781 C 52.703125 8.210938 54.027344 5.460938 55.351562 3.8125 C 55.695312 3.394531 55.992188 3.117188 56.234375 2.992188 C 56.480469 2.863281 56.757812 2.75 57.074219 2.648438 C 57.394531 2.542969 57.722656 2.441406 58.070312 2.347656 C 58.757812 2.160156 59.410156 2.035156 60.027344 1.964844 C 60.644531 1.890625 61.195312 1.960938 61.6875 2.179688 C 62.175781 2.398438 62.558594 2.71875 62.828125 3.140625 C 63.097656 3.5625 63.265625 4.0625 63.332031 4.640625 C 63.398438 5.210938 63.378906 5.8125 63.273438 6.4375 C 63.167969 7.066406 62.972656 7.699219 62.691406 8.339844 C 62.414062 8.976562 62.066406 9.574219 61.648438 10.132812 C 60.722656 11.347656 59.636719 12.132812 58.390625 12.488281 L 58.589844 12.820312 C 58.761719 13.089844 58.96875 13.378906 59.210938 13.699219 C 59.457031 14.011719 59.703125 14.335938 59.945312 14.667969 C 60.191406 15 60.410156 15.328125 60.609375 15.65625 C 60.8125 15.984375 60.957031 16.296875 61.046875 16.585938 C 61.261719 17.234375 61.097656 17.703125 60.554688 17.996094 C 60.117188 18.253906 59.773438 18.324219 59.523438 18.195312 C 59.417969 18.125 59.3125 18.039062 59.203125 17.941406 C 59.097656 17.84375 58.953125 17.761719 58.765625 17.695312 C 57.984375 17.921875 57.386719 17.726562 56.976562 17.105469 C 56.726562 16.707031 56.535156 16.34375 56.402344 16.015625 C 56.269531 15.6875 56.160156 15.40625 56.070312 15.179688 C 55.828125 14.691406 55.558594 14.269531 55.253906 13.914062 C 55.105469 14.269531 54.9375 14.722656 54.757812 15.28125 C 54.53125 15.980469 54.277344 16.707031 54 17.453125 Z M 58.113281 5.929688 C 57.859375 6.496094 57.6875 6.894531 57.59375 7.121094 C 57.40625 7.566406 57.203125 8.0625 56.976562 8.601562 C 56.941406 8.894531 56.910156 9.101562 56.882812 9.214844 L 57.160156 8.945312 L 57.496094 8.785156 C 57.738281 8.65625 57.953125 8.535156 58.152344 8.429688 C 58.347656 8.324219 58.527344 8.1875 58.6875 8.03125 C 58.988281 7.726562 59.253906 7.234375 59.484375 6.550781 C 59.484375 6.417969 59.503906 6.285156 59.546875 6.152344 C 59.597656 6.019531 59.628906 5.886719 59.644531 5.753906 C 59.695312 5.460938 59.574219 5.257812 59.285156 5.140625 C 59.015625 5.113281 58.6875 5.332031 58.285156 5.792969 C 58.207031 5.882812 58.148438 5.929688 58.113281 5.929688 Z M 58.113281 5.929688 " fill-opacity="1" fill-rule="nonzero"/><path fill="#ffffff" d="M 73.65625 3.96875 C 74.105469 4.210938 74.386719 4.558594 74.511719 5.019531 C 74.242188 6.5 74.003906 7.972656 73.792969 9.429688 C 73.578125 10.890625 73.375 12.113281 73.179688 13.09375 C 72.980469 14.074219 72.84375 14.808594 72.769531 15.296875 C 72.695312 15.789062 72.613281 16.273438 72.523438 16.761719 L 72.402344 17.183594 C 72.375 17.328125 72.351562 17.457031 72.324219 17.582031 C 72.296875 17.710938 72.269531 17.847656 72.246094 17.996094 C 71.878906 18.414062 71.375 18.625 70.734375 18.625 C 70.058594 18.625 69.523438 18.453125 69.132812 18.117188 C 68.890625 17.929688 68.851562 17.539062 69.011719 16.945312 C 69.074219 16.707031 69.117188 16.398438 69.140625 16.023438 C 69.160156 15.644531 69.183594 15.332031 69.210938 15.082031 L 69.210938 15.042969 C 68.8125 15.1875 68.453125 15.375 68.132812 15.609375 C 67.816406 15.835938 67.617188 15.980469 67.535156 16.046875 C 67.460938 16.105469 67.355469 16.148438 67.222656 16.179688 C 67.089844 16.214844 66.972656 16.238281 66.867188 16.253906 C 66.613281 16.265625 66.441406 16.304688 66.347656 16.371094 C 65.582031 17.742188 64.894531 18.503906 64.289062 18.664062 C 63.898438 18.785156 63.511719 18.816406 63.128906 18.753906 C 62.746094 18.691406 62.445312 18.46875 62.21875 18.074219 C 61.796875 17.679688 61.902344 16.59375 62.539062 14.828125 C 62.878906 13.890625 63.371094 12.765625 64.015625 11.453125 C 64.660156 10.136719 65.277344 8.992188 65.875 8.015625 C 67.15625 5.914062 68.566406 4.144531 70.105469 2.703125 C 70.355469 2.597656 70.625 2.476562 70.910156 2.339844 C 71.203125 2.203125 71.492188 2.128906 71.773438 2.117188 C 72.0625 2.101562 72.355469 2.132812 72.660156 2.210938 C 72.964844 2.289062 73.226562 2.40625 73.433594 2.5625 C 73.929688 2.933594 74.003906 3.402344 73.65625 3.96875 Z M 69.402344 9.175781 C 69.125 9.972656 68.847656 10.703125 68.574219 11.375 C 68.296875 12.039062 68.054688 12.621094 67.855469 13.125 L 69.425781 13.0625 C 69.53125 12.21875 69.652344 11.378906 69.785156 10.546875 C 69.917969 9.714844 70.042969 8.882812 70.160156 8.054688 Z M 68.867188 13.140625 C 69.054688 13.140625 69.238281 13.128906 69.425781 13.101562 L 69.425781 13.085938 C 69.253906 13.097656 69.097656 13.109375 68.949219 13.125 C 68.804688 13.136719 68.777344 13.140625 68.867188 13.140625 Z M 68.867188 13.140625 " fill-opacity="1" fill-rule="nonzero"/><path fill="#ffffff" d="M 81.289062 12.320312 C 80.925781 13.355469 80.558594 14.347656 80.1875 15.296875 C 79.8125 16.25 79.503906 16.96875 79.261719 17.460938 C 79.015625 17.960938 78.800781 18.300781 78.613281 18.488281 C 78.433594 18.675781 78.242188 18.800781 78.046875 18.863281 C 77.855469 18.929688 77.664062 18.960938 77.472656 18.945312 C 77.28125 18.929688 77.085938 18.917969 76.890625 18.902344 C 75.777344 18.734375 75.433594 17.933594 75.859375 16.507812 C 76.136719 15.375 76.359375 14.445312 76.53125 13.730469 C 76.707031 13.007812 76.851562 12.414062 76.960938 11.945312 C 77.074219 11.476562 77.167969 11.085938 77.25 10.777344 C 77.328125 10.464844 77.414062 10.15625 77.503906 9.851562 C 77.601562 9.550781 77.714844 9.207031 77.855469 8.824219 C 77.992188 8.445312 78.175781 7.933594 78.398438 7.296875 C 77.898438 7.367188 77.449219 7.3125 77.050781 7.136719 C 76.464844 6.890625 76.222656 6.347656 76.332031 5.515625 C 76.382812 5.132812 76.589844 4.777344 76.945312 4.449219 C 77.132812 4.273438 77.351562 4.085938 77.609375 3.890625 C 78.121094 3.484375 79.148438 3.046875 80.679688 2.585938 C 82.269531 2.109375 83.636719 1.882812 84.773438 1.910156 C 85.078125 1.855469 85.390625 1.894531 85.714844 2.019531 C 86.039062 2.148438 86.300781 2.320312 86.5 2.53125 C 86.695312 2.738281 86.796875 2.96875 86.800781 3.222656 C 86.8125 3.472656 86.652344 3.695312 86.324219 3.890625 C 86.164062 4 86.046875 4.171875 85.980469 4.417969 C 85.917969 4.660156 85.84375 4.917969 85.765625 5.1875 C 85.683594 5.457031 85.566406 5.710938 85.414062 5.9375 C 85.261719 6.160156 85.023438 6.289062 84.695312 6.328125 C 84.519531 6.421875 84.273438 6.492188 83.960938 6.535156 C 83.652344 6.570312 83.445312 6.601562 83.347656 6.621094 C 83.25 6.636719 83.195312 6.671875 83.1875 6.722656 C 82.945312 7.425781 82.660156 8.273438 82.324219 9.273438 C 81.992188 10.269531 81.648438 11.285156 81.289062 12.320312 Z M 78.597656 7.082031 C 78.570312 7.082031 78.558594 7.085938 78.558594 7.089844 C 78.558594 7.097656 78.570312 7.097656 78.597656 7.097656 Z M 78.597656 7.082031 " fill-opacity="1" fill-rule="nonzero"/><path fill="#ffffff" d="M 89.316406 14.90625 C 90.085938 14.984375 90.65625 15.019531 91.03125 15.019531 C 91.40625 15.019531 91.984375 14.96875 92.753906 14.867188 C 92.988281 14.945312 93.125 15.039062 93.160156 15.164062 C 93.203125 15.28125 93.21875 15.402344 93.203125 15.527344 C 93.191406 15.65625 93.199219 15.777344 93.226562 15.894531 C 93.25 16.011719 93.378906 16.109375 93.609375 16.1875 C 93.722656 16.234375 93.761719 16.347656 93.710938 16.539062 C 93.667969 16.730469 93.5625 16.9375 93.386719 17.160156 C 92.949219 17.726562 92.429688 18.125 91.835938 18.347656 C 90.882812 18.585938 90.136719 18.722656 89.59375 18.769531 C 88.695312 18.832031 87.714844 18.796875 86.65625 18.664062 C 85.492188 18.453125 84.929688 17.972656 84.964844 17.222656 C 84.964844 14.449219 85.574219 11.664062 86.792969 8.867188 C 87.191406 7.953125 87.640625 6.996094 88.140625 5.992188 C 88.246094 5.78125 88.3125 5.542969 88.332031 5.285156 C 88.351562 5.019531 88.371094 4.761719 88.382812 4.511719 C 88.398438 4.257812 88.4375 4.03125 88.5 3.835938 C 88.570312 3.632812 88.710938 3.492188 88.925781 3.414062 C 91.671875 2.320312 93.851562 1.898438 95.453125 2.148438 C 96.011719 2.164062 96.378906 2.355469 96.554688 2.71875 C 96.734375 3.082031 96.753906 3.488281 96.617188 3.9375 C 96.476562 4.382812 96.207031 4.804688 95.804688 5.203125 C 95.398438 5.597656 94.890625 5.839844 94.277344 5.929688 C 93.496094 6.15625 93.019531 6.3125 92.851562 6.390625 C 92.519531 6.550781 92.285156 6.761719 92.140625 7.019531 C 91.953125 7.3125 91.78125 7.589844 91.621094 7.855469 C 91.460938 8.121094 91.351562 8.402344 91.285156 8.707031 L 91.207031 9.144531 C 91.457031 9.261719 91.761719 9.296875 92.125 9.246094 C 92.492188 9.199219 92.828125 9.15625 93.136719 9.113281 C 93.449219 9.066406 93.703125 9.0625 93.894531 9.105469 C 94.085938 9.140625 94.128906 9.335938 94.015625 9.6875 C 93.902344 10.035156 93.699219 10.429688 93.402344 10.863281 C 93.101562 11.300781 92.683594 11.617188 92.140625 11.8125 C 91.792969 11.878906 91.558594 11.929688 91.429688 11.960938 C 91.304688 11.996094 91.210938 12.019531 91.144531 12.035156 C 91.050781 12.046875 90.789062 12.0625 90.351562 12.089844 C 89.730469 13.144531 89.351562 13.964844 89.21875 14.550781 C 89.164062 14.789062 89.199219 14.90625 89.316406 14.90625 Z M 89.316406 14.90625 " fill-opacity="1" fill-rule="nonzero"/><path fill="#ffffff" d="M 8.269531 44.097656 L 8.125 31.304688 C 8.125 30.988281 8.253906 30.714844 8.507812 30.484375 C 8.765625 30.253906 9.0625 30.089844 9.394531 30 C 9.726562 29.902344 10.039062 29.890625 10.328125 29.960938 C 10.617188 30.023438 10.804688 30.195312 10.886719 30.46875 C 11.136719 30.972656 11.308594 31.667969 11.40625 32.546875 C 11.574219 34.199219 11.660156 35.625 11.660156 36.828125 C 11.792969 37.042969 11.957031 37.140625 12.15625 37.125 C 12.722656 35.738281 13.351562 34.40625 14.039062 33.128906 C 14.726562 31.84375 15.171875 31.023438 15.371094 30.660156 C 15.574219 30.292969 15.8125 30.039062 16.089844 29.894531 C 16.363281 29.753906 16.664062 29.660156 16.984375 29.617188 C 17.667969 29.539062 18.316406 29.65625 18.929688 29.976562 C 19.394531 30.132812 19.664062 30.40625 19.746094 30.789062 C 20.046875 31.390625 19.839844 32.09375 19.121094 32.890625 C 18.292969 34.207031 17.453125 35.664062 16.609375 37.265625 C 14.988281 40.339844 13.960938 42.234375 13.527344 42.949219 C 13.089844 43.664062 12.769531 44.167969 12.570312 44.464844 C 12.371094 44.757812 12.148438 45.007812 11.898438 45.203125 C 11.445312 45.558594 10.902344 45.703125 10.269531 45.640625 C 9.15625 45.597656 8.507812 45.246094 8.324219 44.589844 C 8.285156 44.40625 8.269531 44.238281 8.269531 44.097656 Z M 8.269531 44.097656 " fill-opacity="1" fill-rule="nonzero"/><path fill="#ffffff" d="M 21.445312 31.640625 C 22.28125 30.691406 23.207031 30.09375 24.222656 29.855469 C 24.925781 29.6875 25.589844 29.710938 26.210938 29.9375 C 26.699219 29.421875 27.335938 29.234375 28.117188 29.378906 C 28.832031 29.511719 29.4375 29.914062 29.945312 30.589844 C 29.972656 30.679688 30.027344 30.816406 30.113281 31.003906 C 30.199219 31.1875 30.28125 31.390625 30.359375 31.613281 C 30.945312 32.964844 30.992188 34.734375 30.503906 36.925781 C 29.890625 39.648438 28.8125 41.953125 27.265625 43.84375 C 26.785156 44.421875 26.25 44.902344 25.660156 45.28125 C 24.703125 46.007812 23.5625 46.332031 22.246094 46.253906 C 21.417969 46.214844 20.730469 46.011719 20.175781 45.640625 C 17.964844 44.542969 17.246094 42.257812 18.015625 38.789062 C 18.648438 35.9375 19.789062 33.554688 21.445312 31.640625 Z M 21.6875 42.15625 L 21.660156 42.273438 L 21.703125 42.488281 C 21.78125 42.898438 21.914062 43.214844 22.101562 43.4375 C 22.285156 43.65625 22.4375 43.789062 22.554688 43.84375 C 22.6875 43.738281 22.820312 43.640625 22.953125 43.546875 C 23.085938 43.453125 23.207031 43.339844 23.3125 43.207031 C 24.210938 42.097656 24.914062 40.644531 25.414062 38.851562 C 25.917969 37.050781 26.101562 35.386719 25.972656 33.859375 C 25.453125 34.519531 24.914062 35.277344 24.34375 36.136719 C 23.773438 36.992188 23.324219 37.726562 22.996094 38.332031 C 22.238281 39.746094 21.800781 41.019531 21.6875 42.15625 Z M 21.6875 42.15625 " fill-opacity="1" fill-rule="nonzero"/><path fill="#ffffff" d="M 37.40625 30.414062 L 37.40625 30.453125 C 37.40625 30.464844 37.40625 30.46875 37.414062 30.46875 C 37.421875 30.46875 37.429688 30.476562 37.429688 30.492188 L 37.429688 30.53125 L 37.445312 30.53125 L 37.566406 30.84375 C 37.695312 31.230469 37.351562 32.417969 36.535156 34.410156 C 35.660156 36.539062 35.257812 38.195312 35.320312 39.382812 C 35.46875 40.226562 36.179688 39.546875 37.445312 37.339844 C 38.449219 35.625 39.425781 33.746094 40.367188 31.695312 C 40.480469 31.421875 40.605469 31.132812 40.742188 30.835938 C 40.871094 30.539062 41.039062 30.292969 41.242188 30.09375 C 41.679688 29.617188 42.210938 29.492188 42.832031 29.71875 C 43.039062 29.464844 43.28125 29.292969 43.566406 29.203125 C 43.851562 29.109375 44.125 29.085938 44.378906 29.140625 C 44.640625 29.191406 44.863281 29.320312 45.050781 29.515625 C 45.234375 29.703125 45.335938 29.957031 45.355469 30.269531 C 45.390625 30.535156 45.253906 31.164062 44.9375 32.15625 C 44.628906 33.144531 44.34375 34.050781 44.078125 34.871094 C 43.816406 35.6875 43.542969 36.578125 43.261719 37.539062 C 42.585938 39.824219 42.050781 41.976562 41.660156 43.992188 C 41.644531 44.417969 41.460938 44.765625 41.109375 45.042969 C 40.757812 45.324219 40.367188 45.507812 39.933594 45.59375 C 39.507812 45.675781 39.105469 45.660156 38.722656 45.546875 C 38.257812 45.414062 38.011719 45.078125 37.988281 44.550781 C 37.988281 44.40625 37.980469 44.261719 37.964844 44.113281 C 37.988281 44.5625 37.664062 44.949219 36.988281 45.265625 C 36.800781 45.355469 36.632812 45.441406 36.472656 45.523438 C 35.546875 45.796875 34.574219 45.738281 33.558594 45.347656 C 33.078125 45.144531 32.652344 44.875 32.273438 44.542969 C 31.894531 44.203125 31.636719 43.800781 31.492188 43.339844 C 31.027344 41.867188 31.113281 39.925781 31.746094 37.523438 C 32.011719 36.492188 32.335938 35.488281 32.71875 34.511719 C 33.101562 33.539062 33.386719 32.832031 33.566406 32.394531 C 33.746094 31.957031 33.875 31.652344 33.949219 31.488281 C 34.027344 31.324219 34.117188 31.160156 34.210938 31.003906 C 34.4375 30.554688 34.628906 30.253906 34.789062 30.09375 L 35.027344 29.878906 C 35.054688 29.855469 35.078125 29.839844 35.105469 29.832031 C 35.132812 29.820312 35.164062 29.804688 35.203125 29.777344 C 35.308594 29.710938 35.421875 29.667969 35.546875 29.640625 L 35.816406 29.578125 L 35.9375 29.578125 C 36.320312 29.527344 36.652344 29.605469 36.933594 29.816406 C 36.933594 29.832031 36.945312 29.839844 36.972656 29.839844 L 37.132812 29.976562 L 37.191406 30.03125 L 37.246094 30.109375 C 37.246094 30.125 37.246094 30.132812 37.253906 30.132812 C 37.261719 30.132812 37.269531 30.140625 37.269531 30.152344 L 37.285156 30.175781 L 37.285156 30.214844 C 37.300781 30.214844 37.308594 30.21875 37.308594 30.230469 L 37.308594 30.253906 C 37.320312 30.265625 37.332031 30.269531 37.347656 30.269531 L 37.347656 30.292969 C 37.347656 30.304688 37.351562 30.308594 37.355469 30.308594 C 37.359375 30.308594 37.363281 30.316406 37.363281 30.324219 C 37.363281 30.332031 37.375 30.339844 37.390625 30.347656 L 37.390625 30.375 C 37.390625 30.386719 37.394531 30.398438 37.40625 30.414062 Z M 37.949219 43.601562 L 37.949219 43.539062 C 37.933594 43.554688 37.921875 43.609375 37.921875 43.699219 C 37.921875 43.664062 37.933594 43.636719 37.949219 43.621094 Z M 37.949219 43.601562 " fill-opacity="1" fill-rule="nonzero"/><path fill="#ffffff" d="M 53.605469 34.886719 C 53.605469 34.488281 53.46875 34.289062 53.191406 34.289062 C 53.085938 34.289062 52.957031 34.316406 52.808594 34.371094 C 52.664062 34.421875 52.527344 34.472656 52.394531 34.511719 C 51.902344 34.773438 51.523438 35.058594 51.253906 35.371094 C 50.980469 35.679688 50.707031 36.027344 50.429688 36.414062 C 50.152344 36.796875 49.914062 37.207031 49.710938 37.640625 C 49.515625 38.078125 49.363281 38.484375 49.257812 38.867188 C 48.875 40.28125 49.019531 41.230469 49.695312 41.714844 C 49.972656 41.917969 50.265625 42.015625 50.574219 42.011719 C 50.886719 42 51.140625 41.9375 51.332031 41.820312 C 51.523438 41.699219 51.710938 41.585938 51.898438 41.484375 C 52.085938 41.378906 52.300781 41.304688 52.546875 41.253906 C 52.789062 41.207031 53.09375 41.238281 53.457031 41.351562 C 53.824219 41.460938 54.019531 41.609375 54.046875 41.796875 C 54.070312 41.984375 54.070312 42.175781 54.046875 42.378906 C 54.019531 42.574219 54.015625 42.75 54.03125 42.910156 C 54.050781 43.066406 54.195312 43.164062 54.460938 43.207031 C 54.710938 43.523438 54.550781 43.90625 53.980469 44.351562 C 53.839844 44.476562 53.699219 44.589844 53.566406 44.695312 C 52.429688 45.414062 51.21875 45.816406 49.9375 45.894531 C 49.125 45.949219 48.265625 45.804688 47.351562 45.464844 C 45.988281 44.949219 45.222656 43.792969 45.050781 41.996094 C 44.824219 40.335938 45.03125 38.613281 45.683594 36.828125 C 46.226562 35.324219 47.046875 33.929688 48.148438 32.648438 C 49.140625 31.472656 50.121094 30.707031 51.085938 30.347656 C 52.238281 29.757812 53.484375 29.527344 54.820312 29.65625 C 56.234375 29.84375 57.160156 30.445312 57.597656 31.464844 C 58.03125 32.480469 57.960938 33.699219 57.382812 35.125 C 57.183594 35.625 56.808594 36.019531 56.25 36.3125 C 55.769531 36.578125 55.25 36.710938 54.691406 36.710938 C 54.136719 36.710938 53.78125 36.535156 53.621094 36.183594 C 53.46875 35.835938 53.464844 35.402344 53.605469 34.886719 Z M 53.605469 34.886719 " fill-opacity="1" fill-rule="nonzero"/><path fill="#ffffff" d="M 61.3125 40.433594 L 60.355469 42.847656 C 60.222656 43.21875 60.101562 43.601562 59.996094 44 C 59.894531 44.394531 59.78125 44.738281 59.660156 45.035156 C 59.542969 45.332031 59.359375 45.566406 59.117188 45.738281 C 58.871094 45.910156 58.59375 46.042969 58.289062 46.125 C 57.984375 46.210938 57.667969 46.246094 57.347656 46.230469 C 57.019531 46.21875 56.734375 46.160156 56.484375 46.054688 C 55.914062 45.789062 55.714844 45.355469 55.886719 44.75 C 56.496094 42.082031 57.070312 39.941406 57.601562 38.332031 C 58.136719 36.722656 58.582031 35.453125 58.933594 34.527344 C 59.285156 33.605469 59.652344 32.628906 60.035156 31.597656 C 60.078125 31.21875 60.238281 30.875 60.515625 30.574219 C 60.789062 30.265625 61.117188 30.011719 61.496094 29.816406 C 61.871094 29.621094 62.265625 29.480469 62.675781 29.394531 C 63.085938 29.304688 63.449219 29.292969 63.769531 29.363281 C 64.089844 29.425781 64.324219 29.574219 64.472656 29.800781 C 64.625 30.023438 64.636719 30.34375 64.503906 30.761719 C 64.03125 31.980469 63.691406 32.839844 63.492188 33.34375 C 63.292969 33.84375 63.117188 34.289062 62.957031 34.6875 L 62.398438 35.992188 C 62.679688 36.007812 63.03125 35.96875 63.449219 35.875 C 64.222656 35.703125 64.777344 35.648438 65.117188 35.699219 C 65.117188 35.636719 65.152344 35.523438 65.222656 35.363281 C 65.589844 33.753906 66.007812 32.273438 66.476562 30.921875 C 66.804688 29.8125 67.65625 29.234375 69.03125 29.179688 C 69.574219 29.179688 69.984375 29.3125 70.265625 29.578125 C 70.570312 29.855469 70.609375 30.230469 70.386719 30.707031 C 69.167969 34.113281 68.304688 36.804688 67.800781 38.769531 C 67.230469 41.042969 66.855469 42.574219 66.675781 43.363281 C 66.5 44.15625 66.34375 44.621094 66.210938 44.765625 C 66.078125 44.914062 65.941406 45.015625 65.804688 45.074219 C 65.664062 45.132812 65.53125 45.1875 65.398438 45.242188 C 65.265625 45.292969 65.160156 45.429688 65.078125 45.640625 L 65.023438 45.640625 C 64.914062 45.878906 64.683594 46.066406 64.328125 46.199219 C 63.972656 46.328125 63.609375 46.378906 63.242188 46.339844 C 62.878906 46.308594 62.578125 46.175781 62.332031 45.945312 C 62.089844 45.714844 62.023438 45.363281 62.140625 44.886719 C 62.273438 44.136719 62.492188 43.332031 62.796875 42.464844 C 63.101562 41.601562 63.339844 40.925781 63.523438 40.433594 C 63.703125 39.949219 63.851562 39.492188 63.96875 39.066406 C 63.863281 39.121094 63.757812 39.160156 63.660156 39.183594 C 63.5625 39.214844 63.4375 39.261719 63.292969 39.335938 C 63.148438 39.40625 63 39.46875 62.84375 39.519531 C 62.695312 39.574219 62.546875 39.628906 62.398438 39.679688 C 62.03125 39.820312 61.726562 39.96875 61.488281 40.117188 Z M 63.554688 39.105469 C 63.566406 39.105469 63.628906 39.085938 63.753906 39.042969 C 63.675781 39.070312 63.605469 39.089844 63.554688 39.105469 Z M 63.554688 39.105469 " fill-opacity="1" fill-rule="nonzero"/><path fill="#ffffff" d="M 73.21875 42.257812 C 73.988281 42.332031 74.5625 42.371094 74.933594 42.371094 C 75.3125 42.371094 75.886719 42.320312 76.65625 42.21875 C 76.890625 42.292969 77.027344 42.390625 77.066406 42.511719 C 77.105469 42.628906 77.121094 42.75 77.105469 42.878906 C 77.09375 43.007812 77.101562 43.128906 77.128906 43.246094 C 77.15625 43.363281 77.28125 43.460938 77.511719 43.539062 C 77.628906 43.582031 77.664062 43.699219 77.617188 43.890625 C 77.570312 44.082031 77.464844 44.289062 77.289062 44.511719 C 76.851562 45.078125 76.335938 45.472656 75.742188 45.695312 C 74.785156 45.9375 74.039062 46.074219 73.496094 46.117188 C 72.597656 46.183594 71.617188 46.148438 70.5625 46.015625 C 69.394531 45.800781 68.832031 45.324219 68.867188 44.574219 C 68.867188 41.800781 69.476562 39.015625 70.695312 36.214844 C 71.09375 35.304688 71.542969 34.34375 72.046875 33.34375 C 72.152344 33.132812 72.214844 32.894531 72.238281 32.632812 C 72.257812 32.371094 72.273438 32.113281 72.285156 31.863281 C 72.300781 31.605469 72.339844 31.382812 72.40625 31.183594 C 72.472656 30.984375 72.613281 30.84375 72.828125 30.761719 C 75.578125 29.671875 77.753906 29.25 79.355469 29.496094 C 79.914062 29.515625 80.28125 29.703125 80.457031 30.070312 C 80.636719 30.433594 80.660156 30.839844 80.519531 31.289062 C 80.382812 31.734375 80.109375 32.15625 79.707031 32.554688 C 79.300781 32.949219 78.792969 33.1875 78.183594 33.277344 C 77.398438 33.507812 76.921875 33.660156 76.753906 33.742188 C 76.421875 33.898438 76.1875 34.109375 76.042969 34.371094 C 75.855469 34.660156 75.683594 34.941406 75.523438 35.207031 C 75.363281 35.472656 75.253906 35.753906 75.191406 36.058594 L 75.109375 36.496094 C 75.359375 36.613281 75.664062 36.644531 76.027344 36.597656 C 76.394531 36.550781 76.730469 36.507812 77.042969 36.464844 C 77.355469 36.414062 77.609375 36.414062 77.800781 36.453125 C 77.992188 36.492188 78.03125 36.6875 77.917969 37.035156 C 77.808594 37.386719 77.601562 37.78125 77.304688 38.214844 C 77.003906 38.648438 76.585938 38.964844 76.042969 39.160156 C 75.695312 39.230469 75.460938 39.28125 75.332031 39.3125 C 75.210938 39.34375 75.113281 39.367188 75.046875 39.382812 C 74.953125 39.394531 74.691406 39.414062 74.257812 39.441406 C 73.632812 40.496094 73.253906 41.316406 73.121094 41.898438 C 73.070312 42.136719 73.101562 42.257812 73.21875 42.257812 Z M 73.21875 42.257812 " fill-opacity="1" fill-rule="nonzero"/><path fill="#ffffff" d="M 83.101562 44.804688 C 82.984375 45.335938 82.578125 45.660156 81.875 45.777344 C 81.222656 45.898438 80.609375 45.824219 80.03125 45.5625 C 79.382812 45.285156 79.097656 44.894531 79.175781 44.390625 C 79.097656 43.628906 79.5 41.964844 80.390625 39.398438 C 81.707031 35.558594 83.03125 32.8125 84.355469 31.160156 C 84.699219 30.742188 84.996094 30.46875 85.242188 30.339844 C 85.484375 30.214844 85.765625 30.101562 86.078125 30 C 86.398438 29.894531 86.730469 29.792969 87.078125 29.695312 C 87.765625 29.511719 88.414062 29.382812 89.03125 29.316406 C 89.648438 29.242188 90.203125 29.3125 90.691406 29.53125 C 91.179688 29.75 91.5625 30.070312 91.832031 30.492188 C 92.105469 30.914062 92.273438 31.414062 92.335938 31.988281 C 92.40625 32.5625 92.386719 33.164062 92.28125 33.789062 C 92.171875 34.414062 91.980469 35.050781 91.699219 35.691406 C 91.421875 36.328125 91.070312 36.925781 90.652344 37.480469 C 89.726562 38.699219 88.640625 39.484375 87.398438 39.839844 L 87.597656 40.171875 C 87.765625 40.4375 87.972656 40.730469 88.21875 41.046875 C 88.460938 41.363281 88.707031 41.683594 88.953125 42.019531 C 89.195312 42.347656 89.417969 42.679688 89.617188 43.007812 C 89.816406 43.335938 89.960938 43.648438 90.054688 43.9375 C 90.265625 44.585938 90.101562 45.054688 89.558594 45.347656 C 89.121094 45.605469 88.78125 45.671875 88.53125 45.546875 C 88.421875 45.476562 88.316406 45.390625 88.210938 45.289062 C 88.101562 45.195312 87.957031 45.113281 87.773438 45.042969 C 86.988281 45.269531 86.394531 45.074219 85.984375 44.453125 C 85.734375 44.058594 85.542969 43.695312 85.410156 43.363281 C 85.277344 43.035156 85.164062 42.757812 85.074219 42.527344 C 84.835938 42.042969 84.5625 41.621094 84.261719 41.261719 C 84.109375 41.621094 83.945312 42.074219 83.765625 42.632812 C 83.535156 43.332031 83.28125 44.058594 83.007812 44.804688 Z M 87.117188 33.277344 C 86.867188 33.847656 86.695312 34.246094 86.597656 34.472656 C 86.410156 34.917969 86.207031 35.414062 85.984375 35.953125 C 85.945312 36.246094 85.914062 36.449219 85.886719 36.566406 L 86.167969 36.296875 L 86.503906 36.136719 C 86.742188 36.003906 86.960938 35.886719 87.15625 35.777344 C 87.351562 35.671875 87.53125 35.539062 87.691406 35.378906 C 87.996094 35.078125 88.261719 34.585938 88.488281 33.898438 C 88.488281 33.769531 88.511719 33.636719 88.554688 33.5 C 88.601562 33.371094 88.632812 33.238281 88.648438 33.105469 C 88.703125 32.8125 88.582031 32.609375 88.289062 32.492188 C 88.023438 32.464844 87.691406 32.683594 87.292969 33.144531 C 87.214844 33.234375 87.152344 33.277344 87.117188 33.277344 Z M 87.117188 33.277344 " fill-opacity="1" fill-rule="nonzero"/></svg>