<svg xmlns="http://www.w3.org/2000/svg" xmlns:xlink="http://www.w3.org/1999/xlink" width="1080" zoomAndPan="magnify" viewBox="0 0 810 1439.999935" height="1920" preserveAspectRatio="xMidYMid meet" version="1.0"><defs><clipPath id="53ca780e71"><path d="M 0 625 L 510 625 L 510 1170 L 0 1170 Z M 0 625 " clip-rule="nonzero"/></clipPath><clipPath id="47f1c54b1c"><path d="M 461 270 L 513 270 L 513 323 L 461 323 Z M 461 270 " clip-rule="nonzero"/></clipPath></defs><g clip-path="url(#53ca780e71)"><path fill="#ff3131" d="M 509.335938 867.882812 L 447.414062 904.671875 L 331.375 973.667969 L 268.09375 1011.230469 L 174.601562 1066.84375 L 132.367188 1091.886719 L 132.324219 1091.929688 L 75.167969 1125.953125 L 0.863281 1170.046875 L 24.949219 1113.566406 L 35.882812 1087.9375 L 61.011719 1028.875 L 73.125 1000.296875 L 103.292969 929.578125 L 116.082031 899.457031 L 153.78125 811.042969 L 168.976562 775.25 L 198.554688 705.9375 L 211.574219 675.273438 L 232.621094 625.917969 L 509.335938 867.882812 " fill-opacity="1" fill-rule="nonzero"/></g><path fill="#000000" d="M 718.457031 788.269531 L 467.464844 785.820312 L 714.238281 739.824219 Z M 718.457031 788.269531 " fill-opacity="1" fill-rule="nonzero"/><path fill="#000000" d="M 757.378906 611.539062 L 422.101562 746.175781 L 736.238281 567.714844 Z M 757.378906 611.539062 " fill-opacity="1" fill-rule="nonzero"/><path fill="#000000" d="M 332.28125 405.769531 L 319.535156 656.445312 L 283.699219 407.992188 Z M 332.28125 405.769531 " fill-opacity="1" fill-rule="nonzero"/><path fill="#000000" d="M 499.945312 360.996094 L 364.855469 696.140625 L 453.675781 345.890625 Z M 499.945312 360.996094 " fill-opacity="1" fill-rule="nonzero"/><path fill="#000000" d="M 689.652344 440.519531 L 390.167969 718.230469 L 654.496094 406.90625 Z M 689.652344 440.519531 " fill-opacity="1" fill-rule="nonzero"/><path fill="#004aad" d="M 132.324219 1091.929688 L 75.167969 1125.953125 L 24.949219 1113.566406 L 35.882812 1087.9375 L 132.324219 1091.929688 " fill-opacity="1" fill-rule="nonzero"/><path fill="#004aad" d="M 268.09375 1011.230469 L 174.601562 1066.84375 L 61.011719 1028.875 L 73.125 1000.296875 L 268.09375 1011.230469 " fill-opacity="1" fill-rule="nonzero"/><path fill="#004aad" d="M 447.414062 904.671875 L 331.375 973.667969 L 103.292969 929.578125 L 116.082031 899.457031 L 447.414062 904.671875 " fill-opacity="1" fill-rule="nonzero"/><path fill="#004aad" d="M 499.445312 859.265625 L 153.78125 811.042969 L 168.976562 775.25 L 379.550781 754.386719 L 499.445312 859.265625 " fill-opacity="1" fill-rule="nonzero"/><path fill="#004aad" d="M 348.023438 726.851562 L 198.554688 705.9375 L 211.574219 675.273438 L 281.203125 668.332031 L 348.023438 726.851562 " fill-opacity="1" fill-rule="nonzero"/><path fill="#000000" d="M 707.253906 527.523438 L 705.167969 508.382812 L 688.246094 499.265625 L 705.800781 491.371094 L 709.25 472.453125 L 722.175781 486.742188 L 741.230469 484.15625 L 731.660156 500.851562 L 740.003906 518.179688 L 721.179688 514.234375 L 707.253906 527.523438 " fill-opacity="1" fill-rule="nonzero"/><path fill="#ffde59" d="M 657.761719 699.675781 L 660.074219 691.011719 L 654.222656 684.164062 L 663.160156 683.710938 L 667.878906 676.042969 L 671.097656 684.433594 L 679.808594 686.476562 L 672.867188 692.148438 L 673.59375 701.128906 L 666.019531 696.230469 L 657.761719 699.675781 " fill-opacity="1" fill-rule="nonzero"/><path fill="#ffde59" d="M 501.351562 491.097656 L 494.273438 463.199219 L 467.28125 453.222656 L 491.597656 437.84375 L 492.730469 409.082031 L 514.867188 427.5 L 542.585938 419.652344 L 531.925781 446.417969 L 547.894531 470.324219 L 519.179688 468.460938 L 501.351562 491.097656 " fill-opacity="1" fill-rule="nonzero"/><path fill="#8c52ff" d="M 659.394531 370.796875 L 656.898438 360.863281 L 647.285156 357.277344 L 655.949219 351.789062 L 656.402344 341.539062 L 664.25 348.113281 L 674.136719 345.347656 L 670.328125 354.875 L 676.042969 363.402344 L 665.792969 362.722656 L 659.394531 370.796875 " fill-opacity="1" fill-rule="nonzero"/><path fill="#8c52ff" d="M 362.585938 502.574219 L 355.644531 485.835938 L 337.90625 482.117188 L 351.609375 470.324219 L 349.703125 452.3125 L 365.171875 461.703125 L 381.730469 454.308594 L 377.511719 471.957031 L 389.667969 485.382812 L 371.613281 486.878906 L 362.585938 502.574219 " fill-opacity="1" fill-rule="nonzero"/><path fill="#000000" d="M 769.082031 703.714844 L 773.257812 688.199219 L 762.777344 675.953125 L 778.835938 675.089844 L 787.226562 661.390625 L 793.035156 676.359375 L 808.683594 680.125 L 796.210938 690.242188 L 797.480469 706.300781 L 783.960938 697.546875 L 769.082031 703.714844 " fill-opacity="1" fill-rule="nonzero"/><g clip-path="url(#47f1c54b1c)"><path fill="#000000" d="M 497.042969 322.121094 L 482.796875 310.554688 L 465.195312 315.726562 L 471.773438 298.625 L 461.429688 283.519531 L 479.710938 284.46875 L 490.917969 269.953125 L 495.636719 287.691406 L 512.917969 293.816406 L 497.539062 303.796875 L 497.042969 322.121094 " fill-opacity="1" fill-rule="nonzero"/></g><path fill="#8c52ff" d="M 375.875 381.320312 L 378.644531 370.886719 L 371.613281 362.722656 L 382.363281 362.132812 L 387.988281 352.96875 L 391.890625 362.992188 L 402.367188 365.488281 L 393.976562 372.292969 L 394.839844 383.042969 L 385.8125 377.191406 L 375.875 381.320312 " fill-opacity="1" fill-rule="nonzero"/><path fill="#8c52ff" d="M 599.242188 598.246094 L 602.011719 587.859375 L 595.023438 579.648438 L 605.777344 579.101562 L 611.402344 569.894531 L 615.257812 579.964844 L 625.734375 582.414062 L 617.390625 589.21875 L 618.25 599.96875 L 609.179688 594.117188 L 599.242188 598.246094 " fill-opacity="1" fill-rule="nonzero"/></svg>